{
.appVersion = "1199";
DisplayStrings = (
a,
"falgafel\012jesus",
SO,
Q,
C,
"/c_p/c_t/e_t/f_b/f_f/f_f_b/f_f_h/f_f_i/f_f_j/f_f_k/f_f_l/f_f_t/f_h/f_i/f_j/f_k/f_l/f_t/s_p/s_t",
"lIÍgf\012\012nngfnn\012\012clingfish dogfishes bigfooted eggfruitsAV\012nngfnnoogfooiigfii\012\012oogoo\012dogfights dogfought hogfishes\012hagfishes\012hangfires\012pigfishes\012sangfroid\012slugfests\012songfests\012songfully",
"$38  £/sterling.tnum/one.tnum/two.tnum 54  /Euro 93\012 /two.tnum/six.tnum/eight.tnum/one.tnum/nine.tnum/three.tnum  \012 /yen.tnum/five.tnum/dollar.tnum/two.tnum/sterling.tnum/eight.tnum  \012",
"|/Placeholder |H/Placeholder H8/Placeholder 8\012/zero.tnum/one.tnum/two.tnum/three.tnum/four.tnum/five.tnum/six.tnum/seven.tnum/eight.tnum/nine.tnum/period.tnum/comma.tnum/colon.tnum/semicolon.tnum/periodcentered.tnum/numbersign.tnum/slash.tnum/underscore.tnum/quotedbl.tnum/quotesingle.tnum/cent.tnum/dollar.tnum/Euro.tnum/sterling.tnum/yen.tnum/plus.tnum/minus.tnum/multiply.tnum/divide.tnum/equal.tnum/greater.tnum/less.tnum/plusminus.tnum/percent.tnum/paragraph.tnum/section.tnum/degree.tnum/bar.tnum",
"/f_f",
"H&H\012",
"/f.fragment_dot  /f.fragment_dot_2  /f.fragment_1  /f.fragment_2  /f.fragment_3  /b.fragment_1  /h.fragment_1  /i.fragment_1  /j.fragment_1  /k.fragment_1  /l.fragment_1  /t.fragment_1 \012/f_b/f_f/f_f_b/f_f_h/f_f_i/f_f_j/f_f_k/f_f_l/f_f_t/f_h/f_i/f_j/f_k/f_l/f_t nnßnn\012nnknn\012llkll",
"ß/f_b/f_f/f_f_b/f_f_h/f_f_i/f_f_j/f_f_k/f_f_l/f_f_t/f_h/f_i/f_j/f_k/f_l/f_t"
);
classes = (
{
code = "Euro bar cent colon comma degree divide dollar eight equal five four greater less minus multiply nine numbersign one paragraph percent period periodcentered plus plusminus quotedbl quotesingle section semicolon seven six slash sterling three two underscore yen zero";
name = tnum1;
},
{

glyphs = (
{
glyphname = A;
layers = (
{
anchors = (
{
name = bottom;
position = "{769, 0}";
},
{
name = topcap;
position = "{1040, 1427}";
}
);
layerId = master01;
paths = (
{
closed = 1;
nodes = (
"229 0 LINE",
"251 48 LINE",
"149 62 OFFCURVE",
"106 82 OFFCURVE",
"104 118 CURVE SMOOTH",
"104 149 OFFCURVE",
"120 174 OFFCURVE",
"174 235 CURVE SMOOTH",
"396 491 LINE",
"803 491 LINE",
"760 181 LINE SMOOTH",
"744 74 OFFCURVE",
"689 50 OFFCURVE",
"559 48 CURVE",
"534 0 LINE",
"1063 0 LINE",
"1088 48 LINE",
"981 55 OFFCURVE",
"943 68 OFFCURVE",
"941 129 CURVE SMOOTH",
"941 138 OFFCURVE",
"941 147 OFFCURVE",
"943 158 CURVE SMOOTH",
"1100 1363 LINE",
"914 1323 LINE",
"896 1164 LINE",
"100 239 LINE SMOOTH",
"-11 111 OFFCURVE",
"-62 72 OFFCURVE",
"-226 48 CURVE",
"-249 0 LINE"
);
},
{
closed = 1;
nodes = (
"884 1056 LINE",
"812 555 LINE",
"450 555 LINE"
);
}
);
width = 1285;
}
);
leftKerningGroup = A;
rightKerningGroup = A;
unicode = 0041;
},
{
glyphname = Aringacute;
layers = (
{
components = (
{
name = A;
},
{
name = ring.cap;
transform = "{1, 0, 0, 1, 892, 0}";
}
);
layerId = master01;
paths = (
{
closed = 1;
nodes = (
"1228 1506 OFFCURVE",
"1257 1529 OFFCURVE",
"1257 1567 CURVE SMOOTH",
"1257 1605 OFFCURVE",
"1232 1626 OFFCURVE",
"1181 1626 CURVE SMOOTH",
"1165 1626 OFFCURVE",
"1151 1622 OFFCURVE",
"1135 1617 CURVE",
"1138 1506 LINE SMOOTH"
);
},
{
closed = 1;
nodes = (
"950 1572 LINE",
"842 1536 LINE",
"849 1495 LINE",
"945 1492 LINE"
);
}
);
width = 1285;
}
);
leftKerningGroup = A;
rightKerningGroup = A;
unicode = 01FA;
},
{
glyphname = AE;
layers = (
{
layerId = master01;
paths = (
{
closed = 1;
nodes = (
"249 0 LINE",
"271 48 LINE",
"172 62 OFFCURVE",
"129 82 OFFCURVE",
"129 118 CURVE SMOOTH",
"129 147 OFFCURVE",
"147 176 OFFCURVE",
"203 235 CURVE SMOOTH",
"435 491 LINE",
"794 491 LINE",
"624 81 LINE",
"466 48 LINE",
"445 0 LINE",
"1492 0 LINE",
"1648 396 LINE",
"1599 396 LINE",
"1533 287 OFFCURVE",
"1456 177 OFFCURVE",
"1363 68 CURVE",
"808 68 LINE",
"1052 663 LINE",
"1351 663 LINE",
"1348 595 OFFCURVE",
"1341 526 OFFCURVE",
"1321 457 CURVE",
"1371 457 LINE",
"1565 928 LINE",
"1516 928 LINE",
"1477 863 OFFCURVE",
"1429 798 OFFCURVE",
"1371 732 CURVE",
"1083 732 LINE",
"1296 1255 LINE",
"1685 1255 LINE",
"1734 1169 OFFCURVE",
"1764 1067 OFFCURVE",
"1784 945 CURVE",
"1830 945 LINE",
"1816 1323 LINE",
"920 1323 LINE",
"902 1284 LINE",
"1035 1251 LINE",
"122 239 LINE SMOOTH",
"7 111 OFFCURVE",
"-45 72 OFFCURVE",
"-210 48 CURVE",
"-233 0 LINE"
);
},
{
closed = 1;
nodes = (
"1083 1207 LINE",
"1090 1207 LINE",
"820 555 LINE",
"491 555 LINE"
);
}
);
width = 1787;
}
);
leftKerningGroup = AE;
rightKerningGroup = E;
unicode = 00C6;
},
{
glyphname = B;
layers = (
{
layerId = master01;
paths = (
{
closed = 1;
nodes = (
"509 0 LINE SMOOTH",
"842 0 OFFCURVE",
"1063 160 OFFCURVE",
"1063 402 CURVE SMOOTH",
"1063 547 OFFCURVE",
"986 648 OFFCURVE",
"849 683 CURVE",
"849 689 LINE",
"1076 724 OFFCURVE",
"1244 880 OFFCURVE",
"1244 1054 CURVE SMOOTH",
"1244 1221 OFFCURVE",
"1088 1323 OFFCURVE",
"844 1323 CURVE SMOOTH",
"432 1323 LINE",
"412 1275 LINE",
"547 1242 LINE",
"62 81 LINE",
"-90 48 LINE",
"-108 0 LINE"
);
},
{
closed = 1;
nodes = (
"321 65 OFFCURVE",
"285 82 OFFCURVE",
"285 127 CURVE SMOOTH",
"285 149 OFFCURVE",
"294 183 OFFCURVE",
"314 232 CURVE SMOOTH",
"493 669 LINE",
"617 669 LINE SMOOTH",
"792 669 OFFCURVE",
"878 595 OFFCURVE",
"878 432 CURVE SMOOTH",
"878 196 OFFCURVE",
"719 65 OFFCURVE",
"418 65 CURVE SMOOTH"
);
},
{
closed = 1;
nodes = (
"739 1253 LINE",
"844 1253 LINE SMOOTH",
"990 1253 OFFCURVE",
"1065 1189 OFFCURVE",
"1065 1052 CURVE SMOOTH",
"1065 855 OFFCURVE",
"925 737 OFFCURVE",
"683 737 CURVE SMOOTH",
"522 737 LINE"
);
}
);
width = 1229;
}
);
leftKerningGroup = I;
unicode = 0042;
},
{
glyphname = C;
layers = (
{
anchors = (
{
name = bottom;
position = "{522, 0}";
},
{
name = topcap;
position = "{1135, 1427}";
}
);
layerId = master01;
paths = (
{
closed = 1;
nodes = (
"667 -18 OFFCURVE",
"785 25 OFFCURVE",
"921 133 CURVE",
"928 133 LINE",
"914 0 LINE",
"961 0 LINE",
"1151 504 LINE",
"1102 504 LINE",
"984 230 OFFCURVE",
"780 63 OFFCURVE",
"559 63 CURVE SMOOTH",
"385 63 OFFCURVE",
"297 168 OFFCURVE",
"297 376 CURVE SMOOTH",
"297 820 OFFCURVE",
"683 1265 OFFCURVE",
"1069 1265 CURVE SMOOTH",
"1203 1265 OFFCURVE",
"1265 1212 OFFCURVE",
"1265 1090 CURVE SMOOTH",
"1265 1045 OFFCURVE",
"1257 992 OFFCURVE",
"1239 928 CURVE",
"1289 928 LINE",
"1456 1323 LINE",
"1418 1323 LINE",
"1356 1267 LINE",
"1294 1313 OFFCURVE",
"1196 1341 OFFCURVE",
"1086 1341 CURVE SMOOTH",
"598 1341 OFFCURVE",
"108 853 OFFCURVE",
"108 366 CURVE SMOOTH",
"108 111 OFFCURVE",
"242 -18 OFFCURVE",
"512 -18 CURVE SMOOTH"
);
}
);
width = 1275;
}
);
leftKerningGroup = C;
rightKerningGroup = C;
unicode = 0043;
},
{
glyphname = D;
layers = (
{
anchors = (
{
name = bottom;
position = "{398, 0}";
},
{
name = topcap;
position = "{988, 1427}";
}
);
layerId = master01;
paths = (
{
closed = 1;
nodes = (
"416 0 LINE SMOOTH",
"600 0 OFFCURVE",
"746 25 OFFCURVE",
"868 81 CURVE SMOOTH",
"1153 208 OFFCURVE",
"1343 500 OFFCURVE",
"1343 808 CURVE SMOOTH",
"1343 1122 OFFCURVE",
"1124 1323 OFFCURVE",
"784 1323 CURVE SMOOTH",
"430 1323 LINE",
"412 1284 LINE",
"547 1251 LINE",
"59 72 LINE",
"-100 39 LINE",
"-117 0 LINE"
);
},
{
closed = 1;
nodes = (
"318 72 OFFCURVE",
"285 90 OFFCURVE",
"285 138 CURVE SMOOTH",
"285 158 OFFCURVE",
"292 186 OFFCURVE",
"308 222 CURVE SMOOTH",
"735 1255 LINE",
"782 1255 LINE SMOOTH",
"1018 1255 OFFCURVE",
"1153 1106 OFFCURVE",
"1153 851 CURVE SMOOTH",
"1153 359 OFFCURVE",
"806 72 OFFCURVE",
"405 72 CURVE SMOOTH"
);
}
);
width = 1384;
}
);
leftKerningGroup = I;
rightKerningGroup = D;
unicode = 0044;
},
{
glyphname = Eth;
layers = (
{
components = (
{
name = D;
transform = "{1, 0, 0, 1, 5, 0}";
}
);
layerId = master01;
paths = (
{
closed = 1;
nodes = (
"746 646 LINE",
"778 722 LINE",
"165 722 LINE",
"134 646 LINE"
);
}
);
width = 1389;
}
);
leftKerningGroup = I;
rightKerningGroup = D;
unicode = 00D0;
},
{
glyphname = Dcroat;
layers = (
{
components = (
{
name = D;
transform = "{1, 0, 0, 1, 5, 0}";
}
);
layerId = master01;
paths = (
{
closed = 1;
nodes = (
"746 646 LINE",
"778 722 LINE",
"165 722 LINE",
"134 646 LINE"
);
}
);
width = 1389;
}
);
leftKerningGroup = I;
rightKerningGroup = D;
unicode = 0110;
},
{
glyphname = E;
layers = (
{
anchors = (
{
name = bottom;
position = "{414, 0}";
},
{
name = topcap;
position = "{959, 1427}";
}
);
layerId = master01;
paths = (
{
closed = 1;
nodes = (
"930 0 LINE",
"1086 396 LINE",
"1036 396 LINE",
"971 287 OFFCURVE",
"894 177 OFFCURVE",
"801 68 CURVE",
"246 68 LINE",
"490 663 LINE",
"789 663 LINE",
"785 595 OFFCURVE",
"778 526 OFFCURVE",
"760 457 CURVE",
"810 457 LINE",
"1004 928 LINE",
"954 928 LINE",
"914 863 OFFCURVE",
"866 798 OFFCURVE",
"810 732 CURVE",
"521 732 LINE",
"734 1255 LINE",
"1122 1255 LINE",
"1172 1169 OFFCURVE",
"1201 1067 OFFCURVE",
"1222 945 CURVE",
"1269 945 LINE",
"1255 1323 LINE",
"430 1323 LINE",
"412 1284 LINE",
"547 1251 LINE",
"59 72 LINE",
"-100 39 LINE",
"-117 0 LINE"
);
}
);
width = 1226;
}
);
leftKerningGroup = I;
rightKerningGroup = E;
unicode = 0045;
},
{
glyphname = F;
layers = (
{
layerId = master01;
paths = (
{
closed = 1;
nodes = (
"430 0 LINE",
"447 39 LINE",
"246 68 LINE",
"481 643 LINE",
"780 643 LINE",
"777 574 OFFCURVE",
"770 505 OFFCURVE",
"751 437 CURVE",
"801 437 LINE",
"995 907 LINE",
"945 907 LINE",
"906 842 OFFCURVE",
"857 777 OFFCURVE",
"801 712 CURVE",
"512 712 LINE",
"734 1255 LINE",
"1136 1255 LINE",
"1176 1169 OFFCURVE",
"1205 1067 OFFCURVE",
"1222 945 CURVE",
"1269 945 LINE",
"1269 1323 LINE",
"430 1323 LINE",
"412 1284 LINE",
"547 1251 LINE",
"59 72 LINE",
"-100 39 LINE",
"-117 0 LINE"
);
}
);
width = 1106;
}
);
leftKerningGroup = I;
unicode = 0046;
},
{
glyphname = G;
layers = (
{
anchors = (
{
name = bottom;
position = "{533, 0}";
},
{
name = topcap;
position = "{1135, 1427}";
}
);
layerId = master01;
paths = (
{
closed = 1;
nodes = (
"703 -18 OFFCURVE",
"866 24 OFFCURVE",
"1006 102 CURVE",
"1208 591 LINE",
"1373 624 LINE",
"1391 663 LINE",
"902 663 LINE",
"885 624 LINE",
"1027 591 LINE",
"896 273 LINE SMOOTH",
"834 124 OFFCURVE",
"744 59 OFFCURVE",
"598 59 CURVE SMOOTH",
"409 59 OFFCURVE",
"316 172 OFFCURVE",
"316 400 CURVE SMOOTH",
"316 848 OFFCURVE",
"672 1265 OFFCURVE",
"1052 1265 CURVE SMOOTH",
"1201 1265 OFFCURVE",
"1273 1201 OFFCURVE",
"1273 1067 CURVE SMOOTH",
"1273 1022 OFFCURVE",
"1265 973 OFFCURVE",
"1250 911 CURVE",
"1301 911 LINE",
"1470 1323 LINE",
"1429 1323 LINE",
"1341 1246 LINE",
"1265 1312 OFFCURVE",
"1179 1341 OFFCURVE",
"1059 1341 CURVE SMOOTH",
"590 1341 OFFCURVE",
"122 875 OFFCURVE",
"122 407 CURVE SMOOTH",
"122 138 OFFCURVE",
"282 -18 OFFCURVE",
"561 -18 CURVE SMOOTH"
);
}
);
width = 1371;
}
);
leftKerningGroup = G;
rightKerningGroup = G;
unicode = 0047;
},
{
glyphname = H;
layers = (
{
anchors = (
{
name = bottom;
position = "{520, 0}";
},
{
name = topcap;
position = "{1108, 1427}";
}
);
layerId = master01;
paths = (
{
closed = 1;
nodes = (
"373 0 LINE",
"391 39 LINE",
"249 72 LINE",
"493 662 LINE",
"1105 662 LINE",
"861 72 LINE",
"694 39 LINE",
"677 0 LINE",
"1176 0 LINE",
"1191 36 LINE",
"1052 72 LINE",
"1542 1251 LINE",
"1707 1280 LINE",
"1724 1323 LINE",
"1226 1323 LINE",
"1208 1284 LINE",
"1351 1251 LINE",
"1135 730 LINE",
"522 730 LINE",
"739 1251 LINE",
"904 1284 LINE",
"921 1323 LINE",
"423 1323 LINE",
"405 1284 LINE",
"548 1251 LINE",
"61 72 LINE",
"-106 39 LINE",
"-124 0 LINE"
);
}
);
width = 1477;
}
);
leftKerningGroup = I;
rightKerningGroup = I;
unicode = 0048;
},
{
glyphname = Hbar;
layers = (
{
components = (
{
name = H;
transform = "{1, 0, 0, 1, 2, 0}";
}
);
layerId = master01;
paths = (
{
closed = 1;
nodes = (
"1586 945 LINE",
"1619 1021 LINE",
"318 1021 LINE",
"287 945 LINE"
);
}
);
width = 1479;
}
);
leftKerningGroup = I;
rightKerningGroup = I;
unicode = 0126;
},
{
glyphname = I;
layers = (
{
anchors = (
{
name = bottom;
position = "{129, 0}";
},
{
name = topcap;
position = "{722, 1427}";
}
);
layerId = master01;
paths = (
{
closed = 1;
nodes = (
"373 0 LINE",
"391 39 LINE",
"249 72 LINE",
"739 1251 LINE",
"904 1284 LINE",
"921 1323 LINE",
"423 1323 LINE",
"405 1284 LINE",
"548 1251 LINE",
"61 72 LINE",
"-106 39 LINE",
"-124 0 LINE"
);
}
);
width = 674;
}
);
leftKerningGroup = I;
rightKerningGroup = I;
unicode = 0049;
},
{
glyphname = J;
layers = (
{
anchors = (
{
name = topcap;
position = "{722, 1427}";
}
);
layerId = master01;
paths = (
{
closed = 1;
nodes = (
"-82 -440 OFFCURVE",
"97 -290 OFFCURVE",
"197 -47 CURVE SMOOTH",
"737 1251 LINE",
"902 1284 LINE",
"920 1323 LINE",
"421 1323 LINE",
"404 1284 LINE",
"547 1251 LINE",
"5 -47 LINE SMOOTH",
"-100 -296 OFFCURVE",
"-146 -371 OFFCURVE",
"-220 -371 CURVE SMOOTH",
"-323 -371 OFFCURVE",
"-275 -219 OFFCURVE",
"-387 -219 CURVE SMOOTH",
"-432 -219 OFFCURVE",
"-475 -249 OFFCURVE",
"-475 -305 CURVE SMOOTH",
"-475 -378 OFFCURVE",
"-396 -440 OFFCURVE",
"-270 -440 CURVE SMOOTH"
);
}
);
width = 653;
}
);
leftKerningGroup = J;
rightKerningGroup = J;
unicode = 004A;
},
{
glyphname = K;
layers = (
{
anchors = (
{
name = bottom;
position = "{483, 0}";
}
);
layerId = master01;
paths = (
{
closed = 1;
nodes = (
"434 0 LINE",
"450 39 LINE",
"246 72 LINE",
"457 581 LINE",
"576 674 LINE",
"814 0 LINE",
"1126 0 LINE",
"1138 39 LINE",
"986 72 LINE",
"717 787 LINE",
"1215 1185 LINE SMOOTH",
"1291 1244 OFFCURVE",
"1343 1269 OFFCURVE",
"1443 1275 CURVE",
"1468 1323 LINE",
"1022 1323 LINE",
"1007 1284 LINE",
"1090 1280 OFFCURVE",
"1126 1255 OFFCURVE",
"1126 1221 CURVE SMOOTH",
"1126 1196 OFFCURVE",
"1100 1167 OFFCURVE",
"1049 1126 CURVE SMOOTH",
"507 699 LINE",
"737 1253 LINE",
"877 1284 LINE",
"894 1323 LINE",
"430 1323 LINE",
"414 1284 LINE",
"548 1251 LINE",
"57 72 LINE",
"-95 39 LINE",
"-110 0 LINE"
);
}
);
width = 1277;
}
);
leftKerningGroup = I;
rightKerningGroup = K;
unicode = 004B;
},
{
glyphname = L;
layers = (
{
anchors = (
{
name = bottom;
position = "{455, 0}";
}
);
layerId = master01;
paths = (
{
closed = 1;
nodes = (
"930 0 LINE",
"1095 416 LINE",
"1036 416 LINE",
"971 308 OFFCURVE",
"885 177 OFFCURVE",
"792 68 CURVE",
"246 68 LINE",
"730 1246 LINE",
"904 1284 LINE",
"921 1323 LINE",
"430 1323 LINE",
"412 1284 LINE",
"547 1251 LINE",
"59 72 LINE",
"-100 39 LINE",
"-117 0 LINE"
);
}
);
width = 1194;
}
);
leftKerningGroup = I;
rightKerningGroup = L;
unicode = 004C;
},
{
glyphname = Lslash;
layers = (
{
components = (
{
name = L;
transform = "{1, 0, 0, 1, 4, 0}";
}
);
layerId = master01;
paths = (
{
closed = 1;
nodes = (
"751 792 LINE",
"755 877 LINE",
"74 554 LINE",
"74 471 LINE"
);
}
);
width = 1198;
}
);
leftKerningGroup = I;
rightKerningGroup = L;
unicode = 0141;
},
{
glyphname = M;
layers = (
{
layerId = master01;
paths = (
{
closed = 1;
nodes = (
"617 -18 LINE",
"1576 1221 LINE",
"1583 1221 LINE",
"1104 72 LINE",
"937 39 LINE",
"920 0 LINE",
"1407 0 LINE",
"1425 39 LINE",
"1284 72 LINE",
"1773 1251 LINE",
"1940 1284 LINE",
"1956 1323 LINE",
"1554 1323 LINE",
"762 290 LINE",
"755 290 LINE",
"878 1323 LINE",
"477 1323 LINE",
"461 1284 LINE",
"615 1251 LINE",
"12 72 LINE",
"-154 39 LINE",
"-172 0 LINE",
"219 0 LINE",
"235 39 LINE",
"95 72 LINE",
"669 1186 LINE",
"676 1186 LINE",
"526 -18 LINE"
);
}
);
width = 1708;
}
);
rightKerningGroup = I;
unicode = 004D;
userData = {
com.typemytype.robofont.guides = (
{
angle = 0;
isGlobal = 0;
magnetic = 5;
x = 0;
y = 23;
},
{
angle = 0;
isGlobal = 0;
magnetic = 5;
x = 0;
y = 728;
}
);
};
},
{
glyphname = N;
layers = (
{
anchors = (
{
name = bottom;
position = "{500, -18}";
},
{
name = topcap;
position = "{1113, 1427}";
}
);
layerId = master01;
paths = (
{
closed = 1;
nodes = (
"956 -18 LINE",
"1483 1251 LINE",
"1648 1284 LINE",
"1665 1323 LINE",
"1273 1323 LINE",
"1257 1284 LINE",
"1399 1251 LINE",
"1002 294 LINE",
"995 294 LINE",
"782 1323 LINE",
"418 1323 LINE",
"400 1284 LINE",
"543 1251 LINE",
"55 72 LINE",
"-111 39 LINE",
"-129 0 LINE",
"262 0 LINE",
"278 39 LINE",
"138 72 LINE",
"600 1186 LINE",
"606 1186 LINE",
"855 -18 LINE"
);
}
);
width = 1400;
}
);
leftKerningGroup = N;
rightKerningGroup = N;
unicode = 004E;
},
{
glyphname = Eng;
layers = (
{
components = (
{
name = N;
}
);
layerId = master01;
paths = (
{
closed = 1;
nodes = (
"663 -440 OFFCURVE",
"842 -290 OFFCURVE",
"943 -47 CURVE SMOOTH",
"1054 220 LINE",
"880 220 LINE",
"769 -47 LINE SMOOTH",
"662 -301 OFFCURVE",
"605 -371 OFFCURVE",
"526 -371 CURVE SMOOTH",
"423 -371 OFFCURVE",
"471 -219 OFFCURVE",
"359 -219 CURVE SMOOTH",
"314 -219 OFFCURVE",
"271 -249 OFFCURVE",
"271 -305 CURVE SMOOTH",
"271 -378 OFFCURVE",
"351 -440 OFFCURVE",
"477 -440 CURVE SMOOTH"
);
}
);
width = 1400;
}
);
leftKerningGroup = N;
rightKerningGroup = N;
unicode = 014A;
},
{
glyphname = O;
layers = (
{
anchors = (
{
name = bottom;
position = "{491, 0}";
},
{
name = topcap;
position = "{1081, 1427}";
}
);
layerId = master01;
paths = (
{
closed = 1;
nodes = (
"952 -18 OFFCURVE",
"1377 445 OFFCURVE",
"1377 913 CURVE SMOOTH",
"1377 1185 OFFCURVE",
"1232 1341 OFFCURVE",
"981 1341 CURVE SMOOTH",
"555 1341 OFFCURVE",
"129 873 OFFCURVE",
"129 405 CURVE SMOOTH",
"129 138 OFFCURVE",
"273 -18 OFFCURVE",
"522 -18 CURVE SMOOTH"
);
},
{
closed = 1;
nodes = (
"398 63 OFFCURVE",
"328 160 OFFCURVE",
"328 361 CURVE SMOOTH",
"328 803 OFFCURVE",
"656 1265 OFFCURVE",
"971 1265 CURVE SMOOTH",
"1115 1265 OFFCURVE",
"1186 1169 OFFCURVE",
"1186 971 CURVE SMOOTH",
"1186 524 OFFCURVE",
"863 63 OFFCURVE",
"548 63 CURVE SMOOTH"
);
}
);
width = 1382;
}
);
leftKerningGroup = O;
rightKerningGroup = O;
unicode = 004F;
},
{
glyphname = Oslash;
layers = (
{
components = (
{
name = O;
}
);
layerId = master01;
paths = (
{
closed = 1;
nodes = (
"181 -256 LINE",
"1449 1528 LINE",
"1354 1528 LINE",
"90 -256 LINE"
);
}
);
width = 1382;
}
);
leftKerningGroup = O;
rightKerningGroup = O;
unicode = 00D8;
},
{
glyphname = Oslashacute;
layers = (
{
components = (
{
name = O;
}
);
layerId = master01;
paths = (
{
closed = 1;
nodes = (
"181 -256 LINE",
"1449 1528 LINE",
"1354 1528 LINE",
"90 -256 LINE"
);
},
{
closed = 1;
nodes = (
"1165 1479 LINE SMOOTH",
"1255 1504 OFFCURVE",
"1282 1536 OFFCURVE",
"1282 1576 CURVE SMOOTH",
"1282 1619 OFFCURVE",
"1246 1650 OFFCURVE",
"1208 1650 CURVE SMOOTH",
"1181 1650 OFFCURVE",
"1158 1642 OFFCURVE",
"1133 1622 CURVE SMOOTH",
"885 1438 LINE",
"904 1402 LINE"
);
}
);
width = 1382;
}
);
leftKerningGroup = O;
rightKerningGroup = O;
unicode = 01FE;
},
{
glyphname = OE;
layers = (
{
layerId = master01;
paths = (
{
closed = 1;
nodes = (
"605 -18 OFFCURVE",
"660 -12 OFFCURVE",
"717 0 CURVE",
"1633 0 LINE",
"1789 396 LINE",
"1739 396 LINE",
"1669 278 OFFCURVE",
"1590 170 OFFCURVE",
"1504 68 CURVE",
"949 68 LINE",
"1192 663 LINE",
"1492 663 LINE",
"1488 577 OFFCURVE",
"1479 514 OFFCURVE",
"1463 457 CURVE",
"1513 457 LINE",
"1707 928 LINE",
"1657 928 LINE",
"1617 863 OFFCURVE",
"1569 798 OFFCURVE",
"1513 732 CURVE",
"1224 732 LINE",
"1437 1255 LINE",
"1825 1255 LINE",
"1870 1174 OFFCURVE",
"1901 1078 OFFCURVE",
"1925 945 CURVE",
"1972 945 LINE",
"1958 1323 LINE",
"1208 1323 LINE",
"1164 1334 OFFCURVE",
"1115 1341 OFFCURVE",
"1057 1341 CURVE SMOOTH",
"579 1341 OFFCURVE",
"125 887 OFFCURVE",
"125 409 CURVE SMOOTH",
"125 140 OFFCURVE",
"282 -18 OFFCURVE",
"552 -18 CURVE SMOOTH"
);
},
{
closed = 1;
nodes = (
"405 63 OFFCURVE",
"325 161 OFFCURVE",
"325 364 CURVE SMOOTH",
"325 803 OFFCURVE",
"672 1265 OFFCURVE",
"1002 1265 CURVE SMOOTH",
"1100 1265 OFFCURVE",
"1167 1232 OFFCURVE",
"1210 1165 CURVE",
"746 111 LINE",
"696 79 OFFCURVE",
"640 63 OFFCURVE",
"574 63 CURVE SMOOTH"
);
}
);
width = 1929;
}
);
leftKerningGroup = O;
rightKerningGroup = E;
unicode = 0152;
},
{
glyphname = P;
layers = (
{
layerId = master01;
paths = (
{
closed = 1;
nodes = (
"434 0 LINE",
"450 39 LINE",
"246 72 LINE",
"455 586 LINE",
"624 586 LINE SMOOTH",
"992 586 OFFCURVE",
"1237 760 OFFCURVE",
"1237 1021 CURVE SMOOTH",
"1237 1212 OFFCURVE",
"1092 1323 OFFCURVE",
"842 1323 CURVE SMOOTH",
"430 1323 LINE",
"414 1284 LINE",
"548 1251 LINE",
"57 72 LINE",
"-95 39 LINE",
"-110 0 LINE"
);
},
{
closed = 1;
nodes = (
"737 1253 LINE",
"842 1253 LINE SMOOTH",
"983 1253 OFFCURVE",
"1059 1179 OFFCURVE",
"1059 1045 CURVE SMOOTH",
"1059 834 OFFCURVE",
"875 662 OFFCURVE",
"648 662 CURVE SMOOTH",
"488 662 LINE"
);
}
);
width = 1122;
}
);
leftKerningGroup = I;
unicode = 0050;
},
{
glyphname = Thorn;
layers = (
{
layerId = master01;
paths = (
{
closed = 1;
nodes = (
"438 0 LINE",
"455 39 LINE",
"251 72 LINE",
"342 287 LINE",
"511 287 LINE SMOOTH",
"878 287 OFFCURVE",
"1124 461 OFFCURVE",
"1124 722 CURVE SMOOTH",
"1124 913 OFFCURVE",
"978 1024 OFFCURVE",
"729 1024 CURVE SMOOTH",
"653 1024 LINE",
"749 1251 LINE",
"900 1284 LINE",
"916 1323 LINE",
"373 1323 LINE",
"355 1284 LINE",
"561 1251 LINE",
"62 72 LINE",
"-90 39 LINE",
"-104 0 LINE"
);
},
{
closed = 1;
nodes = (
"624 954 LINE",
"729 954 LINE SMOOTH",
"870 954 OFFCURVE",
"945 880 OFFCURVE",
"945 746 CURVE SMOOTH",
"945 534 OFFCURVE",
"762 362 OFFCURVE",
"534 362 CURVE SMOOTH",
"375 362 LINE"
);
}
);
width = 1131;
}
);
leftKerningGroup = I;
unicode = 00DE;
},
{
glyphname = Q;
layers = (
{
layerId = master01;
paths = (
{
closed = 1;
nodes = (
"785 -391 OFFCURVE",
"911 -188 OFFCURVE",
"932 -108 CURVE",
"873 -108 LINE",
"827 -172 OFFCURVE",
"710 -219 OFFCURVE",
"559 -219 CURVE SMOOTH",
"457 -219 OFFCURVE",
"391 -197 OFFCURVE",
"326 -149 CURVE",
"730 14 LINE SMOOTH",
"1072 151 OFFCURVE",
"1379 514 OFFCURVE",
"1379 911 CURVE SMOOTH",
"1379 1185 OFFCURVE",
"1234 1341 OFFCURVE",
"986 1341 CURVE SMOOTH",
"557 1341 OFFCURVE",
"131 873 OFFCURVE",
"131 407 CURVE SMOOTH",
"131 156 OFFCURVE",
"254 11 OFFCURVE",
"464 -14 CURVE",
"464 -21 LINE",
"136 -154 LINE SMOOTH",
"59 -186 OFFCURVE",
"21 -222 OFFCURVE",
"21 -273 CURVE SMOOTH",
"21 -310 OFFCURVE",
"39 -346 OFFCURVE",
"86 -346 CURVE SMOOTH",
"125 -346 OFFCURVE",
"154 -318 OFFCURVE",
"154 -285 CURVE SMOOTH",
"154 -270 OFFCURVE",
"147 -254 OFFCURVE",
"147 -240 CURVE SMOOTH",
"147 -226 OFFCURVE",
"154 -217 OFFCURVE",
"186 -217 CURVE SMOOTH",
"328 -217 OFFCURVE",
"348 -391 OFFCURVE",
"559 -391 CURVE SMOOTH"
);
},
{
closed = 1;
nodes = (
"400 63 OFFCURVE",
"330 161 OFFCURVE",
"330 364 CURVE SMOOTH",
"330 803 OFFCURVE",
"658 1265 OFFCURVE",
"975 1265 CURVE SMOOTH",
"1119 1265 OFFCURVE",
"1188 1169 OFFCURVE",
"1188 966 CURVE SMOOTH",
"1188 524 OFFCURVE",
"864 63 OFFCURVE",
"547 63 CURVE SMOOTH"
);
}
);
width = 1382;
}
);
rightKerningGroup = O;
unicode = 0051;
},
{
glyphname = R;
layers = (
{
anchors = (
{
name = bottom;
position = "{466, -18}";
},
{
name = topcap;
position = "{882, 1427}";
}
);
layerId = master01;
paths = (
{
closed = 1;
nodes = (
"434 0 LINE",
"450 39 LINE",
"246 72 LINE",
"464 608 LINE",
"597 608 LINE",
"798 0 LINE",
"1143 0 LINE",
"1155 39 LINE",
"970 72 LINE",
"773 617 LINE",
"1054 658 OFFCURVE",
"1232 818 OFFCURVE",
"1232 1043 CURVE SMOOTH",
"1232 1224 OFFCURVE",
"1108 1323 OFFCURVE",
"842 1323 CURVE SMOOTH",
"430 1323 LINE",
"414 1284 LINE",
"548 1251 LINE",
"57 72 LINE",
"-95 39 LINE",
"-110 0 LINE"
);
},
{
closed = 1;
nodes = (
"737 1253 LINE",
"842 1253 LINE SMOOTH",
"983 1253 OFFCURVE",
"1059 1179 OFFCURVE",
"1059 1045 CURVE SMOOTH",
"1059 849 OFFCURVE",
"875 684 OFFCURVE",
"656 684 CURVE SMOOTH",
"497 684 LINE"
);
}
);
width = 1271;
}
);
leftKerningGroup = I;
rightKerningGroup = R;
unicode = 0052;
},
{
glyphname = S;
layers = (
{
anchors = (
{
name = bottom;
position = "{330, 0}";
},
{
name = topcap;
position = "{837, 1427}";
}
);
layerId = master01;
paths = (
{
closed = 1;
nodes = (
"645 -18 OFFCURVE",
"849 151 OFFCURVE",
"849 376 CURVE SMOOTH",
"849 491 OFFCURVE",
"806 572 OFFCURVE",
"651 753 CURVE SMOOTH",
"540 880 OFFCURVE",
"520 921 OFFCURVE",
"520 1016 CURVE SMOOTH",
"520 1181 OFFCURVE",
"608 1271 OFFCURVE",
"773 1271 CURVE SMOOTH",
"909 1271 OFFCURVE",
"983 1208 OFFCURVE",
"983 1095 CURVE SMOOTH",
"983 1054 OFFCURVE",
"973 988 OFFCURVE",
"961 945 CURVE",
"1013 945 LINE",
"1160 1323 LINE",
"1105 1323 LINE",
"1026 1234 LINE",
"959 1308 OFFCURVE",
"878 1341 OFFCURVE",
"767 1341 CURVE SMOOTH",
"516 1341 OFFCURVE",
"339 1178 OFFCURVE",
"339 949 CURVE SMOOTH",
"339 640 OFFCURVE",
"663 581 OFFCURVE",
"663 305 CURVE SMOOTH",
"663 147 OFFCURVE",
"557 52 OFFCURVE",
"382 52 CURVE SMOOTH",
"224 52 OFFCURVE",
"146 129 OFFCURVE",
"146 283 CURVE SMOOTH",
"146 332 OFFCURVE",
"153 387 OFFCURVE",
"168 448 CURVE",
"118 448 LINE",
"-63 0 LINE",
"-11 0 LINE",
"77 124 LINE",
"125 31 OFFCURVE",
"226 -18 OFFCURVE",
"371 -18 CURVE SMOOTH"
);
}
);
width = 1013;
}
);
leftKerningGroup = S;
rightKerningGroup = S;
unicode = 0053;
},
{
glyphname = Schwa;
layers = (
{
layerId = master01;
paths = (
{
closed = 1;
nodes = (
"658 -18 OFFCURVE",
"1205 552 OFFCURVE",
"1205 1007 CURVE SMOOTH",
"1205 1217 OFFCURVE",
"1088 1339 OFFCURVE",
"884 1339 CURVE SMOOTH",
"672 1339 OFFCURVE",
"461 1210 OFFCURVE",
"260 957 CURVE",
"323 920 LINE",
"484 1135 OFFCURVE",
"667 1255 OFFCURVE",
"846 1255 CURVE SMOOTH",
"973 1255 OFFCURVE",
"1035 1194 OFFCURVE",
"1035 1076 CURVE SMOOTH",
"1035 975 OFFCURVE",
"993 813 OFFCURVE",
"928 651 CURVE",
"369 565 OFFCURVE",
"-14 361 OFFCURVE",
"-14 151 CURVE SMOOTH",
"-14 47 OFFCURVE",
"77 -18 OFFCURVE",
"224 -18 CURVE SMOOTH"
);
},
{
closed = 1;
nodes = (
"235 70 OFFCURVE",
"210 93 OFFCURVE",
"210 143 CURVE SMOOTH",
"210 310 OFFCURVE",
"522 507 OFFCURVE",
"873 570 CURVE",
"794 425 LINE SMOOTH",
"689 233 OFFCURVE",
"468 70 OFFCURVE",
"297 70 CURVE SMOOTH"
);
}
);
width = 1158;
}
);
unicode = 018F;
},
{
glyphname = T;
layers = (
{
anchors = (
{
name = bottom;
position = "{411, 0}";
},
{
name = topcap;
position = "{1013, 1427}";
}
);
layerId = master01;
paths = (
{
closed = 1;
nodes = (
"698 0 LINE",
"715 39 LINE",
"540 72 LINE",
"1029 1255 LINE",
"1336 1255 LINE",
"1361 1181 OFFCURVE",
"1368 1100 OFFCURVE",
"1368 1022 CURVE SMOOTH",
"1368 997 OFFCURVE",
"1368 970 OFFCURVE",
"1366 945 CURVE",
"1407 945 LINE",
"1500 1323 LINE",
"425 1323 LINE",
"204 945 LINE",
"246 945 LINE",
"319 1043 OFFCURVE",
"423 1156 OFFCURVE",
"536 1255 CURVE",
"842 1255 LINE",
"353 72 LINE",
"168 39 LINE",
"151 0 LINE"
);
}
);
width = 1264;
}
);
leftKerningGroup = T;
rightKerningGroup = T;
unicode = 0054;
},
{
glyphname = Tbar;
layers = (
{
components = (
{
name = T;
}
);
layerId = master01;
paths = (
{
closed = 1;
nodes = (
"1201 722 LINE",
"1234 798 LINE",
"328 798 LINE",
"297 722 LINE"
);
}
);
width = 1277;
}
);
leftKerningGroup = T;
rightKerningGroup = T;
unicode = 0166;
},
{
glyphname = U;
layers = (
{
anchors = (
{
name = bottom;
position = "{531, 0}";
},
{
name = topcap;
position = "{1121, 1427}";
}
);
layerId = master01;
paths = (
{
closed = 1;
nodes = (
"742 -18 OFFCURVE",
"930 62 OFFCURVE",
"1070 396 CURVE SMOOTH",
"1434 1251 LINE",
"1597 1284 LINE",
"1612 1323 LINE",
"1232 1323 LINE",
"1214 1284 LINE",
"1357 1251 LINE",
"1009 445 LINE SMOOTH",
"884 154 OFFCURVE",
"769 63 OFFCURVE",
"584 63 CURVE SMOOTH",
"418 63 OFFCURVE",
"337 124 OFFCURVE",
"337 247 CURVE SMOOTH",
"337 308 OFFCURVE",
"355 391 OFFCURVE",
"387 462 CURVE SMOOTH",
"715 1250 LINE",
"880 1284 LINE",
"897 1323 LINE",
"407 1323 LINE",
"392 1284 LINE",
"533 1251 LINE",
"235 550 LINE SMOOTH",
"186 434 OFFCURVE",
"161 335 OFFCURVE",
"161 258 CURVE SMOOTH",
"161 79 OFFCURVE",
"290 -18 OFFCURVE",
"533 -18 CURVE SMOOTH"
);
}
);
width = 1337;
}
);
leftKerningGroup = U;
rightKerningGroup = U;
unicode = 0055;
},
{
glyphname = V;
layers = (
{
layerId = master01;
paths = (
{
closed = 1;
nodes = (
"411 -18 LINE",
"1280 1085 LINE SMOOTH",
"1384 1217 OFFCURVE",
"1442 1251 OFFCURVE",
"1605 1275 CURVE",
"1629 1323 LINE",
"1133 1323 LINE",
"1110 1275 LINE",
"1212 1262 OFFCURVE",
"1255 1241 OFFCURVE",
"1257 1205 CURVE SMOOTH",
"1257 1174 OFFCURVE",
"1248 1151 OFFCURVE",
"1198 1088 CURVE SMOOTH",
"527 229 LINE",
"521 229 LINE",
"646 1143 LINE SMOOTH",
"662 1250 OFFCURVE",
"717 1273 OFFCURVE",
"848 1275 CURVE",
"871 1323 LINE",
"342 1323 LINE",
"318 1275 LINE",
"425 1269 OFFCURVE",
"462 1255 OFFCURVE",
"464 1194 CURVE SMOOTH",
"464 1186 OFFCURVE",
"464 1176 OFFCURVE",
"462 1165 CURVE SMOOTH",
"310 -18 LINE"
);
}
);
width = 1262;
}
);
unicode = 0056;
},
{
glyphname = W;
layers = (
{
anchors = (
{
name = topcap;
position = "{1277, 1427}";
}
);
layerId = master01;
paths = (
{
closed = 1;
nodes = (
"402 -18 LINE",
"986 769 LINE",
"885 -18 LINE",
"986 -18 LINE",
"1805 1085 LINE SMOOTH",
"1901 1214 OFFCURVE",
"1949 1251 OFFCURVE",
"2095 1275 CURVE",
"2119 1323 LINE",
"1657 1323 LINE",
"1635 1275 LINE",
"1736 1262 OFFCURVE",
"1779 1241 OFFCURVE",
"1780 1205 CURVE SMOOTH",
"1780 1174 OFFCURVE",
"1769 1151 OFFCURVE",
"1723 1088 CURVE SMOOTH",
"1097 230 LINE",
"1222 1143 LINE SMOOTH",
"1237 1250 OFFCURVE",
"1294 1273 OFFCURVE",
"1423 1275 CURVE",
"1447 1323 LINE",
"970 1323 LINE",
"945 1275 LINE",
"1016 1269 OFFCURVE",
"1038 1255 OFFCURVE",
"1040 1194 CURVE SMOOTH",
"1040 1186 OFFCURVE",
"1040 1176 OFFCURVE",
"1038 1165 CURVE SMOOTH",
"1004 904 LINE",
"512 230 LINE",
"638 1143 LINE SMOOTH",
"651 1250 OFFCURVE",
"696 1273 OFFCURVE",
"805 1275 CURVE",
"828 1323 LINE",
"333 1323 LINE",
"310 1275 LINE",
"416 1269 OFFCURVE",
"454 1255 OFFCURVE",
"455 1194 CURVE SMOOTH",
"455 1186 OFFCURVE",
"455 1176 OFFCURVE",
"454 1165 CURVE SMOOTH",
"301 -18 LINE"
);
}
);
width = 1769;
}
);
leftKerningGroup = W;
rightKerningGroup = W;
unicode = 0057;
},
{
glyphname = X;
layers = (
{
layerId = master01;
paths = (
{
closed = 1;
nodes = (
"346 0 LINE",
"364 39 LINE",
"273 54 OFFCURVE",
"230 81 OFFCURVE",
"230 120 CURVE SMOOTH",
"230 154 OFFCURVE",
"262 197 OFFCURVE",
"316 251 CURVE SMOOTH",
"643 567 LINE",
"727 197 LINE SMOOTH",
"732 174 OFFCURVE",
"735 154 OFFCURVE",
"735 138 CURVE SMOOTH",
"735 77 OFFCURVE",
"694 55 OFFCURVE",
"583 39 CURVE",
"567 0 LINE",
"1081 0 LINE",
"1099 39 LINE",
"988 59 OFFCURVE",
"952 88 OFFCURVE",
"925 199 CURVE SMOOTH",
"803 699 LINE",
"1248 1128 LINE SMOOTH",
"1357 1234 OFFCURVE",
"1429 1267 OFFCURVE",
"1558 1284 CURVE",
"1574 1323 LINE",
"1165 1323 LINE",
"1149 1284 LINE",
"1208 1284 OFFCURVE",
"1241 1271 OFFCURVE",
"1241 1244 CURVE SMOOTH",
"1241 1219 OFFCURVE",
"1214 1178 OFFCURVE",
"1151 1119 CURVE SMOOTH",
"785 770 LINE",
"701 1126 LINE SMOOTH",
"694 1151 OFFCURVE",
"691 1172 OFFCURVE",
"691 1191 CURVE SMOOTH",
"691 1250 OFFCURVE",
"726 1275 OFFCURVE",
"821 1284 CURVE",
"837 1323 LINE",
"332 1323 LINE",
"313 1282 LINE",
"448 1267 OFFCURVE",
"479 1234 OFFCURVE",
"502 1140 CURVE SMOOTH",
"622 641 LINE",
"253 287 LINE SMOOTH",
"29 74 OFFCURVE",
"-43 45 OFFCURVE",
"-168 39 CURVE",
"-186 0 LINE"
);
}
);
width = 1278;
}
);
unicode = 0058;
},
{
glyphname = Y;
layers = (
{
anchors = (
{
name = topcap;
position = "{1024, 1427}";
}
);
layerId = master01;
paths = (
{
closed = 1;
nodes = (
"674 0 LINE",
"691 39 LINE",
"522 72 LINE",
"755 624 LINE",
"1217 1097 LINE SMOOTH",
"1364 1246 OFFCURVE",
"1418 1275 OFFCURVE",
"1561 1284 CURVE",
"1583 1323 LINE",
"1108 1323 LINE",
"1093 1284 LINE",
"1191 1284 OFFCURVE",
"1235 1265 OFFCURVE",
"1235 1230 CURVE SMOOTH",
"1235 1208 OFFCURVE",
"1217 1179 OFFCURVE",
"1179 1142 CURVE SMOOTH",
"717 677 LINE",
"665 1100 LINE SMOOTH",
"662 1124 OFFCURVE",
"660 1146 OFFCURVE",
"660 1164 CURVE SMOOTH",
"660 1257 OFFCURVE",
"698 1280 OFFCURVE",
"794 1284 CURVE",
"812 1323 LINE",
"326 1323 LINE",
"310 1284 LINE",
"430 1284 OFFCURVE",
"447 1257 OFFCURVE",
"464 1142 CURVE SMOOTH",
"548 584 LINE",
"335 72 LINE",
"168 39 LINE",
"151 0 LINE"
);
}
);
width = 1230;
}
);
leftKerningGroup = Y;
rightKerningGroup = Y;
unicode = 0059;
},
{
glyphname = Z;
layers = (
{
anchors = (
{
name = bottom;
position = "{416, 0}";
},
{
name = topcap;
position = "{940, 1427}";
}
);
layerId = master01;
paths = (
{
closed = 1;
nodes = (
"898 0 LINE",
"1110 419 LINE",
"1052 419 LINE",
"971 305 OFFCURVE",
"866 186 OFFCURVE",
"746 72 CURVE",
"210 72 LINE",
"1278 1234 LINE",
"1316 1323 LINE",
"464 1323 LINE",
"258 950 LINE",
"305 950 LINE",
"382 1050 OFFCURVE",
"488 1162 OFFCURVE",
"600 1255 CURVE",
"1063 1255 LINE",
"-12 88 LINE",
"-50 0 LINE"
);
}
);
width = 1198;
}
);
leftKerningGroup = Z;
rightKerningGroup = Z;
unicode = 005A;
},
{
glyphname = a;
layers = (
{
anchors = (
{
name = bottom;
position = "{597, 0}";
},
{
name = top;
position = "{741, 1119}";
}
);
layerId = master01;
paths = (
{
closed = 1;
nodes = (
"305 -18 OFFCURVE",
"409 65 OFFCURVE",
"543 262 CURVE",
"554 256 LINE",
"507 183 OFFCURVE",
"495 133 OFFCURVE",
"495 82 CURVE SMOOTH",
"495 16 OFFCURVE",
"533 -18 OFFCURVE",
"597 -18 CURVE SMOOTH",
"692 -18 OFFCURVE",
"803 62 OFFCURVE",
"923 213 CURVE",
"889 237 LINE",
"792 131 OFFCURVE",
"732 84 OFFCURVE",
"698 84 CURVE SMOOTH",
"681 84 OFFCURVE",
"670 97 OFFCURVE",
"670 117 CURVE SMOOTH",
"670 131 OFFCURVE",
"674 145 OFFCURVE",
"688 188 CURVE",
"983 911 LINE",
"808 911 LINE",
"780 848 LINE",
"739 906 OFFCURVE",
"701 928 OFFCURVE",
"638 928 CURVE SMOOTH",
"354 928 OFFCURVE",
"0 521 OFFCURVE",
"0 210 CURVE SMOOTH",
"0 67 OFFCURVE",
"72 -18 OFFCURVE",
"189 -18 CURVE SMOOTH"
);
},
{
closed = 1;
nodes = (
"176 43 OFFCURVE",
"158 74 OFFCURVE",
"158 143 CURVE SMOOTH",
"158 392 OFFCURVE",
"484 873 OFFCURVE",
"656 873 CURVE SMOOTH",
"701 873 OFFCURVE",
"735 841 OFFCURVE",
"735 787 CURVE SMOOTH",
"735 755 OFFCURVE",
"732 719 OFFCURVE",
"698 640 CURVE SMOOTH",
"559 314 OFFCURVE",
"339 43 OFFCURVE",
"222 43 CURVE SMOOTH"
);
}
);
width = 1038;
}
);
leftKerningGroup = a;
rightKerningGroup = a;
unicode = 0061;
},
{
glyphname = ae;
layers = (
{
layerId = master01;
paths = (
{
closed = 1;
nodes = (
"306 -18 OFFCURVE",
"411 65 OFFCURVE",
"545 262 CURVE",
"555 256 LINE",
"554 246 OFFCURVE",
"554 235 OFFCURVE",
"554 215 CURVE SMOOTH",
"554 65 OFFCURVE",
"633 -18 OFFCURVE",
"771 -18 CURVE SMOOTH",
"918 -18 OFFCURVE",
"1065 74 OFFCURVE",
"1207 249 CURVE",
"1169 273 LINE",
"1067 138 OFFCURVE",
"921 43 OFFCURVE",
"814 43 CURVE SMOOTH",
"748 43 OFFCURVE",
"715 79 OFFCURVE",
"715 158 CURVE SMOOTH",
"715 237 OFFCURVE",
"748 340 OFFCURVE",
"813 462 CURVE",
"1156 522 OFFCURVE",
"1397 665 OFFCURVE",
"1397 810 CURVE SMOOTH",
"1397 882 OFFCURVE",
"1334 928 OFFCURVE",
"1237 928 CURVE SMOOTH",
"1145 928 OFFCURVE",
"1040 887 OFFCURVE",
"943 812 CURVE",
"984 911 LINE",
"810 911 LINE {name = hr02;}",
"782 848 LINE",
"739 907 OFFCURVE",
"701 928 OFFCURVE",
"638 928 CURVE SMOOTH",
"359 928 OFFCURVE",
"2 524 OFFCURVE",
"2 208 CURVE SMOOTH {name = hr01;}",
"2 68 OFFCURVE",
"74 -18 OFFCURVE",
"190 -18 CURVE SMOOTH"
);
},
{
closed = 1;
nodes = (
"181 43 OFFCURVE",
"160 74 OFFCURVE",
"160 140 CURVE SMOOTH",
"160 396 OFFCURVE",
"484 873 OFFCURVE",
"660 873 CURVE SMOOTH",
"708 873 OFFCURVE",
"737 837 OFFCURVE",
"737 777 CURVE SMOOTH",
"737 742 OFFCURVE",
"726 701 OFFCURVE",
"699 640 CURVE SMOOTH",
"569 326 OFFCURVE",
"340 43 OFFCURVE",
"220 43 CURVE SMOOTH"
);
},
{
closed = 1;
nodes = (
"906 620 LINE SMOOTH",
"984 769 OFFCURVE",
"1110 875 OFFCURVE",
"1205 875 CURVE SMOOTH",
"1242 875 OFFCURVE",
"1260 857 OFFCURVE",
"1260 823 CURVE SMOOTH",
"1260 705 OFFCURVE",
"1065 561 OFFCURVE",
"851 520 CURVE"
);
}
);
width = 1382;
}
);
leftKerningGroup = a;
rightKerningGroup = e;
unicode = 00E6;
},
{
glyphname = b;
layers = (
{
layerId = master01;
paths = (
{
closed = 1;
nodes = (
"608 -18 OFFCURVE",
"914 332 OFFCURVE",
"914 663 CURVE SMOOTH",
"914 834 OFFCURVE",
"830 928 OFFCURVE",
"701 928 CURVE SMOOTH",
"613 928 OFFCURVE",
"520 880 OFFCURVE",
"441 794 CURVE",
"434 794 LINE",
"676 1409 LINE",
"346 1409 LINE {name = hr00;}",
"353 1384 LINE",
"486 1363 LINE",
"104 428 LINE SMOOTH",
"74 353 OFFCURVE",
"59 283 OFFCURVE",
"59 226 CURVE SMOOTH",
"59 74 OFFCURVE",
"145 -18 OFFCURVE",
"305 -18 CURVE SMOOTH"
);
},
{
closed = 1;
nodes = (
"237 43 OFFCURVE",
"199 81 OFFCURVE",
"199 141 CURVE SMOOTH",
"199 246 OFFCURVE",
"276 435 OFFCURVE",
"325 533 CURVE SMOOTH",
"414 720 OFFCURVE",
"563 868 OFFCURVE",
"658 868 CURVE SMOOTH",
"713 868 OFFCURVE",
"748 806 OFFCURVE",
"748 715 CURVE SMOOTH",
"748 462 OFFCURVE",
"464 43 OFFCURVE",
"290 43 CURVE SMOOTH"
);
}
);
width = 988;
}
);
rightKerningGroup = b;
unicode = 0062;
userData = {
com.typemytype.robofont.guides = (
{
angle = 0;
isGlobal = 0;
magnetic = 5;
x = 0;
y = 508;
}
);
};
},
{
glyphname = c;
layers = (
{
anchors = (
{
name = bottom;
position = "{247, 0}";
},
{
name = top;
position = "{727, 1119}";
}
);
layerId = master01;
paths = (
{
closed = 1;
nodes = (
"391 -18 OFFCURVE",
"548 75 OFFCURVE",
"698 251 CURVE",
"660 273 LINE",
"511 120 OFFCURVE",
"385 43 OFFCURVE",
"289 43 CURVE SMOOTH",
"215 43 OFFCURVE",
"188 84 OFFCURVE",
"188 170 CURVE SMOOTH",
"188 435 OFFCURVE",
"459 875 OFFCURVE",
"665 875 CURVE SMOOTH",
"708 875 OFFCURVE",
"729 849 OFFCURVE",
"739 785 CURVE SMOOTH",
"748 729 OFFCURVE",
"773 703 OFFCURVE",
"818 703 CURVE SMOOTH {name = hr01;}",
"863 703 OFFCURVE",
"894 730 OFFCURVE",
"894 771 CURVE SMOOTH",
"894 857 OFFCURVE",
"805 928 OFFCURVE",
"686 928 CURVE SMOOTH",
"572 928 OFFCURVE",
"428 871 OFFCURVE",
"305 775 CURVE SMOOTH",
"124 634 OFFCURVE",
"19 434 OFFCURVE",
"18 246 CURVE SMOOTH",
"18 74 OFFCURVE",
"93 -18 OFFCURVE",
"240 -18 CURVE SMOOTH"
);
}
);
width = 855;
}
);
leftKerningGroup = c;
rightKerningGroup = c;
unicode = 0063;
},
{
glyphname = d;
layers = (
{
anchors = (
{
name = bottom;
position = "{206, 0}";
}
);
layerId = master01;
paths = (
{
closed = 1;
nodes = (
"316 -18 OFFCURVE",
"411 59 OFFCURVE",
"548 262 CURVE",
"552 256 LINE",
"520 192 OFFCURVE",
"502 147 OFFCURVE",
"502 106 CURVE SMOOTH",
"502 24 OFFCURVE",
"531 -18 OFFCURVE",
"606 -18 CURVE SMOOTH",
"703 -18 OFFCURVE",
"810 62 OFFCURVE",
"921 213 CURVE",
"887 237 LINE",
"792 131 OFFCURVE",
"741 84 OFFCURVE",
"706 84 CURVE SMOOTH",
"689 84 OFFCURVE",
"676 93 OFFCURVE",
"676 117 CURVE SMOOTH",
"676 131 OFFCURVE",
"679 146 OFFCURVE",
"694 188 CURVE SMOOTH",
"1155 1409 LINE",
"827 1409 LINE",
"835 1384 LINE",
"968 1363 LINE",
"769 848 LINE {name = hr01;}",
"726 906 OFFCURVE",
"688 928 OFFCURVE",
"622 928 CURVE SMOOTH",
"335 928 OFFCURVE",
"5 526 OFFCURVE",
"5 206 CURVE SMOOTH",
"5 57 OFFCURVE",
"68 -18 OFFCURVE",
"192 -18 CURVE SMOOTH"
);
},
{
closed = 1;
nodes = (
"186 43 OFFCURVE",
"160 72 OFFCURVE",
"160 140 CURVE SMOOTH",
"160 389 OFFCURVE",
"478 873 OFFCURVE",
"651 873 CURVE SMOOTH",
"696 873 OFFCURVE",
"724 841 OFFCURVE",
"732 787 CURVE",
"730 753 OFFCURVE",
"722 719 OFFCURVE",
"689 640 CURVE SMOOTH",
"557 318 OFFCURVE",
"340 43 OFFCURVE",
"224 43 CURVE SMOOTH"
);
}
);
width = 1036;
}
);
leftKerningGroup = d;
rightKerningGroup = d;
unicode = 0064;
},
{
glyphname = eth;
layers = (
{
layerId = master01;
paths = (
{
closed = 1;
nodes = (
"590 -18 OFFCURVE",
"885 342 OFFCURVE",
"885 715 CURVE SMOOTH",
"885 880 OFFCURVE",
"828 1093 OFFCURVE",
"762 1183 CURVE",
"983 1323 LINE",
"945 1379 LINE",
"722 1237 LINE",
"660 1303 OFFCURVE",
"583 1353 OFFCURVE",
"461 1407 CURVE",
"437 1363 LINE",
"547 1308 OFFCURVE",
"605 1262 OFFCURVE",
"651 1191 CURVE",
"419 1042 LINE",
"455 984 LINE",
"679 1129 LINE",
"732 1026 OFFCURVE",
"753 957 OFFCURVE",
"758 863 CURVE",
"751 863 LINE",
"729 907 OFFCURVE",
"688 928 OFFCURVE",
"622 928 CURVE SMOOTH {name = hr00;}",
"344 928 OFFCURVE",
"22 570 OFFCURVE",
"22 260 CURVE SMOOTH",
"22 86 OFFCURVE",
"120 -18 OFFCURVE",
"282 -18 CURVE SMOOTH"
);
},
{
closed = 1;
nodes = (
"204 43 OFFCURVE",
"179 82 OFFCURVE",
"179 167 CURVE SMOOTH",
"179 438 OFFCURVE",
"459 853 OFFCURVE",
"643 853 CURVE SMOOTH",
"698 853 OFFCURVE",
"724 814 OFFCURVE",
"724 737 CURVE SMOOTH",
"724 481 OFFCURVE",
"428 43 OFFCURVE",
"256 43 CURVE SMOOTH"
);
}
);
width = 954;
}
);
unicode = 00F0;
},
{
glyphname = dcroat;
layers = (
{
components = (
{
name = d;
}
);
layerId = master01;
paths = (
{
closed = 1;
nodes = (
"1183 1138 LINE",
"1214 1210 LINE",
"720 1210 LINE",
"691 1138 LINE"
);
}
);
width = 1036;
}
);
leftKerningGroup = d;
rightKerningGroup = d;
unicode = 0111;
},
{
glyphname = e;
layers = (
{
anchors = (
{
name = bottom;
position = "{240, 0}";
},
{
name = top;
position = "{727, 1119}";
}
);
layerId = master01;
paths = (
{
closed = 1;
nodes = (
"369 -18 OFFCURVE",
"518 72 OFFCURVE",
"658 249 CURVE",
"620 273 LINE",
"520 138 OFFCURVE",
"373 43 OFFCURVE",
"267 43 CURVE SMOOTH",
"199 43 OFFCURVE",
"167 79 OFFCURVE",
"167 158 CURVE SMOOTH",
"167 237 OFFCURVE",
"199 340 OFFCURVE",
"265 462 CURVE",
"608 522 OFFCURVE",
"849 665 OFFCURVE",
"849 810 CURVE SMOOTH",
"849 884 OFFCURVE",
"785 928 OFFCURVE",
"684 928 CURVE SMOOTH {name = hr00;}",
"380 928 OFFCURVE",
"0 531 OFFCURVE",
"0 215 CURVE SMOOTH",
"0 67 OFFCURVE",
"82 -18 OFFCURVE",
"224 -18 CURVE SMOOTH"
);
},
{
closed = 1;
nodes = (
"357 620 LINE SMOOTH",
"435 767 OFFCURVE",
"563 875 OFFCURVE",
"656 875 CURVE SMOOTH",
"694 875 OFFCURVE",
"712 857 OFFCURVE",
"712 823 CURVE SMOOTH",
"712 705 OFFCURVE",
"516 561 OFFCURVE",
"303 520 CURVE"
);
}
);
width = 834;
}
);
leftKerningGroup = e;
rightKerningGroup = e;
unicode = 0065;
},
{
glyphname = schwa;
layers = (
{
anchors = (
{
name = bottom;
position = "{177, 0}";
},
{
name = top;
position = "{663, 1119}";
}
);
layerId = master01;
paths = (
{
closed = 1;
nodes = (
"405 -18 OFFCURVE",
"785 380 OFFCURVE",
"785 696 CURVE SMOOTH",
"785 844 OFFCURVE",
"703 928 OFFCURVE",
"563 928 CURVE SMOOTH",
"416 928 OFFCURVE",
"269 839 OFFCURVE",
"127 662 CURVE",
"165 638 LINE",
"267 773 OFFCURVE",
"412 868 OFFCURVE",
"520 868 CURVE SMOOTH",
"586 868 OFFCURVE",
"619 832 OFFCURVE",
"619 753 CURVE SMOOTH",
"619 674 OFFCURVE",
"586 570 OFFCURVE",
"521 448 CURVE",
"177 389 OFFCURVE",
"-63 246 OFFCURVE",
"-63 102 CURVE SMOOTH",
"-63 27 OFFCURVE",
"0 -18 OFFCURVE",
"102 -18 CURVE {name = hr00;}"
);
},
{
closed = 1;
nodes = (
"91 36 OFFCURVE",
"74 54 OFFCURVE",
"74 88 CURVE SMOOTH",
"74 206 OFFCURVE",
"270 351 OFFCURVE",
"483 392 CURVE",
"428 290 LINE",
"351 145 OFFCURVE",
"224 36 OFFCURVE",
"129 36 CURVE SMOOTH"
);
}
);
width = 835;
}
);
unicode = 0259;
},
{
glyphname = f;
layers = (
{
associatedMasterId = master01;
layerId = "802DC178-2968-4689-BA99-BD2290573E1B";
name = "Jan 8 19, 16:47";
paths = (
{
closed = 1;
nodes = (
"515 1014 LINE SMOOTH",
"598 1277 OFFCURVE",
"717 1380 OFFCURVE",
"830 1380 CURVE SMOOTH",
"882 1380 OFFCURVE",
"918 1357 OFFCURVE",
"918 1320 CURVE SMOOTH",
"918 1294 OFFCURVE",
"906 1273 OFFCURVE",
"906 1241 CURVE SMOOTH",
"906 1196 OFFCURVE",
"942 1165 OFFCURVE",
"986 1165 CURVE SMOOTH",
"1038 1165 OFFCURVE",
"1069 1198 OFFCURVE",
"1069 1248 CURVE SMOOTH",
"1069 1350 OFFCURVE",
"963 1427 OFFCURVE",
"839 1427 CURVE SMOOTH",
"647 1427 OFFCURVE",
"437 1327 OFFCURVE",
"341 1031 CURVE SMOOTH",
"87 246 LINE SMOOTH",
"-69 -235 OFFCURVE",
"-238 -380 OFFCURVE",
"-329 -380 CURVE SMOOTH",
"-420 -380 OFFCURVE",
"-371 -216 OFFCURVE",
"-487 -216 CURVE SMOOTH",
"-537 -216 OFFCURVE",
"-568 -253 OFFCURVE",
"-568 -304 CURVE SMOOTH",
"-568 -386 OFFCURVE",
"-502 -440 OFFCURVE",
"-380 -440 CURVE SMOOTH",
"-140 -440 OFFCURVE",
"112 -262 OFFCURVE",
"305 349 CURVE SMOOTH"
);
},
{
closed = 1;
nodes = (
"164 911 LINE",
"143 855 LINE",
"650 855 LINE",
"672 911 LINE"
);
}
);
width = 557;
},
{
associatedMasterId = master01;
layerId = "BAAEB8E4-1D37-4217-9235-A593962F46F4";
name = "Jan 8 19, 16:50";
paths = (
{
closed = 1;
nodes = (
"-160 -440 OFFCURVE",
"50 -199 OFFCURVE",
"285 349 CURVE SMOOTH",
"504 855 LINE",
"670 855 LINE",
"692 911 LINE {name = hr01;}",
"524 911 LINE",
"565 1014 LINE SMOOTH",
"669 1271 OFFCURVE",
"767 1380 OFFCURVE",
"880 1380 CURVE SMOOTH",
"932 1380 OFFCURVE",
"968 1357 OFFCURVE",
"968 1320 CURVE SMOOTH",
"968 1294 OFFCURVE",
"956 1273 OFFCURVE",
"956 1241 CURVE SMOOTH",
"956 1196 OFFCURVE",
"992 1165 OFFCURVE",
"1036 1165 CURVE SMOOTH",
"1088 1165 OFFCURVE",
"1119 1198 OFFCURVE",
"1119 1248 CURVE SMOOTH",
"1119 1350 OFFCURVE",
"1013 1427 OFFCURVE",
"889 1427 CURVE SMOOTH",
"706 1427 OFFCURVE",
"518 1318 OFFCURVE",
"391 1031 CURVE SMOOTH",
"337 911 LINE {name = hr02;}",
"184 911 LINE",
"163 855 LINE",
"314 855 LINE",
"67 246 LINE SMOOTH",
"-122 -222 OFFCURVE",
"-258 -380 OFFCURVE",
"-349 -380 CURVE SMOOTH",
"-440 -380 OFFCURVE",
"-391 -227 OFFCURVE",
"-507 -227 CURVE SMOOTH",
"-557 -227 OFFCURVE",
"-588 -253 OFFCURVE",
"-588 -297 CURVE SMOOTH",
"-588 -382 OFFCURVE",
"-516 -440 OFFCURVE",
"-400 -440 CURVE SMOOTH"
);
}
);
visible = 1;
width = 557;
},
{
layerId = master01;
paths = (
{
closed = 1;
nodes = (
"502 958 LINE SMOOTH",
"597 1245 OFFCURVE",
"711 1375 OFFCURVE",
"868 1375 CURVE SMOOTH",
"932 1375 OFFCURVE",
"968 1355 OFFCURVE",
"968 1320 CURVE SMOOTH",
"968 1294 OFFCURVE",
"956 1273 OFFCURVE",
"956 1241 CURVE SMOOTH",
"956 1196 OFFCURVE",
"992 1165 OFFCURVE",
"1036 1165 CURVE SMOOTH",
"1088 1165 OFFCURVE",
"1119 1198 OFFCURVE",
"1119 1248 CURVE SMOOTH",
"1119 1352 OFFCURVE",
"1012 1427 OFFCURVE",
"864 1427 CURVE SMOOTH",
"610 1427 OFFCURVE",
"426 1268 OFFCURVE",
"322 958 CURVE SMOOTH",
"83 246 LINE SMOOTH",
"-42 -125 OFFCURVE",
"-220 -382 OFFCURVE",
"-353 -382 CURVE SMOOTH",
"-444 -382 OFFCURVE",
"-391 -216 OFFCURVE",
"-507 -216 CURVE SMOOTH",
"-557 -216 OFFCURVE",
"-588 -253 OFFCURVE",
"-588 -304 CURVE SMOOTH",
"-588 -384 OFFCURVE",
"-521 -440 OFFCURVE",
"-400 -440 CURVE SMOOTH",
"-106 -440 OFFCURVE",
"127 -178 OFFCURVE",
"301 349 CURVE SMOOTH"
);
},
{
closed = 1;
nodes = (
"164 911 LINE",
"143 855 LINE",
"650 855 LINE",
"672 911 LINE"
);
}
);
width = 557;
},
{
associatedMasterId = master01;
layerId = "CCA3CB14-3C2A-4D99-A472-E35F3E3F9C8D";
name = "Jan 9 19, 10:01";
paths = (
{
closed = 1;
nodes = (
"525 1014 LINE SMOOTH",
"616 1276 OFFCURVE",
"733 1380 OFFCURVE",
"850 1380 CURVE SMOOTH",
"929 1380 OFFCURVE",
"968 1357 OFFCURVE",
"968 1320 CURVE SMOOTH",
"968 1294 OFFCURVE",
"956 1273 OFFCURVE",
"956 1241 CURVE SMOOTH",
"956 1196 OFFCURVE",
"992 1165 OFFCURVE",
"1036 1165 CURVE SMOOTH",
"1088 1165 OFFCURVE",
"1119 1198 OFFCURVE",
"1119 1248 CURVE SMOOTH",
"1119 1350 OFFCURVE",
"1009 1427 OFFCURVE",
"859 1427 CURVE SMOOTH",
"663 1427 OFFCURVE",
"454 1326 OFFCURVE",
"351 1031 CURVE SMOOTH",
"87 246 LINE SMOOTH",
"-80 -231 OFFCURVE",
"-238 -380 OFFCURVE",
"-329 -380 CURVE SMOOTH",
"-420 -380 OFFCURVE",
"-371 -216 OFFCURVE",
"-487 -216 CURVE SMOOTH",
"-537 -216 OFFCURVE",
"-568 -253 OFFCURVE",
"-568 -304 CURVE SMOOTH",
"-568 -386 OFFCURVE",
"-502 -440 OFFCURVE",
"-380 -440 CURVE SMOOTH",
"-140 -440 OFFCURVE",
"96 -256 OFFCURVE",
"305 349 CURVE SMOOTH"
);
},
{
closed = 1;
nodes = (
"164 911 LINE",
"143 855 LINE",
"650 855 LINE",
"672 911 LINE"
);
}
);
width = 557;
}
);
leftKerningGroup = f;
rightKerningGroup = f;
unicode = 0066;
},
{
glyphname = g;
layers = (
{
anchors = (
{
name = top;
position = "{677, 1119}";
}
);
layerId = master01;
paths = (
{
closed = 1;
nodes = (
"491 -440 OFFCURVE",
"684 -321 OFFCURVE",
"684 -158 CURVE SMOOTH",
"684 -59 OFFCURVE",
"613 27 OFFCURVE",
"504 65 CURVE SMOOTH",
"235 156 LINE SMOOTH",
"177 176 OFFCURVE",
"149 204 OFFCURVE",
"149 244 CURVE SMOOTH {name = hr01;}",
"149 294 OFFCURVE",
"199 321 OFFCURVE",
"306 321 CURVE SMOOTH",
"349 321 OFFCURVE",
"404 316 OFFCURVE",
"440 316 CURVE SMOOTH",
"638 316 OFFCURVE",
"799 464 OFFCURVE",
"799 646 CURVE SMOOTH",
"799 692 OFFCURVE",
"792 727 OFFCURVE",
"767 780 CURVE",
"778 805 OFFCURVE",
"805 821 OFFCURVE",
"828 821 CURVE SMOOTH",
"871 821 OFFCURVE",
"882 773 OFFCURVE",
"932 773 CURVE SMOOTH",
"971 773 OFFCURVE",
"1004 803 OFFCURVE",
"1004 842 CURVE SMOOTH",
"1004 889 OFFCURVE",
"966 928 OFFCURVE",
"907 928 CURVE SMOOTH",
"853 928 OFFCURVE",
"794 894 OFFCURVE",
"734 823 CURVE",
"677 894 OFFCURVE",
"604 928 OFFCURVE",
"511 928 CURVE SMOOTH",
"314 928 OFFCURVE",
"146 777 OFFCURVE",
"146 605 CURVE SMOOTH {name = hr02;}",
"146 514 OFFCURVE",
"190 437 OFFCURVE",
"273 378 CURVE",
"271 371 LINE",
"111 371 OFFCURVE",
"16 306 OFFCURVE",
"16 199 CURVE SMOOTH",
"16 145 OFFCURVE",
"43 91 OFFCURVE",
"91 55 CURVE",
"-74 55 OFFCURVE",
"-197 -48 OFFCURVE",
"-197 -181 CURVE SMOOTH",
"-197 -337 OFFCURVE",
"-27 -440 OFFCURVE",
"222 -440 CURVE SMOOTH"
);
},
{
closed = 1;
nodes = (
"68 -389 OFFCURVE",
"-47 -312 OFFCURVE",
"-47 -184 CURVE SMOOTH",
"-47 -77 OFFCURVE",
"34 11 OFFCURVE",
"145 11 CURVE SMOOTH {name = hr04;}",
"161 11 OFFCURVE",
"174 9 OFFCURVE",
"199 0 CURVE SMOOTH",
"419 -74 LINE SMOOTH",
"493 -100 OFFCURVE",
"547 -158 OFFCURVE",
"547 -215 CURVE SMOOTH",
"547 -314 OFFCURVE",
"423 -389 OFFCURVE",
"246 -389 CURVE SMOOTH"
);
},
{
closed = 1;
nodes = (
"333 375 OFFCURVE",
"296 426 OFFCURVE",
"296 516 CURVE SMOOTH",
"296 676 OFFCURVE",
"440 864 OFFCURVE",
"554 864 CURVE SMOOTH",
"620 864 OFFCURVE",
"646 828 OFFCURVE",
"646 749 CURVE SMOOTH",
"646 561 OFFCURVE",
"524 375 OFFCURVE",
"398 375 CURVE SMOOTH"
);
}
);
width = 906;
}
);
leftKerningGroup = g;
rightKerningGroup = g;
unicode = 0067;
},
{
glyphname = h;
layers = (
{
anchors = (
{
name = bottom;
position = "{287, 0}";
},
{
name = top;
position = "{844, 1119}";
}
);
layerId = master01;
paths = (
{
closed = 1;
nodes = (
"665 -18 OFFCURVE",
"782 62 OFFCURVE",
"898 213 CURVE",
"863 239 LINE",
"780 146 OFFCURVE",
"705 84 OFFCURVE",
"667 84 CURVE SMOOTH",
"651 84 OFFCURVE",
"641 93 OFFCURVE",
"641 110 CURVE SMOOTH",
"641 131 OFFCURVE",
"653 161 OFFCURVE",
"676 208 CURVE SMOOTH",
"877 619 LINE SMOOTH",
"911 689 OFFCURVE",
"923 744 OFFCURVE",
"923 791 CURVE SMOOTH",
"923 878 OFFCURVE",
"859 927 OFFCURVE",
"765 927 CURVE SMOOTH",
"636 927 OFFCURVE",
"524 848 OFFCURVE",
"380 653 CURVE",
"371 656 LINE",
"698 1409 LINE",
"369 1409 LINE",
"373 1384 LINE {name = hr02;}",
"504 1363 LINE",
"-61 0 LINE",
"100 0 LINE",
"256 333 LINE SMOOTH",
"398 638 OFFCURVE",
"604 868 OFFCURVE",
"720 868 CURVE SMOOTH",
"753 868 OFFCURVE",
"770 851 OFFCURVE",
"770 820 CURVE SMOOTH",
"770 796 OFFCURVE",
"762 767 OFFCURVE",
"746 734 CURVE SMOOTH",
"516 271 LINE SMOOTH",
"477 192 OFFCURVE",
"455 129 OFFCURVE",
"455 82 CURVE SMOOTH",
"455 16 OFFCURVE",
"483 -18 OFFCURVE",
"557 -18 CURVE SMOOTH {name = hr01;}"
);
}
);
width = 1022;
}
);
leftKerningGroup = h;
rightKerningGroup = n;
unicode = 0068;
},
{
glyphname = hbar;
layers = (
{
components = (
{
name = h;
}
);
layerId = master01;
paths = (
{
closed = 1;
nodes = (
"770 1138 LINE",
"801 1210 LINE",
"308 1210 LINE",
"278 1138 LINE"
);
}
);
width = 1022;
}
);
leftKerningGroup = h;
rightKerningGroup = n;
unicode = 0127;
},
{
glyphname = i;
layers = (
{
anchors = (
{
name = bottom;
position = "{154, 0}";
}
);
layerId = master01;
paths = (
{
closed = 1;
nodes = (
"237 -18 OFFCURVE",
"366 65 OFFCURVE",
"473 201 CURVE",
"438 222 LINE",
"326 111 OFFCURVE",
"290 84 OFFCURVE",
"258 84 CURVE SMOOTH",
"237 84 OFFCURVE",
"224 98 OFFCURVE",
"224 117 CURVE SMOOTH",
"224 124 OFFCURVE",
"225 131 OFFCURVE",
"229 140 CURVE SMOOTH",
"475 730 LINE SMOOTH",
"492 771 OFFCURVE",
"502 812 OFFCURVE",
"502 844 CURVE SMOOTH",
"502 898 OFFCURVE",
"455 928 OFFCURVE",
"391 928 CURVE SMOOTH",
"299 928 OFFCURVE",
"188 870 OFFCURVE",
"110 775 CURVE",
"149 744 LINE",
"201 810 OFFCURVE",
"260 851 OFFCURVE",
"301 851 CURVE SMOOTH",
"316 851 OFFCURVE",
"323 846 OFFCURVE",
"323 835 CURVE SMOOTH",
"323 828 OFFCURVE",
"320 818 OFFCURVE",
"314 803 CURVE SMOOTH",
"65 190 LINE SMOOTH",
"47 146 OFFCURVE",
"39 108 OFFCURVE",
"39 79 CURVE SMOOTH",
"39 14 OFFCURVE",
"84 -18 OFFCURVE",
"151 -18 CURVE SMOOTH"
);
},
{
closed = 1;
nodes = (
"574 1126 OFFCURVE",
"638 1185 OFFCURVE",
"638 1246 CURVE SMOOTH",
"638 1300 OFFCURVE",
"586 1341 OFFCURVE",
"527 1341 CURVE SMOOTH {name = hr00;}",
"462 1341 OFFCURVE",
"402 1287 OFFCURVE",
"402 1224 CURVE SMOOTH",
"402 1165 OFFCURVE",
"443 1126 OFFCURVE",
"509 1126 CURVE SMOOTH"
);
}
);
width = 584;
}
);
leftKerningGroup = i;
rightKerningGroup = i;
unicode = 0069;
},
{
glyphname = dotlessi;
layers = (
{
anchors = (
{
name = bottom;
position = "{154, 0}";
},
{
name = top;
position = "{512, 1119}";
}
);
layerId = master01;
paths = (
{
closed = 1;
nodes = (
"237 -18 OFFCURVE",
"366 65 OFFCURVE",
"473 201 CURVE",
"438 222 LINE",
"326 111 OFFCURVE",
"290 84 OFFCURVE",
"258 84 CURVE SMOOTH",
"237 84 OFFCURVE",
"224 98 OFFCURVE",
"224 117 CURVE SMOOTH",
"224 124 OFFCURVE",
"226 131 OFFCURVE",
"229 140 CURVE SMOOTH",
"475 730 LINE SMOOTH",
"491 771 OFFCURVE",
"502 812 OFFCURVE",
"502 844 CURVE SMOOTH",
"502 898 OFFCURVE",
"455 928 OFFCURVE",
"391 928 CURVE SMOOTH {name = hr00;}",
"299 928 OFFCURVE",
"188 870 OFFCURVE",
"110 775 CURVE",
"149 744 LINE",
"201 810 OFFCURVE",
"260 851 OFFCURVE",
"301 851 CURVE SMOOTH",
"316 851 OFFCURVE",
"323 846 OFFCURVE",
"323 835 CURVE SMOOTH",
"323 828 OFFCURVE",
"321 818 OFFCURVE",
"314 803 CURVE SMOOTH",
"65 190 LINE SMOOTH",
"47 146 OFFCURVE",
"39 108 OFFCURVE",
"39 79 CURVE SMOOTH",
"39 14 OFFCURVE",
"84 -18 OFFCURVE",
"151 -18 CURVE SMOOTH"
);
}
);
width = 584;
}
);
leftKerningGroup = i;
rightKerningGroup = i;
unicode = 0131;
},
{
glyphname = j;
layers = (
{
layerId = master01;
paths = (
{
closed = 1;
nodes = (
"-129 -440 OFFCURVE",
"5 -333 OFFCURVE",
"93 -140 CURVE SMOOTH",
"312 349 LINE SMOOTH",
"434 620 OFFCURVE",
"486 784 OFFCURVE",
"488 846 CURVE SMOOTH",
"488 897 OFFCURVE",
"452 928 OFFCURVE",
"380 928 CURVE SMOOTH",
"287 928 OFFCURVE",
"184 873 OFFCURVE",
"102 775 CURVE {name = hr02;}",
"138 744 LINE",
"189 810 OFFCURVE",
"239 846 OFFCURVE",
"280 846 CURVE SMOOTH",
"297 846 OFFCURVE",
"305 841 OFFCURVE",
"305 823 CURVE SMOOTH",
"305 787 OFFCURVE",
"278 720 OFFCURVE",
"167 434 CURVE SMOOTH {name = hr01;}",
"-22 -48 LINE SMOOTH",
"-122 -303 OFFCURVE",
"-181 -380 OFFCURVE",
"-249 -380 CURVE SMOOTH",
"-359 -380 OFFCURVE",
"-301 -227 OFFCURVE",
"-421 -227 CURVE SMOOTH",
"-475 -227 OFFCURVE",
"-500 -256 OFFCURVE",
"-500 -308 CURVE SMOOTH",
"-500 -389 OFFCURVE",
"-416 -440 OFFCURVE",
"-299 -440 CURVE SMOOTH"
);
},
{
closed = 1;
nodes = (
"565 1126 OFFCURVE",
"624 1181 OFFCURVE",
"624 1241 CURVE SMOOTH",
"624 1296 OFFCURVE",
"577 1341 OFFCURVE",
"516 1341 CURVE SMOOTH",
"448 1341 OFFCURVE",
"394 1287 OFFCURVE",
"394 1224 CURVE SMOOTH",
"394 1169 OFFCURVE",
"434 1126 OFFCURVE",
"497 1126 CURVE SMOOTH"
);
}
);
width = 526;
}
);
leftKerningGroup = j;
rightKerningGroup = j;
unicode = 006A;
},
{
glyphname = dotlessj;
layers = (
{
anchors = (
{
name = top;
position = "{507, 1119}";
}
);
layerId = master01;
paths = (
{
closed = 1;
nodes = (
"-129 -440 OFFCURVE",
"5 -333 OFFCURVE",
"93 -140 CURVE SMOOTH",
"312 349 LINE SMOOTH",
"434 620 OFFCURVE",
"486 784 OFFCURVE",
"488 846 CURVE SMOOTH",
"488 897 OFFCURVE",
"452 928 OFFCURVE",
"380 928 CURVE SMOOTH",
"287 928 OFFCURVE",
"184 873 OFFCURVE",
"102 775 CURVE",
"138 744 LINE",
"189 810 OFFCURVE",
"239 846 OFFCURVE",
"280 846 CURVE SMOOTH",
"297 846 OFFCURVE",
"305 841 OFFCURVE",
"305 823 CURVE SMOOTH",
"305 787 OFFCURVE",
"278 720 OFFCURVE",
"167 434 CURVE SMOOTH",
"-22 -48 LINE SMOOTH {name = hr01;}",
"-122 -303 OFFCURVE",
"-181 -380 OFFCURVE",
"-249 -380 CURVE SMOOTH",
"-359 -380 OFFCURVE",
"-301 -227 OFFCURVE",
"-421 -227 CURVE SMOOTH",
"-475 -227 OFFCURVE",
"-500 -256 OFFCURVE",
"-500 -308 CURVE SMOOTH",
"-500 -389 OFFCURVE",
"-416 -440 OFFCURVE",
"-299 -440 CURVE SMOOTH"
);
}
);
width = 526;
}
);
leftKerningGroup = j;
rightKerningGroup = j;
unicode = 0237;
},
{
glyphname = k;
layers = (
{
anchors = (
{
name = bottom;
position = "{296, 0}";
}
);
layerId = master01;
paths = (
{
closed = 1;
nodes = (
"688 -18 OFFCURVE",
"782 41 OFFCURVE",
"827 118 CURVE",
"792 138 LINE",
"751 84 OFFCURVE",
"712 57 OFFCURVE",
"676 57 CURVE SMOOTH",
"640 57 OFFCURVE",
"617 91 OFFCURVE",
"569 190 CURVE SMOOTH",
"452 437 LINE",
"698 504 OFFCURVE",
"904 669 OFFCURVE",
"904 799 CURVE SMOOTH",
"904 882 OFFCURVE",
"848 928 OFFCURVE",
"742 928 CURVE SMOOTH",
"636 928 OFFCURVE",
"520 875 OFFCURVE",
"448 794 CURVE",
"441 794 LINE",
"706 1409 LINE",
"378 1409 LINE",
"382 1384 LINE",
"511 1363 LINE",
"-62 0 LINE",
"110 0 LINE",
"273 404 LINE",
"287 404 LINE",
"405 154 LINE SMOOTH {name = hr01;}",
"462 36 OFFCURVE",
"521 -18 OFFCURVE",
"604 -18 CURVE SMOOTH"
);
},
{
closed = 1;
nodes = (
"361 613 OFFCURVE",
"423 705 OFFCURVE",
"507 778 CURVE SMOOTH",
"563 827 OFFCURVE",
"615 853 OFFCURVE",
"667 853 CURVE SMOOTH",
"710 853 OFFCURVE",
"732 830 OFFCURVE",
"732 784 CURVE SMOOTH",
"732 631 OFFCURVE",
"531 475 OFFCURVE",
"303 461 CURVE"
);
}
);
width = 949;
}
);
leftKerningGroup = h;
rightKerningGroup = k;
unicode = 006B;
},
{
glyphname = kgreenlandic;
layers = (
{
layerId = master01;
paths = (
{
closed = 1;
nodes = (
"715 -18 OFFCURVE",
"810 41 OFFCURVE",
"854 118 CURVE",
"820 138 LINE",
"778 84 OFFCURVE",
"739 57 OFFCURVE",
"703 57 CURVE SMOOTH",
"667 57 OFFCURVE",
"645 91 OFFCURVE",
"597 190 CURVE SMOOTH",
"479 437 LINE",
"726 504 OFFCURVE",
"932 669 OFFCURVE",
"932 799 CURVE SMOOTH",
"932 882 OFFCURVE",
"875 928 OFFCURVE",
"770 928 CURVE SMOOTH",
"663 928 OFFCURVE",
"547 875 OFFCURVE",
"477 794 CURVE",
"469 794 LINE",
"522 911 LINE",
"194 911 LINE",
"197 885 LINE",
"326 864 LINE",
"-34 0 LINE",
"138 0 LINE",
"301 404 LINE",
"314 404 LINE",
"434 154 LINE SMOOTH {name = hr01;}",
"490 36 OFFCURVE",
"548 -18 OFFCURVE",
"631 -18 CURVE SMOOTH"
);
},
{
closed = 1;
nodes = (
"389 613 OFFCURVE",
"450 705 OFFCURVE",
"534 778 CURVE SMOOTH",
"591 827 OFFCURVE",
"643 853 OFFCURVE",
"694 853 CURVE SMOOTH",
"737 853 OFFCURVE",
"760 830 OFFCURVE",
"760 784 CURVE SMOOTH",
"760 631 OFFCURVE",
"559 475 OFFCURVE",
"330 461 CURVE"
);
}
);
width = 990;
}
);
unicode = 0138;
},
{
glyphname = l;
layers = (
{
anchors = (
{
name = topcap;
position = "{646, 1473}";
}
);
layerId = master01;
paths = (
{
closed = 1;
nodes = (
"179 -18 OFFCURVE",
"310 61 OFFCURVE",
"425 201 CURVE",
"387 222 LINE",
"276 104 OFFCURVE",
"233 84 OFFCURVE",
"206 84 CURVE SMOOTH",
"189 84 OFFCURVE",
"170 97 OFFCURVE",
"170 115 CURVE SMOOTH",
"170 154 OFFCURVE",
"199 222 OFFCURVE",
"330 524 CURVE SMOOTH",
"710 1409 LINE",
"369 1409 LINE {name = hr00;}",
"373 1384 LINE",
"504 1363 LINE",
"269 801 LINE SMOOTH",
"27 227 OFFCURVE",
"-2 151 OFFCURVE",
"-2 90 CURVE SMOOTH",
"-2 24 OFFCURVE",
"31 -18 OFFCURVE",
"86 -18 CURVE SMOOTH"
);
}
);
width = 543;
}
);
leftKerningGroup = l;
rightKerningGroup = l;
unicode = 006C;
},
{
glyphname = lslash;
layers = (
{
components = (
{
name = l;
transform = "{1, 0, 0, 1, 52, 0}";
}
);
layerId = master01;
paths = (
{
closed = 1;
nodes = (
"689 792 LINE",
"692 877 LINE",
"12 554 LINE",
"12 471 LINE"
);
}
);
width = 604;
}
);
leftKerningGroup = l;
rightKerningGroup = l;
unicode = 0142;
},
{
glyphname = m;
layers = (
{
layerId = master01;
paths = (
{
closed = 1;
nodes = (
"1172 -18 OFFCURVE",
"1293 63 OFFCURVE",
"1409 213 CURVE",
"1373 239 LINE",
"1291 145 OFFCURVE",
"1214 84 OFFCURVE",
"1176 84 CURVE SMOOTH",
"1158 84 OFFCURVE",
"1149 93 OFFCURVE",
"1149 110 CURVE SMOOTH",
"1149 124 OFFCURVE",
"1158 147 OFFCURVE",
"1186 208 CURVE SMOOTH {name = hr01;}",
"1370 619 LINE SMOOTH",
"1399 683 OFFCURVE",
"1411 727 OFFCURVE",
"1411 775 CURVE SMOOTH",
"1411 873 OFFCURVE",
"1359 927 OFFCURVE",
"1262 927 CURVE SMOOTH",
"1138 927 OFFCURVE",
"1026 842 OFFCURVE",
"902 653 CURVE",
"896 656 LINE",
"927 708 OFFCURVE",
"941 756 OFFCURVE",
"941 801 CURVE SMOOTH",
"941 884 OFFCURVE",
"892 927 OFFCURVE",
"801 927 CURVE SMOOTH",
"677 927 OFFCURVE",
"572 848 OFFCURVE",
"437 653 CURVE",
"428 656 LINE",
"483 755 OFFCURVE",
"505 814 OFFCURVE",
"505 859 CURVE SMOOTH",
"505 907 OFFCURVE",
"479 928 OFFCURVE",
"423 928 CURVE SMOOTH",
"313 928 OFFCURVE",
"186 853 OFFCURVE",
"98 732 CURVE {name = hr04;}",
"133 705 LINE",
"197 791 OFFCURVE",
"271 851 OFFCURVE",
"313 851 CURVE SMOOTH",
"328 851 OFFCURVE",
"339 842 OFFCURVE",
"339 828 CURVE SMOOTH {name = hr03;}",
"339 816 OFFCURVE",
"332 794 OFFCURVE",
"319 767 CURVE SMOOTH",
"-11 0 LINE",
"156 0 LINE",
"312 333 LINE SMOOTH",
"455 646 OFFCURVE",
"638 868 OFFCURVE",
"749 868 CURVE SMOOTH",
"784 868 OFFCURVE",
"805 848 OFFCURVE",
"805 816 CURVE SMOOTH",
"805 796 OFFCURVE",
"796 765 OFFCURVE",
"782 734 CURVE SMOOTH",
"445 0 LINE",
"631 0 LINE",
"789 355 LINE SMOOTH",
"914 641 OFFCURVE",
"1104 868 OFFCURVE",
"1212 868 CURVE SMOOTH {name = hr02;}",
"1242 868 OFFCURVE",
"1264 848 OFFCURVE",
"1264 816 CURVE SMOOTH",
"1264 796 OFFCURVE",
"1255 767 OFFCURVE",
"1239 734 CURVE SMOOTH",
"1024 271 LINE SMOOTH",
"983 181 OFFCURVE",
"963 117 OFFCURVE",
"963 72 CURVE SMOOTH",
"963 14 OFFCURVE",
"999 -18 OFFCURVE",
"1065 -18 CURVE SMOOTH"
);
}
);
width = 1531;
}
);
leftKerningGroup = n;
rightKerningGroup = n;
unicode = 006D;
},
{
glyphname = n;
layers = (
{
anchors = (
{
name = bottom;
position = "{310, 0}";
},
{
name = top;
position = "{775, 1119}";
}
);
layerId = master01;
paths = (
{
closed = 1;
nodes = (
"720 -18 OFFCURVE",
"837 61 OFFCURVE",
"959 213 CURVE",
"923 239 LINE",
"835 141 OFFCURVE",
"762 84 OFFCURVE",
"722 84 CURVE SMOOTH {name = hr01;}",
"708 84 OFFCURVE",
"701 91 OFFCURVE",
"701 108 CURVE SMOOTH",
"701 127 OFFCURVE",
"715 167 OFFCURVE",
"735 208 CURVE SMOOTH",
"937 619 LINE SMOOTH",
"966 677 OFFCURVE",
"979 727 OFFCURVE",
"979 777 CURVE SMOOTH",
"979 875 OFFCURVE",
"927 927 OFFCURVE",
"823 927 CURVE SMOOTH",
"696 927 OFFCURVE",
"584 848 OFFCURVE",
"437 653 CURVE",
"430 656 LINE",
"484 758 OFFCURVE",
"505 813 OFFCURVE",
"505 859 CURVE SMOOTH",
"505 907 OFFCURVE",
"481 928 OFFCURVE",
"423 928 CURVE SMOOTH",
"313 928 OFFCURVE",
"186 853 OFFCURVE",
"98 732 CURVE {name = hr03;}",
"133 705 LINE",
"203 792 OFFCURVE",
"275 851 OFFCURVE",
"314 851 CURVE SMOOTH",
"332 851 OFFCURVE",
"339 841 OFFCURVE",
"339 825 CURVE SMOOTH",
"339 814 OFFCURVE",
"332 796 OFFCURVE",
"319 767 CURVE SMOOTH",
"-11 0 LINE",
"156 0 LINE",
"316 333 LINE SMOOTH",
"464 641 OFFCURVE",
"658 868 OFFCURVE",
"775 868 CURVE SMOOTH {name = hr02;}",
"810 868 OFFCURVE",
"830 849 OFFCURVE",
"830 816 CURVE SMOOTH",
"830 791 OFFCURVE",
"820 758 OFFCURVE",
"808 734 CURVE SMOOTH",
"574 271 LINE SMOOTH",
"534 192 OFFCURVE",
"512 122 OFFCURVE",
"512 74 CURVE SMOOTH",
"512 14 OFFCURVE",
"547 -18 OFFCURVE",
"613 -18 CURVE SMOOTH"
);
}
);
width = 1081;
}
);
leftKerningGroup = n;
rightKerningGroup = n;
unicode = 006E;
},
{
glyphname = eng;
layers = (
{
layerId = master01;
paths = (
{
closed = 1;
nodes = (
"364 -440 OFFCURVE",
"497 -333 OFFCURVE",
"586 -140 CURVE SMOOTH",
"937 619 LINE SMOOTH",
"964 679 OFFCURVE",
"979 727 OFFCURVE",
"979 778 CURVE SMOOTH",
"979 875 OFFCURVE",
"927 927 OFFCURVE",
"823 927 CURVE SMOOTH",
"696 927 OFFCURVE",
"584 848 OFFCURVE",
"437 653 CURVE",
"430 656 LINE",
"484 758 OFFCURVE",
"505 813 OFFCURVE",
"505 859 CURVE SMOOTH",
"505 907 OFFCURVE",
"481 928 OFFCURVE",
"423 928 CURVE SMOOTH {name = hr02;}",
"313 928 OFFCURVE",
"186 853 OFFCURVE",
"98 732 CURVE",
"133 705 LINE",
"203 792 OFFCURVE",
"275 851 OFFCURVE",
"314 851 CURVE SMOOTH",
"332 851 OFFCURVE",
"339 839 OFFCURVE",
"339 827 CURVE SMOOTH",
"339 813 OFFCURVE",
"332 796 OFFCURVE",
"319 767 CURVE SMOOTH",
"-11 0 LINE",
"156 0 LINE",
"316 333 LINE SMOOTH",
"464 641 OFFCURVE",
"658 868 OFFCURVE",
"775 868 CURVE SMOOTH {name = hr03;}",
"810 868 OFFCURVE",
"830 849 OFFCURVE",
"830 816 CURVE SMOOTH",
"830 791 OFFCURVE",
"818 758 OFFCURVE",
"808 734 CURVE SMOOTH",
"471 -48 LINE SMOOTH",
"362 -299 OFFCURVE",
"314 -380 OFFCURVE",
"240 -380 CURVE SMOOTH",
"138 -380 OFFCURVE",
"190 -227 OFFCURVE",
"72 -227 CURVE SMOOTH {name = hr01;}",
"19 -227 OFFCURVE",
"-7 -258 OFFCURVE",
"-7 -305 CURVE SMOOTH",
"-7 -391 OFFCURVE",
"77 -440 OFFCURVE",
"194 -440 CURVE SMOOTH"
);
}
);
width = 1026;
}
);
leftKerningGroup = n;
unicode = 014B;
},
{
glyphname = o;
layers = (
{
anchors = (
{
name = bottom;
position = "{280, 0}";
},
{
name = top;
position = "{751, 1119}";
}
);
layerId = master01;
paths = (
{
closed = 1;
nodes = (
"561 -18 OFFCURVE",
"885 337 OFFCURVE",
"885 646 CURVE SMOOTH",
"885 820 OFFCURVE",
"792 928 OFFCURVE",
"629 928 CURVE SMOOTH",
"344 928 OFFCURVE",
"22 572 OFFCURVE",
"22 267 CURVE SMOOTH",
"22 91 OFFCURVE",
"113 -18 OFFCURVE",
"276 -18 CURVE SMOOTH {name = hr00;}"
);
},
{
closed = 1;
nodes = (
"201 43 OFFCURVE",
"179 86 OFFCURVE",
"179 168 CURVE SMOOTH",
"179 437 OFFCURVE",
"468 868 OFFCURVE",
"649 868 CURVE SMOOTH",
"708 868 OFFCURVE",
"732 828 OFFCURVE",
"732 751 CURVE SMOOTH",
"732 497 OFFCURVE",
"428 43 OFFCURVE",
"256 43 CURVE SMOOTH"
);
}
);
width = 957;
}
);
leftKerningGroup = o;
rightKerningGroup = o;
unicode = 006F;
},
{
glyphname = oslash;
layers = (
{
components = (
{
name = o;
}
);
layerId = master01;
paths = (
{
closed = 1;
nodes = (
"22 -206 LINE",
"973 1131 LINE",
"878 1131 LINE",
"-68 -206 LINE"
);
}
);
width = 957;
}
);
leftKerningGroup = o;
rightKerningGroup = o;
unicode = 00F8;
},
{
glyphname = oslashacute;
layers = (
{
components = (
{
name = o;
},
{
name = acute;
transform = "{1, 0, 0, 1, 536, 0}";
}
);
layerId = master01;
paths = (
{
closed = 1;
nodes = (
"22 -206 LINE",
"973 1131 LINE",
"878 1131 LINE",
"-68 -206 LINE"
);
}
);
width = 957;
}
);
leftKerningGroup = o;
rightKerningGroup = o;
unicode = 01FF;
},
{
glyphname = oe;
layers = (
{
layerId = master01;
paths = (
{
closed = 1;
nodes = (
"387 -18 OFFCURVE",
"504 36 OFFCURVE",
"605 120 CURVE",
"634 31 OFFCURVE",
"706 -18 OFFCURVE",
"814 -18 CURVE SMOOTH",
"961 -18 OFFCURVE",
"1108 72 OFFCURVE",
"1250 249 CURVE",
"1212 273 LINE",
"1110 138 OFFCURVE",
"964 43 OFFCURVE",
"857 43 CURVE SMOOTH",
"791 43 OFFCURVE",
"758 79 OFFCURVE",
"758 158 CURVE SMOOTH",
"758 224 OFFCURVE",
"780 308 OFFCURVE",
"827 404 CURVE",
"827 407 OFFCURVE",
"828 409 OFFCURVE",
"830 412 CURVE SMOOTH",
"837 428 OFFCURVE",
"846 445 OFFCURVE",
"855 462 CURVE",
"1199 522 OFFCURVE",
"1440 665 OFFCURVE",
"1440 810 CURVE SMOOTH",
"1440 884 OFFCURVE",
"1377 928 OFFCURVE",
"1275 928 CURVE SMOOTH",
"1143 928 OFFCURVE",
"997 853 OFFCURVE",
"873 742 CURVE",
"844 859 OFFCURVE",
"760 928 OFFCURVE",
"629 928 CURVE SMOOTH",
"344 928 OFFCURVE",
"22 572 OFFCURVE",
"22 267 CURVE SMOOTH",
"22 91 OFFCURVE",
"113 -18 OFFCURVE",
"276 -18 CURVE SMOOTH"
);
},
{
closed = 1;
nodes = (
"201 43 OFFCURVE",
"179 86 OFFCURVE",
"179 168 CURVE SMOOTH",
"179 437 OFFCURVE",
"468 868 OFFCURVE",
"649 868 CURVE SMOOTH",
"708 868 OFFCURVE",
"732 828 OFFCURVE",
"732 751 CURVE SMOOTH {name = hr01;}",
"732 497 OFFCURVE",
"428 43 OFFCURVE",
"256 43 CURVE SMOOTH"
);
},
{
closed = 1;
nodes = (
"949 620 LINE SMOOTH",
"1026 767 OFFCURVE",
"1153 875 OFFCURVE",
"1248 875 CURVE SMOOTH {name = hr02;}",
"1285 875 OFFCURVE",
"1303 857 OFFCURVE",
"1303 823 CURVE SMOOTH",
"1303 705 OFFCURVE",
"1106 561 OFFCURVE",
"894 520 CURVE"
);
}
);
width = 1425;
}
);
leftKerningGroup = o;
rightKerningGroup = e;
unicode = 0153;
},
{
glyphname = p;
layers = (
{
layerId = master01;
paths = (
{
closed = 1;
nodes = (
"151 -430 LINE",
"151 -398 LINE",
"-24 -378 LINE",
"143 22 LINE",
"174 19 OFFCURVE",
"206 18 OFFCURVE",
"232 18 CURVE SMOOTH",
"563 18 OFFCURVE",
"885 285 OFFCURVE",
"885 598 CURVE SMOOTH",
"885 771 OFFCURVE",
"755 904 OFFCURVE",
"520 928 CURVE",
"581 1083 LINE {name = hr00;}",
"409 1063 LINE",
"349 916 LINE",
"269 904 OFFCURVE",
"192 875 OFFCURVE",
"136 835 CURVE",
"149 801 LINE",
"189 828 OFFCURVE",
"249 851 OFFCURVE",
"330 864 CURVE",
"-203 -383 LINE",
"-340 -404 LINE",
"-340 -430 LINE"
);
},
{
closed = 1;
nodes = (
"192 67 OFFCURVE",
"183 67 OFFCURVE",
"161 68 CURVE",
"488 854 LINE SMOOTH",
"495 870 OFFCURVE",
"505 873 OFFCURVE",
"527 873 CURVE SMOOTH",
"631 873 OFFCURVE",
"706 789 OFFCURVE",
"706 634 CURVE SMOOTH",
"706 342 OFFCURVE",
"461 67 OFFCURVE",
"206 67 CURVE SMOOTH"
);
}
);
width = 973;
}
);
rightKerningGroup = p;
unicode = 0070;
},
{
glyphname = thorn;
layers = (
{
layerId = master01;
paths = (
{
closed = 1;
nodes = (
"134 -430 LINE",
"134 -398 LINE",
"-41 -378 LINE",
"125 22 LINE",
"154 19 OFFCURVE",
"188 18 OFFCURVE",
"219 18 CURVE SMOOTH",
"584 18 OFFCURVE",
"935 296 OFFCURVE",
"935 586 CURVE SMOOTH",
"935 792 OFFCURVE",
"767 934 OFFCURVE",
"511 940 CURVE",
"694 1409 LINE {name = hr00;}",
"364 1409 LINE",
"371 1384 LINE",
"505 1363 LINE",
"-220 -383 LINE",
"-357 -404 LINE",
"-357 -430 LINE"
);
},
{
closed = 1;
nodes = (
"170 67 OFFCURVE",
"160 67 OFFCURVE",
"145 68 CURVE",
"471 854 LINE SMOOTH",
"477 870 OFFCURVE",
"484 873 OFFCURVE",
"516 873 CURVE SMOOTH",
"665 873 OFFCURVE",
"756 778 OFFCURVE",
"756 624 CURVE SMOOTH",
"756 346 OFFCURVE",
"473 67 OFFCURVE",
"189 67 CURVE SMOOTH"
);
}
);
width = 1018;
}
);
leftKerningGroup = h;
unicode = 00FE;
},
{
glyphname = q;
layers = (
{
layerId = master01;
paths = (
{
closed = 1;
nodes = (
"570 -430 LINE",
"570 -398 LINE",
"447 -383 LINE",
"995 911 LINE",
"821 911 LINE",
"791 848 LINE",
"758 906 OFFCURVE",
"720 928 OFFCURVE",
"653 928 CURVE SMOOTH {name = hr03;}",
"359 928 OFFCURVE",
"-7 511 OFFCURVE",
"-7 188 CURVE SMOOTH",
"-7 50 OFFCURVE",
"54 -18 OFFCURVE",
"168 -18 CURVE SMOOTH",
"292 -18 OFFCURVE",
"392 59 OFFCURVE",
"540 262 CURVE",
"543 256 LINE {name = hr02;}",
"275 -375 LINE",
"75 -404 LINE",
"75 -430 LINE"
);
},
{
closed = 1;
nodes = (
"167 43 OFFCURVE",
"149 70 OFFCURVE",
"149 131 CURVE SMOOTH",
"149 376 OFFCURVE",
"498 873 OFFCURVE",
"674 873 CURVE SMOOTH {name = hr01;}",
"720 873 OFFCURVE",
"746 841 OFFCURVE",
"749 787 CURVE",
"748 753 OFFCURVE",
"741 720 OFFCURVE",
"705 640 CURVE SMOOTH",
"557 318 OFFCURVE",
"325 43 OFFCURVE",
"208 43 CURVE SMOOTH"
);
}
);
width = 981;
}
);
unicode = 0071;
},
{
glyphname = r;
layers = (
{
anchors = (
{
name = bottom;
position = "{74, 0}";
},
{
name = top;
position = "{641, 1119}";
}
);
layerId = master01;
paths = (
{
closed = 1;
nodes = (
"153 0 LINE",
"313 333 LINE SMOOTH",
"468 655 OFFCURVE",
"579 816 OFFCURVE",
"677 816 CURVE SMOOTH",
"741 816 OFFCURVE",
"739 755 OFFCURVE",
"806 755 CURVE SMOOTH",
"855 755 OFFCURVE",
"882 785 OFFCURVE",
"882 832 CURVE SMOOTH",
"882 891 OFFCURVE",
"827 928 OFFCURVE",
"753 928 CURVE SMOOTH {name = hr00;}",
"641 928 OFFCURVE",
"538 848 OFFCURVE",
"419 653 CURVE",
"411 656 LINE",
"469 751 OFFCURVE",
"484 794 OFFCURVE",
"484 841 CURVE SMOOTH",
"484 898 OFFCURVE",
"452 928 OFFCURVE",
"404 928 CURVE SMOOTH",
"310 928 OFFCURVE",
"188 849 OFFCURVE",
"97 732 CURVE",
"129 705 LINE",
"197 791 OFFCURVE",
"275 851 OFFCURVE",
"314 851 CURVE SMOOTH",
"328 851 OFFCURVE",
"337 844 OFFCURVE",
"337 830 CURVE SMOOTH",
"337 814 OFFCURVE",
"328 791 OFFCURVE",
"318 767 CURVE SMOOTH",
"-14 0 LINE"
);
}
);
width = 782;
}
);
leftKerningGroup = n;
rightKerningGroup = r;
unicode = 0072;
},
{
glyphname = s;
layers = (
{
anchors = (
{
name = bottom;
position = "{201, 0}";
},
{
name = top;
position = "{634, 1119}";
}
);
layerId = master01;
paths = (
{
closed = 1;
nodes = (
"409 -18 OFFCURVE",
"555 93 OFFCURVE",
"555 233 CURVE SMOOTH",
"555 409 OFFCURVE",
"339 563 OFFCURVE",
"339 724 CURVE SMOOTH",
"339 818 OFFCURVE",
"392 878 OFFCURVE",
"493 878 CURVE SMOOTH {name = hr01;}",
"565 878 OFFCURVE",
"581 859 OFFCURVE",
"593 775 CURVE SMOOTH",
"600 726 OFFCURVE",
"624 699 OFFCURVE",
"670 699 CURVE SMOOTH",
"715 699 OFFCURVE",
"748 729 OFFCURVE",
"748 770 CURVE SMOOTH",
"748 854 OFFCURVE",
"627 928 OFFCURVE",
"483 928 CURVE SMOOTH",
"308 928 OFFCURVE",
"165 813 OFFCURVE",
"165 670 CURVE SMOOTH",
"165 484 OFFCURVE",
"389 337 OFFCURVE",
"389 192 CURVE SMOOTH {name = hr02;}",
"389 104 OFFCURVE",
"326 36 OFFCURVE",
"229 36 CURVE SMOOTH",
"59 36 OFFCURVE",
"141 220 OFFCURVE",
"19 220 CURVE SMOOTH",
"-27 220 OFFCURVE",
"-59 192 OFFCURVE",
"-59 151 CURVE SMOOTH",
"-59 63 OFFCURVE",
"68 -18 OFFCURVE",
"220 -18 CURVE SMOOTH"
);
}
);
width = 758;
}
);
leftKerningGroup = s;
rightKerningGroup = s;
unicode = 0073;
},
{
glyphname = germandbls;
layers = (
{
layerId = master01;
paths = (
{
closed = 1;
nodes = (
"610 1427 OFFCURVE",
"434 1268 OFFCURVE",
"334 958 CURVE SMOOTH",
"95 246 LINE SMOOTH",
"1 -65 OFFCURVE",
"-102 -279 OFFCURVE",
"-235 -279 CURVE SMOOTH",
"-326 -279 OFFCURVE",
"-273 -113 OFFCURVE",
"-389 -113 CURVE SMOOTH",
"-439 -113 OFFCURVE",
"-470 -150 OFFCURVE",
"-470 -201 CURVE SMOOTH",
"-470 -281 OFFCURVE",
"-403 -337 OFFCURVE",
"-282 -337 CURVE SMOOTH",
"12 -337 OFFCURVE",
"165 -110 OFFCURVE",
"313 349 CURVE SMOOTH",
"514 958 LINE SMOOTH",
"598 1246 OFFCURVE",
"699 1376 OFFCURVE",
"838 1376 CURVE SMOOTH",
"914 1376 OFFCURVE",
"955 1324 OFFCURVE",
"955 1229 CURVE SMOOTH",
"955 945 OFFCURVE",
"627 928 OFFCURVE",
"627 677 CURVE SMOOTH",
"627 471 OFFCURVE",
"850 348 OFFCURVE",
"850 188 CURVE SMOOTH",
"850 100 OFFCURVE",
"783 36 OFFCURVE",
"687 36 CURVE SMOOTH",
"525 36 OFFCURVE",
"601 220 OFFCURVE",
"480 220 CURVE SMOOTH {name = hr01;}",
"434 220 OFFCURVE",
"403 192 OFFCURVE",
"403 149 CURVE SMOOTH",
"403 61 OFFCURVE",
"534 -18 OFFCURVE",
"687 -18 CURVE SMOOTH",
"871 -18 OFFCURVE",
"1016 95 OFFCURVE",
"1016 235 CURVE SMOOTH",
"1016 418 OFFCURVE",
"773 541 OFFCURVE",
"773 741 CURVE SMOOTH",
"773 975 OFFCURVE",
"1104 1006 OFFCURVE",
"1104 1222 CURVE SMOOTH {name = hr02;}",
"1104 1344 OFFCURVE",
"1002 1427 OFFCURVE",
"853 1427 CURVE SMOOTH"
);
}
);
width = 1163;
},
{
associatedMasterId = master01;
layerId = "38C5C91B-8E33-4400-877A-EED4ABF1F1F1";
name = "Jan 9 19, 11:29";
paths = (
{
closed = 1;
nodes = (
"-57 -339 OFFCURVE",
"79 -168 OFFCURVE",
"270 349 CURVE SMOOTH",
"514 1014 LINE SMOOTH",
"608 1271 OFFCURVE",
"694 1380 OFFCURVE",
"806 1380 CURVE SMOOTH",
"882 1380 OFFCURVE",
"923 1327 OFFCURVE",
"923 1229 CURVE SMOOTH",
"923 945 OFFCURVE",
"595 928 OFFCURVE",
"595 677 CURVE SMOOTH",
"595 471 OFFCURVE",
"818 348 OFFCURVE",
"818 188 CURVE SMOOTH",
"818 100 OFFCURVE",
"751 36 OFFCURVE",
"655 36 CURVE SMOOTH",
"493 36 OFFCURVE",
"569 220 OFFCURVE",
"448 220 CURVE SMOOTH {name = hr01;}",
"402 220 OFFCURVE",
"371 192 OFFCURVE",
"371 149 CURVE SMOOTH",
"371 61 OFFCURVE",
"502 -18 OFFCURVE",
"655 -18 CURVE SMOOTH",
"839 -18 OFFCURVE",
"984 95 OFFCURVE",
"984 235 CURVE SMOOTH",
"984 418 OFFCURVE",
"741 541 OFFCURVE",
"741 741 CURVE SMOOTH",
"741 975 OFFCURVE",
"1072 1006 OFFCURVE",
"1072 1222 CURVE SMOOTH {name = hr02;}",
"1072 1344 OFFCURVE",
"966 1427 OFFCURVE",
"810 1427 CURVE SMOOTH",
"602 1427 OFFCURVE",
"426 1278 OFFCURVE",
"339 1031 CURVE SMOOTH",
"57 246 LINE SMOOTH",
"-97 -179 OFFCURVE",
"-153 -278 OFFCURVE",
"-242 -278 CURVE SMOOTH",
"-354 -278 OFFCURVE",
"-296 -125 OFFCURVE",
"-421 -125 CURVE SMOOTH {name = hr03;}",
"-471 -125 OFFCURVE",
"-497 -149 OFFCURVE",
"-497 -197 CURVE SMOOTH",
"-497 -283 OFFCURVE",
"-412 -339 OFFCURVE",
"-283 -339 CURVE SMOOTH"
);
}
);
visible = 1;
width = 1149;
}
);
leftKerningGroup = h;
unicode = 00DF;
},
{
glyphname = t;
layers = (
{
anchors = (
{
name = bottom;
position = "{70, 0}";
}
);
layerId = master01;
paths = (
{
closed = 1;
nodes = (
"208 -18 OFFCURVE",
"330 62 OFFCURVE",
"440 201 CURVE",
"405 222 LINE",
"313 125 OFFCURVE",
"262 84 OFFCURVE",
"227 84 CURVE SMOOTH",
"201 84 OFFCURVE",
"189 100 OFFCURVE",
"189 125 CURVE SMOOTH",
"189 149 OFFCURVE",
"203 179 OFFCURVE",
"351 524 CURVE SMOOTH",
"493 855 LINE",
"648 855 LINE",
"667 911 LINE",
"516 911 LINE",
"633 1181 LINE",
"448 1164 LINE",
"340 911 LINE",
"192 911 LINE",
"174 855 LINE {name = hr00;}",
"316 855 LINE",
"136 438 LINE SMOOTH",
"32 197 OFFCURVE",
"18 140 OFFCURVE",
"18 91 CURVE SMOOTH",
"18 16 OFFCURVE",
"39 -18 OFFCURVE",
"108 -18 CURVE SMOOTH"
);
}
);
width = 583;
}
);
leftKerningGroup = t;
rightKerningGroup = t;
unicode = 0074;
},
{
glyphname = tbar;
layers = (
{
components = (
{
name = t;
transform = "{1, 0, 0, 1, 2, 0}";
}
);
layerId = master01;
paths = (
{
closed = 1;
nodes = (
"591 656 LINE",
"622 729 LINE",
"129 729 LINE",
"100 656 LINE"
);
}
);
width = 586;
}
);
leftKerningGroup = t;
rightKerningGroup = t;
unicode = 0167;
},
{
glyphname = u;
layers = (
{
anchors = (
{
name = bottom;
position = "{222, 0}";
},
{
name = top;
position = "{785, 1119}";
}
);
layerId = master01;
paths = (
{
closed = 1;
nodes = (
"708 -18 OFFCURVE",
"821 62 OFFCURVE",
"913 179 CURVE",
"878 206 LINE",
"810 120 OFFCURVE",
"737 61 OFFCURVE",
"696 61 CURVE SMOOTH",
"684 61 OFFCURVE",
"672 67 OFFCURVE",
"672 81 CURVE SMOOTH",
"672 95 OFFCURVE",
"679 118 OFFCURVE",
"691 145 CURVE SMOOTH",
"1024 911 LINE {name = hr01;}",
"854 911 LINE",
"698 577 LINE SMOOTH",
"554 269 OFFCURVE",
"373 43 OFFCURVE",
"262 43 CURVE SMOOTH",
"233 43 OFFCURVE",
"210 61 OFFCURVE",
"210 91 CURVE SMOOTH",
"210 113 OFFCURVE",
"217 145 OFFCURVE",
"232 177 CURVE SMOOTH",
"457 640 LINE SMOOTH",
"497 722 OFFCURVE",
"518 791 OFFCURVE",
"518 839 CURVE SMOOTH",
"518 898 OFFCURVE",
"479 928 OFFCURVE",
"416 928 CURVE SMOOTH",
"319 928 OFFCURVE",
"217 864 OFFCURVE",
"113 746 CURVE",
"153 719 LINE",
"219 787 OFFCURVE",
"276 827 OFFCURVE",
"308 827 CURVE SMOOTH",
"321 827 OFFCURVE",
"328 820 OFFCURVE",
"328 805 CURVE SMOOTH",
"328 784 OFFCURVE",
"318 751 OFFCURVE",
"294 703 CURVE SMOOTH",
"93 292 LINE SMOOTH",
"65 235 OFFCURVE",
"50 183 OFFCURVE",
"50 136 CURVE SMOOTH",
"50 38 OFFCURVE",
"100 -16 OFFCURVE",
"203 -16 CURVE SMOOTH {name = hr02;}",
"328 -16 OFFCURVE",
"432 62 OFFCURVE",
"574 258 CURVE",
"583 254 LINE",
"545 179 OFFCURVE",
"529 124 OFFCURVE",
"529 82 CURVE SMOOTH",
"529 22 OFFCURVE",
"572 -18 OFFCURVE",
"627 -18 CURVE SMOOTH"
);
}
);
width = 1063;
}
);
leftKerningGroup = u;
rightKerningGroup = u;
unicode = 0075;
},
{
glyphname = v;
layers = (
{
layerId = master01;
paths = (
{
closed = 1;
nodes = (
"540 -18 OFFCURVE",
"720 111 OFFCURVE",
"866 357 CURVE SMOOTH",
"966 526 OFFCURVE",
"1036 719 OFFCURVE",
"1036 828 CURVE SMOOTH",
"1036 891 OFFCURVE",
"1009 928 OFFCURVE",
"961 928 CURVE SMOOTH",
"909 928 OFFCURVE",
"878 887 OFFCURVE",
"878 825 CURVE SMOOTH",
"878 771 OFFCURVE",
"898 696 OFFCURVE",
"898 631 CURVE SMOOTH",
"898 543 OFFCURVE",
"864 455 OFFCURVE",
"792 340 CURVE SMOOTH {name = hr02;}",
"669 146 OFFCURVE",
"543 50 OFFCURVE",
"430 50 CURVE SMOOTH",
"361 50 OFFCURVE",
"325 100 OFFCURVE",
"325 210 CURVE SMOOTH {name = hr01;}",
"325 306 OFFCURVE",
"359 385 OFFCURVE",
"479 567 CURVE SMOOTH",
"605 758 OFFCURVE",
"619 782 OFFCURVE",
"677 911 CURVE",
"409 911 LINE SMOOTH",
"188 911 OFFCURVE",
"84 849 OFFCURVE",
"84 724 CURVE SMOOTH",
"84 634 OFFCURVE",
"134 581 OFFCURVE",
"208 581 CURVE SMOOTH",
"258 581 OFFCURVE",
"290 606 OFFCURVE",
"290 649 CURVE SMOOTH",
"290 691 OFFCURVE",
"258 719 OFFCURVE",
"222 719 CURVE SMOOTH",
"181 719 OFFCURVE",
"149 691 OFFCURVE",
"149 660 CURVE",
"153 645 OFFCURVE",
"160 631 OFFCURVE",
"174 619 CURVE",
"168 612 LINE",
"147 626 OFFCURVE",
"136 648 OFFCURVE",
"136 677 CURVE SMOOTH",
"136 744 OFFCURVE",
"183 775 OFFCURVE",
"296 775 CURVE SMOOTH",
"550 775 LINE {name = hr03;}",
"497 689 OFFCURVE",
"466 649 OFFCURVE",
"396 577 CURVE SMOOTH",
"211 392 OFFCURVE",
"143 285 OFFCURVE",
"143 177 CURVE SMOOTH",
"143 57 OFFCURVE",
"224 -18 OFFCURVE",
"354 -18 CURVE SMOOTH"
);
}
);
width = 1056;
}
);
unicode = 0076;
},
{
glyphname = w;
layers = (
{
anchors = (
{
name = top;
position = "{1169, 1119}";
}
);
layerId = master01;
paths = (
{
closed = 1;
nodes = (
"488 -18 OFFCURVE",
"588 19 OFFCURVE",
"692 95 CURVE",
"741 22 OFFCURVE",
"816 -18 OFFCURVE",
"914 -18 CURVE SMOOTH",
"1085 -18 OFFCURVE",
"1248 117 OFFCURVE",
"1373 357 CURVE SMOOTH",
"1463 529 OFFCURVE",
"1522 727 OFFCURVE",
"1522 834 CURVE SMOOTH",
"1522 896 OFFCURVE",
"1492 928 OFFCURVE",
"1449 928 CURVE SMOOTH",
"1397 928 OFFCURVE",
"1366 889 OFFCURVE",
"1366 825 CURVE SMOOTH",
"1366 773 OFFCURVE",
"1387 698 OFFCURVE",
"1387 626 CURVE SMOOTH {name = hr01;}",
"1387 538 OFFCURVE",
"1359 452 OFFCURVE",
"1300 340 CURVE SMOOTH",
"1201 161 OFFCURVE",
"1093 68 OFFCURVE",
"995 68 CURVE SMOOTH",
"914 68 OFFCURVE",
"857 122 OFFCURVE",
"828 215 CURVE",
"1035 425 OFFCURVE",
"1194 689 OFFCURVE",
"1194 823 CURVE SMOOTH",
"1194 891 OFFCURVE",
"1155 928 OFFCURVE",
"1092 928 CURVE SMOOTH",
"887 928 OFFCURVE",
"638 579 OFFCURVE",
"638 297 CURVE SMOOTH",
"638 240 OFFCURVE",
"646 189 OFFCURVE",
"665 146 CURVE",
"593 97 OFFCURVE",
"522 65 OFFCURVE",
"462 65 CURVE SMOOTH",
"382 65 OFFCURVE",
"340 118 OFFCURVE",
"340 220 CURVE SMOOTH",
"340 308 OFFCURVE",
"368 400 OFFCURVE",
"477 567 CURVE SMOOTH",
"591 746 OFFCURVE",
"608 775 OFFCURVE",
"674 911 CURVE {name = hr02;}",
"404 911 LINE SMOOTH",
"176 911 OFFCURVE",
"81 848 OFFCURVE",
"81 717 CURVE SMOOTH",
"81 633 OFFCURVE",
"131 581 OFFCURVE",
"203 581 CURVE SMOOTH",
"254 581 OFFCURVE",
"287 606 OFFCURVE",
"287 649 CURVE SMOOTH",
"287 691 OFFCURVE",
"253 719 OFFCURVE",
"217 719 CURVE SMOOTH",
"177 719 OFFCURVE",
"147 691 OFFCURVE",
"147 660 CURVE SMOOTH",
"147 645 OFFCURVE",
"158 631 OFFCURVE",
"168 619 CURVE",
"163 612 LINE",
"146 626 OFFCURVE",
"131 648 OFFCURVE",
"131 677 CURVE SMOOTH",
"131 744 OFFCURVE",
"177 775 OFFCURVE",
"290 775 CURVE SMOOTH {name = hr03;}",
"547 775 LINE",
"495 692 OFFCURVE",
"462 653 OFFCURVE",
"391 577 CURVE SMOOTH",
"213 391 OFFCURVE",
"158 278 OFFCURVE",
"158 172 CURVE SMOOTH",
"158 54 OFFCURVE",
"246 -18 OFFCURVE",
"389 -18 CURVE SMOOTH"
);
},
{
closed = 1;
nodes = (
"810 312 OFFCURVE",
"808 344 OFFCURVE",
"808 380 CURVE SMOOTH",
"808 606 OFFCURVE",
"937 871 OFFCURVE",
"1056 871 CURVE SMOOTH {name = hr04;}",
"1074 871 OFFCURVE",
"1085 855 OFFCURVE",
"1085 813 CURVE SMOOTH",
"1085 655 OFFCURVE",
"963 440 OFFCURVE",
"814 280 CURVE"
);
}
);
width = 1556;
}
);
leftKerningGroup = w;
rightKerningGroup = w;
unicode = 0077;
},
{
glyphname = x;
layers = (
{
layerId = master01;
paths = (
{
closed = 1;
nodes = (
"655 -18 OFFCURVE",
"749 48 OFFCURVE",
"818 160 CURVE {name = hr05;}",
"784 183 LINE",
"701 86 OFFCURVE",
"676 63 OFFCURVE",
"646 63 CURVE SMOOTH {name = hr04;}",
"617 63 OFFCURVE",
"610 90 OFFCURVE",
"586 232 CURVE SMOOTH",
"538 522 LINE",
"684 701 LINE SMOOTH",
"753 785 OFFCURVE",
"801 823 OFFCURVE",
"841 823 CURVE SMOOTH",
"892 823 OFFCURVE",
"891 748 OFFCURVE",
"959 748 CURVE SMOOTH",
"1006 748 OFFCURVE",
"1040 784 OFFCURVE",
"1040 827 CURVE SMOOTH",
"1040 875 OFFCURVE",
"984 911 OFFCURVE",
"921 911 CURVE SMOOTH",
"830 911 OFFCURVE",
"732 844 OFFCURVE",
"624 712 CURVE SMOOTH {name = hr03;}",
"529 597 LINE {name = hr02;}",
"498 823 LINE SMOOTH",
"490 892 OFFCURVE",
"452 928 OFFCURVE",
"396 928 CURVE SMOOTH",
"310 928 OFFCURVE",
"197 849 OFFCURVE",
"136 746 CURVE",
"167 729 LINE",
"217 794 OFFCURVE",
"246 814 OFFCURVE",
"282 814 CURVE SMOOTH {name = hr01;}",
"310 814 OFFCURVE",
"313 806 OFFCURVE",
"321 756 CURVE SMOOTH",
"373 441 LINE",
"211 222 LINE SMOOTH",
"147 136 OFFCURVE",
"88 88 OFFCURVE",
"43 88 CURVE SMOOTH",
"-11 88 OFFCURVE",
"-7 163 OFFCURVE",
"-72 163 CURVE SMOOTH",
"-118 163 OFFCURVE",
"-153 127 OFFCURVE",
"-153 84 CURVE SMOOTH",
"-153 36 OFFCURVE",
"-100 0 OFFCURVE",
"-38 0 CURVE SMOOTH",
"54 0 OFFCURVE",
"177 77 OFFCURVE",
"273 211 CURVE SMOOTH",
"385 366 LINE",
"414 176 LINE SMOOTH",
"435 38 OFFCURVE",
"479 -18 OFFCURVE",
"565 -18 CURVE SMOOTH"
);
}
);
width = 977;
}
);
unicode = 0078;
},
{
glyphname = y;
layers = (
{
anchors = (
{
name = top;
position = "{676, 1119}";
}
);
layerId = master01;
paths = (
{
closed = 1;
nodes = (
"330 -440 OFFCURVE",
"906 533 OFFCURVE",
"906 821 CURVE SMOOTH",
"906 887 OFFCURVE",
"871 928 OFFCURVE",
"820 928 CURVE SMOOTH",
"769 928 OFFCURVE",
"732 887 OFFCURVE",
"732 828 CURVE SMOOTH",
"732 803 OFFCURVE",
"746 686 OFFCURVE",
"746 641 CURVE SMOOTH {name = hr01;}",
"746 511 OFFCURVE",
"641 260 OFFCURVE",
"497 81 CURVE",
"491 86 LINE",
"498 213 OFFCURVE",
"502 310 OFFCURVE",
"502 402 CURVE SMOOTH",
"502 834 OFFCURVE",
"466 928 OFFCURVE",
"346 928 CURVE SMOOTH",
"247 928 OFFCURVE",
"143 868 OFFCURVE",
"84 770 CURVE",
"117 744 LINE",
"165 808 OFFCURVE",
"201 839 OFFCURVE",
"232 839 CURVE SMOOTH",
"292 839 OFFCURVE",
"314 710 OFFCURVE",
"314 328 CURVE SMOOTH",
"314 -141 OFFCURVE",
"294 -172 OFFCURVE",
"217 -265 CURVE SMOOTH",
"170 -321 OFFCURVE",
"113 -354 OFFCURVE",
"70 -354 CURVE SMOOTH",
"-4 -354 OFFCURVE",
"7 -269 OFFCURVE",
"-81 -269 CURVE SMOOTH",
"-133 -269 OFFCURVE",
"-161 -297 OFFCURVE",
"-161 -342 CURVE SMOOTH",
"-161 -402 OFFCURVE",
"-98 -440 OFFCURVE",
"-12 -440 CURVE SMOOTH"
);
}
);
width = 938;
}
);
leftKerningGroup = y;
rightKerningGroup = y;
unicode = 0079;
},
{
glyphname = z;
layers = (
{
anchors = (
{
name = bottom;
position = "{269, 0}";
},
{
name = top;
position = "{663, 1119}";
}
);
layerId = master01;
paths = (
{
closed = 1;
nodes = (
"19 12 OFFCURVE",
"52 22 OFFCURVE",
"115 22 CURVE SMOOTH {name = hr02;}",
"240 22 OFFCURVE",
"361 -18 OFFCURVE",
"490 -18 CURVE SMOOTH",
"672 -18 OFFCURVE",
"791 62 OFFCURVE",
"791 183 CURVE SMOOTH",
"791 254 OFFCURVE",
"751 301 OFFCURVE",
"686 301 CURVE SMOOTH",
"638 301 OFFCURVE",
"605 273 OFFCURVE",
"605 232 CURVE SMOOTH {name = hr01;}",
"605 190 OFFCURVE",
"633 158 OFFCURVE",
"676 158 CURVE SMOOTH",
"701 158 OFFCURVE",
"715 170 OFFCURVE",
"729 196 CURVE",
"735 192 LINE",
"735 138 OFFCURVE",
"699 106 OFFCURVE",
"624 106 CURVE SMOOTH",
"520 106 OFFCURVE",
"376 163 OFFCURVE",
"192 163 CURVE",
"192 170 LINE",
"997 896 LINE",
"961 928 LINE",
"916 900 OFFCURVE",
"875 889 OFFCURVE",
"830 889 CURVE SMOOTH",
"746 889 OFFCURVE",
"545 928 OFFCURVE",
"419 928 CURVE SMOOTH",
"240 928 OFFCURVE",
"118 846 OFFCURVE",
"118 729 CURVE SMOOTH {name = hr05;}",
"118 646 OFFCURVE",
"179 584 OFFCURVE",
"254 584 CURVE SMOOTH",
"306 584 OFFCURVE",
"342 612 OFFCURVE",
"342 658 CURVE SMOOTH",
"342 705 OFFCURVE",
"316 737 OFFCURVE",
"273 737 CURVE SMOOTH",
"233 737 OFFCURVE",
"206 710 OFFCURVE",
"206 676 CURVE SMOOTH {name = hr04;}",
"206 656 OFFCURVE",
"219 643 OFFCURVE",
"237 633 CURVE",
"235 626 LINE",
"199 633 OFFCURVE",
"176 658 OFFCURVE",
"176 694 CURVE SMOOTH",
"176 751 OFFCURVE",
"222 784 OFFCURVE",
"314 784 CURVE SMOOTH",
"411 784 OFFCURVE",
"570 746 OFFCURVE",
"741 746 CURVE",
"744 739 LINE",
"-62 16 LINE",
"-22 -18 LINE {name = hr03;}"
);
}
);
width = 956;
}
);
leftKerningGroup = z;
rightKerningGroup = z;
unicode = 007A;
},
{
export = 0;
glyphname = f.fragment_dot;
layers = (
{
associatedMasterId = master01;
layerId = "802DC178-2968-4689-BA99-BD2290573E1B";
name = "Jan 8 19, 16:47";
paths = (
{
closed = 1;
nodes = (
"515 1014 LINE SMOOTH",
"598 1277 OFFCURVE",
"717 1380 OFFCURVE",
"830 1380 CURVE SMOOTH",
"882 1380 OFFCURVE",
"918 1357 OFFCURVE",
"918 1320 CURVE SMOOTH",
"918 1294 OFFCURVE",
"906 1273 OFFCURVE",
"906 1241 CURVE SMOOTH",
"906 1196 OFFCURVE",
"942 1165 OFFCURVE",
"986 1165 CURVE SMOOTH",
"1038 1165 OFFCURVE",
"1069 1198 OFFCURVE",
"1069 1248 CURVE SMOOTH",
"1069 1350 OFFCURVE",
"963 1427 OFFCURVE",
"839 1427 CURVE SMOOTH",
"647 1427 OFFCURVE",
"437 1327 OFFCURVE",
"341 1031 CURVE SMOOTH",
"87 246 LINE SMOOTH",
"-69 -235 OFFCURVE",
"-238 -380 OFFCURVE",
"-329 -380 CURVE SMOOTH",
"-420 -380 OFFCURVE",
"-371 -216 OFFCURVE",
"-487 -216 CURVE SMOOTH",
"-537 -216 OFFCURVE",
"-568 -253 OFFCURVE",
"-568 -304 CURVE SMOOTH",
"-568 -386 OFFCURVE",
"-502 -440 OFFCURVE",
"-380 -440 CURVE SMOOTH",
"-140 -440 OFFCURVE",
"112 -262 OFFCURVE",
"305 349 CURVE SMOOTH"
);
},
{
closed = 1;
nodes = (
"164 911 LINE",
"143 855 LINE",
"650 855 LINE",
"672 911 LINE"
);
}
);
width = 557;
},
{
associatedMasterId = master01;
layerId = "BAAEB8E4-1D37-4217-9235-A593962F46F4";
name = "Jan 8 19, 16:50";
paths = (
{
closed = 1;
nodes = (
"-160 -440 OFFCURVE",
"50 -199 OFFCURVE",
"285 349 CURVE SMOOTH",
"504 855 LINE",
"670 855 LINE",
"692 911 LINE {name = hr01;}",
"524 911 LINE",
"565 1014 LINE SMOOTH",
"669 1271 OFFCURVE",
"767 1380 OFFCURVE",
"880 1380 CURVE SMOOTH",
"932 1380 OFFCURVE",
"968 1357 OFFCURVE",
"968 1320 CURVE SMOOTH",
"968 1294 OFFCURVE",
"956 1273 OFFCURVE",
"956 1241 CURVE SMOOTH",
"956 1196 OFFCURVE",
"992 1165 OFFCURVE",
"1036 1165 CURVE SMOOTH",
"1088 1165 OFFCURVE",
"1119 1198 OFFCURVE",
"1119 1248 CURVE SMOOTH",
"1119 1350 OFFCURVE",
"1013 1427 OFFCURVE",
"889 1427 CURVE SMOOTH",
"706 1427 OFFCURVE",
"518 1318 OFFCURVE",
"391 1031 CURVE SMOOTH",
"337 911 LINE {name = hr02;}",
"184 911 LINE",
"163 855 LINE",
"314 855 LINE",
"67 246 LINE SMOOTH",
"-122 -222 OFFCURVE",
"-258 -380 OFFCURVE",
"-349 -380 CURVE SMOOTH",
"-440 -380 OFFCURVE",
"-391 -227 OFFCURVE",
"-507 -227 CURVE SMOOTH",
"-557 -227 OFFCURVE",
"-588 -253 OFFCURVE",
"-588 -297 CURVE SMOOTH",
"-588 -382 OFFCURVE",
"-516 -440 OFFCURVE",
"-400 -440 CURVE SMOOTH"
);
}
);
width = 557;
},
{
layerId = master01;
paths = (
{
closed = 1;
nodes = (
"164 911 LINE",
"143 855 LINE",
"320 855 LINE",
"342 911 LINE"
);
},
{
closed = 1;
nodes = (
"948 1375 OFFCURVE",
"1002 1353 OFFCURVE",
"1002 1320 CURVE SMOOTH",
"1002 1293 OFFCURVE",
"981 1277 OFFCURVE",
"981 1237 CURVE SMOOTH",
"981 1181 OFFCURVE",
"1024 1140 OFFCURVE",
"1081 1140 CURVE SMOOTH",
"1137 1140 OFFCURVE",
"1179 1183 OFFCURVE",
"1179 1244 CURVE SMOOTH",
"1179 1348 OFFCURVE",
"1042 1427 OFFCURVE",
"864 1427 CURVE SMOOTH {name = hr06;}",
"610 1427 OFFCURVE",
"426 1268 OFFCURVE",
"322 958 CURVE SMOOTH",
"83 246 LINE SMOOTH",
"-42 -125 OFFCURVE",
"-220 -382 OFFCURVE",
"-353 -382 CURVE SMOOTH",
"-444 -382 OFFCURVE",
"-391 -216 OFFCURVE",
"-507 -216 CURVE SMOOTH",
"-557 -216 OFFCURVE",
"-588 -253 OFFCURVE",
"-588 -304 CURVE SMOOTH",
"-588 -384 OFFCURVE",
"-521 -440 OFFCURVE",
"-400 -440 CURVE SMOOTH",
"-106 -440 OFFCURVE",
"127 -178 OFFCURVE",
"301 349 CURVE SMOOTH",
"502 958 LINE SMOOTH",
"597 1245 OFFCURVE",
"711 1375 OFFCURVE",
"868 1375 CURVE SMOOTH"
);
}
);
width = 546;
},
{
associatedMasterId = master01;
layerId = "CCA3CB14-3C2A-4D99-A472-E35F3E3F9C8D";
name = "Jan 9 19, 10:01";
paths = (
{
closed = 1;
nodes = (
"525 1014 LINE SMOOTH",
"616 1276 OFFCURVE",
"733 1380 OFFCURVE",
"850 1380 CURVE SMOOTH",
"929 1380 OFFCURVE",
"968 1357 OFFCURVE",
"968 1320 CURVE SMOOTH",
"968 1294 OFFCURVE",
"956 1273 OFFCURVE",
"956 1241 CURVE SMOOTH",
"956 1196 OFFCURVE",
"992 1165 OFFCURVE",
"1036 1165 CURVE SMOOTH",
"1088 1165 OFFCURVE",
"1119 1198 OFFCURVE",
"1119 1248 CURVE SMOOTH",
"1119 1350 OFFCURVE",
"1009 1427 OFFCURVE",
"859 1427 CURVE SMOOTH",
"663 1427 OFFCURVE",
"454 1326 OFFCURVE",
"351 1031 CURVE SMOOTH",
"87 246 LINE SMOOTH",
"-80 -231 OFFCURVE",
"-238 -380 OFFCURVE",
"-329 -380 CURVE SMOOTH",
"-420 -380 OFFCURVE",
"-371 -216 OFFCURVE",
"-487 -216 CURVE SMOOTH",
"-537 -216 OFFCURVE",
"-568 -253 OFFCURVE",
"-568 -304 CURVE SMOOTH",
"-568 -386 OFFCURVE",
"-502 -440 OFFCURVE",
"-380 -440 CURVE SMOOTH",
"-140 -440 OFFCURVE",
"96 -256 OFFCURVE",
"305 349 CURVE SMOOTH"
);
},
{
closed = 1;
nodes = (
"164 911 LINE",
"143 855 LINE",
"650 855 LINE",
"672 911 LINE"
);
}
);
width = 557;
},
{
associatedMasterId = master01;
layerId = "A5635FDE-0C26-47D4-8B33-E2D487EE4A39";
name = "Jan 9 19, 10:35";
paths = (
{
closed = 0;
nodes = (
"864 1427 LINE",
"610 1427 OFFCURVE",
"426 1268 OFFCURVE",
"322 958 CURVE SMOOTH",
"83 246 LINE SMOOTH",
"-42 -125 OFFCURVE",
"-220 -382 OFFCURVE",
"-353 -382 CURVE SMOOTH",
"-444 -382 OFFCURVE",
"-391 -216 OFFCURVE",
"-507 -216 CURVE SMOOTH",
"-557 -216 OFFCURVE",
"-588 -253 OFFCURVE",
"-588 -304 CURVE SMOOTH",
"-588 -384 OFFCURVE",
"-521 -440 OFFCURVE",
"-400 -440 CURVE SMOOTH",
"-106 -440 OFFCURVE",
"127 -178 OFFCURVE",
"301 349 CURVE SMOOTH",
"502 958 LINE SMOOTH",
"597 1245 OFFCURVE",
"711 1375 OFFCURVE",
"868 1375 CURVE SMOOTH"
);
},
{
closed = 1;
nodes = (
"164 911 LINE",
"143 855 LINE",
"650 855 LINE",
"672 911 LINE"
);
}
);
width = 557;
}
);
leftKerningGroup = f;
rightKerningGroup = f;
},
{
glyphname = c_p;
layers = (
{
anchors = (
{
name = caret_1;
position = "{697, 0}";
}
);
components = (
{
name = c;
}
);
layerId = master01;
paths = (
{
closed = 1;
nodes = (
"1016 -430 LINE",
"1016 -398 LINE",
"841 -378 LINE",
"1007 22 LINE",
"1033 19 OFFCURVE",
"1065 18 OFFCURVE",
"1095 18 CURVE SMOOTH",
"1434 18 OFFCURVE",
"1750 292 OFFCURVE",
"1750 588 CURVE SMOOTH",
"1750 778 OFFCURVE",
"1617 902 OFFCURVE",
"1384 928 CURVE",
"1477 1174 LINE",
"1502 1207 OFFCURVE",
"1515 1241 OFFCURVE",
"1515 1275 CURVE SMOOTH",
"1515 1316 OFFCURVE",
"1493 1341 OFFCURVE",
"1456 1341 CURVE SMOOTH",
"1407 1341 OFFCURVE",
"1380 1305 OFFCURVE",
"1380 1239 CURVE SMOOTH",
"1380 1174 LINE SMOOTH {name = hr00;}",
"1380 1167 OFFCURVE",
"1380 1160 OFFCURVE",
"1379 1153 CURVE",
"1344 1136 OFFCURVE",
"1300 1126 OFFCURVE",
"1255 1126 CURVE SMOOTH",
"1083 1126 OFFCURVE",
"954 1278 OFFCURVE",
"782 1278 CURVE SMOOTH",
"676 1278 OFFCURVE",
"610 1219 OFFCURVE",
"610 1121 CURVE SMOOTH",
"610 1026 OFFCURVE",
"670 938 OFFCURVE",
"782 866 CURVE",
"827 887 LINE",
"737 950 OFFCURVE",
"706 988 OFFCURVE",
"706 1049 CURVE SMOOTH",
"706 1124 OFFCURVE",
"760 1169 OFFCURVE",
"854 1169 CURVE SMOOTH",
"986 1169 OFFCURVE",
"1063 1074 OFFCURVE",
"1230 1074 CURVE SMOOTH",
"1278 1074 OFFCURVE",
"1323 1081 OFFCURVE",
"1363 1095 CURVE",
"1339 1038 OFFCURVE",
"1289 979 OFFCURVE",
"1214 916 CURVE",
"1135 902 OFFCURVE",
"1059 873 OFFCURVE",
"1000 835 CURVE",
"1014 801 LINE",
"1054 828 OFFCURVE",
"1113 849 OFFCURVE",
"1194 864 CURVE",
"662 -383 LINE",
"524 -404 LINE",
"524 -430 LINE"
);
},
{
closed = 1;
nodes = (
"1042 67 OFFCURVE",
"1036 67 OFFCURVE",
"1026 68 CURVE",
"1353 854 LINE SMOOTH",
"1357 868 OFFCURVE",
"1368 873 OFFCURVE",
"1394 873 CURVE SMOOTH",
"1502 873 OFFCURVE",
"1571 778 OFFCURVE",
"1571 629 CURVE SMOOTH",
"1571 344 OFFCURVE",
"1325 67 OFFCURVE",
"1070 67 CURVE SMOOTH"
);
}
);
width = 1837;
}
);
leftKerningGroup = c;
rightKerningGroup = p;
},
{
glyphname = c_t;
layers = (
{
anchors = (
{
name = caret_1;
position = "{691, 0}";
}
);
components = (
{
name = c;
}
);
layerId = master01;
paths = (
{
closed = 1;
nodes = (
"1079 -18 OFFCURVE",
"1201 62 OFFCURVE",
"1312 201 CURVE",
"1277 222 LINE",
"1185 125 OFFCURVE",
"1133 84 OFFCURVE",
"1099 84 CURVE SMOOTH",
"1072 84 OFFCURVE",
"1061 100 OFFCURVE",
"1061 125 CURVE SMOOTH",
"1061 149 OFFCURVE",
"1074 179 OFFCURVE",
"1222 524 CURVE SMOOTH",
"1363 855 LINE",
"1520 855 LINE",
"1538 911 LINE",
"1386 911 LINE",
"1477 1174 LINE",
"1502 1207 OFFCURVE",
"1515 1241 OFFCURVE",
"1515 1275 CURVE SMOOTH",
"1515 1316 OFFCURVE",
"1493 1341 OFFCURVE",
"1456 1341 CURVE SMOOTH",
"1407 1341 OFFCURVE",
"1380 1305 OFFCURVE",
"1380 1239 CURVE SMOOTH",
"1380 1174 LINE SMOOTH",
"1380 1167 OFFCURVE",
"1380 1160 OFFCURVE",
"1379 1153 CURVE",
"1344 1136 OFFCURVE",
"1300 1126 OFFCURVE",
"1255 1126 CURVE SMOOTH",
"1083 1126 OFFCURVE",
"954 1278 OFFCURVE",
"782 1278 CURVE SMOOTH",
"676 1278 OFFCURVE",
"610 1219 OFFCURVE",
"610 1121 CURVE SMOOTH",
"610 1026 OFFCURVE",
"670 938 OFFCURVE",
"782 866 CURVE",
"827 887 LINE",
"737 950 OFFCURVE",
"706 988 OFFCURVE",
"706 1049 CURVE SMOOTH",
"706 1124 OFFCURVE",
"760 1169 OFFCURVE",
"854 1169 CURVE SMOOTH",
"986 1169 OFFCURVE",
"1063 1074 OFFCURVE",
"1230 1074 CURVE SMOOTH",
"1278 1074 OFFCURVE",
"1323 1081 OFFCURVE",
"1363 1095 CURVE",
"1337 1036 OFFCURVE",
"1285 975 OFFCURVE",
"1212 911 CURVE",
"1063 911 LINE",
"1045 855 LINE {name = hr00;}",
"1186 855 LINE",
"1007 438 LINE SMOOTH",
"904 197 OFFCURVE",
"889 140 OFFCURVE",
"889 91 CURVE SMOOTH",
"889 16 OFFCURVE",
"911 -18 OFFCURVE",
"979 -18 CURVE SMOOTH"
);
}
);
width = 1454;
}
);
leftKerningGroup = c;
rightKerningGroup = t;
},
{
glyphname = e_t;
layers = (
{
anchors = (
{
name = caret_1;
position = "{652, 0}";
}
);
components = (
{
name = e;
}
);
layerId = master01;
paths = (
{
closed = 1;
nodes = (
"1067 -18 OFFCURVE",
"1189 62 OFFCURVE",
"1300 201 CURVE",
"1265 222 LINE",
"1172 125 OFFCURVE",
"1121 84 OFFCURVE",
"1086 84 CURVE SMOOTH",
"1061 84 OFFCURVE",
"1049 100 OFFCURVE",
"1049 125 CURVE SMOOTH",
"1049 149 OFFCURVE",
"1063 179 OFFCURVE",
"1210 524 CURVE SMOOTH",
"1351 855 LINE",
"1508 855 LINE",
"1526 911 LINE",
"1373 911 LINE",
"1465 1174 LINE",
"1490 1207 OFFCURVE",
"1502 1241 OFFCURVE",
"1502 1275 CURVE SMOOTH",
"1502 1316 OFFCURVE",
"1481 1341 OFFCURVE",
"1443 1341 CURVE SMOOTH",
"1396 1341 OFFCURVE",
"1368 1305 OFFCURVE",
"1368 1239 CURVE SMOOTH",
"1368 1174 LINE SMOOTH",
"1368 1167 OFFCURVE",
"1368 1160 OFFCURVE",
"1366 1153 CURVE",
"1332 1136 OFFCURVE",
"1287 1126 OFFCURVE",
"1242 1126 CURVE SMOOTH",
"1070 1126 OFFCURVE",
"941 1278 OFFCURVE",
"770 1278 CURVE SMOOTH",
"663 1278 OFFCURVE",
"598 1219 OFFCURVE",
"598 1121 CURVE SMOOTH",
"598 1026 OFFCURVE",
"658 938 OFFCURVE",
"770 866 CURVE",
"814 887 LINE",
"726 950 OFFCURVE",
"694 988 OFFCURVE",
"694 1049 CURVE SMOOTH",
"694 1126 OFFCURVE",
"746 1169 OFFCURVE",
"842 1169 CURVE SMOOTH",
"975 1169 OFFCURVE",
"1052 1074 OFFCURVE",
"1219 1074 CURVE SMOOTH",
"1267 1074 OFFCURVE",
"1312 1081 OFFCURVE",
"1351 1095 CURVE",
"1325 1036 OFFCURVE",
"1273 975 OFFCURVE",
"1199 911 CURVE",
"1052 911 LINE",
"1033 855 LINE",
"1174 855 LINE",
"995 438 LINE SMOOTH",
"892 197 OFFCURVE",
"877 140 OFFCURVE",
"877 91 CURVE SMOOTH",
"877 16 OFFCURVE",
"898 -18 OFFCURVE",
"968 -18 CURVE SMOOTH"
);
}
);
width = 1442;
}
);
leftKerningGroup = e;
rightKerningGroup = t;
},
{
glyphname = f_b;
layers = (
{
anchors = (
{
name = caret_1;
position = "{420, 0}";
}
);
components = (
{
name = f.fragment_1;
},
{
name = b.fragment_1;
transform = "{1, 0, 0, 1, 557, 0}";
}
);
layerId = master01;
width = 1545;
},
{
anchors = (
{
name = caret_1;
position = "{420, 0}";
}
);
associatedMasterId = master01;
layerId = "A61C7833-E018-4411-8F06-E0A1C57A7237";
name = "Jan 9 19, 10:08";
paths = (
{
closed = 1;
nodes = (
"-160 -440 OFFCURVE",
"50 -197 OFFCURVE",
"285 349 CURVE SMOOTH",
"504 855 LINE",
"670 855 LINE",
"692 911 LINE",
"524 911 LINE {name = hr01;}",
"565 1014 LINE SMOOTH",
"667 1271 OFFCURVE",
"762 1380 OFFCURVE",
"880 1380 CURVE SMOOTH",
"956 1380 OFFCURVE",
"988 1336 OFFCURVE",
"988 1232 CURVE SMOOTH",
"988 1183 OFFCURVE",
"983 1151 OFFCURVE",
"959 1092 CURVE SMOOTH",
"688 428 LINE SMOOTH",
"656 353 OFFCURVE",
"641 283 OFFCURVE",
"641 226 CURVE SMOOTH",
"641 74 OFFCURVE",
"727 -18 OFFCURVE",
"887 -18 CURVE SMOOTH",
"1191 -18 OFFCURVE",
"1497 332 OFFCURVE",
"1497 663 CURVE SMOOTH",
"1497 834 OFFCURVE",
"1413 928 OFFCURVE",
"1284 928 CURVE SMOOTH",
"1196 928 OFFCURVE",
"1102 880 OFFCURVE",
"1024 794 CURVE",
"1016 794 LINE",
"1265 1402 LINE",
"1258 1409 LINE",
"1070 1357 LINE",
"1027 1399 OFFCURVE",
"957 1427 OFFCURVE",
"877 1427 CURVE SMOOTH",
"679 1427 OFFCURVE",
"500 1280 OFFCURVE",
"391 1031 CURVE SMOOTH",
"337 911 LINE",
"184 911 LINE",
"163 855 LINE",
"314 855 LINE",
"67 246 LINE SMOOTH",
"-100 -167 OFFCURVE",
"-242 -380 OFFCURVE",
"-349 -380 CURVE SMOOTH {name = hr02;}",
"-440 -380 OFFCURVE",
"-389 -227 OFFCURVE",
"-509 -227 CURVE SMOOTH",
"-561 -227 OFFCURVE",
"-588 -254 OFFCURVE",
"-588 -303 CURVE SMOOTH",
"-588 -383 OFFCURVE",
"-511 -440 OFFCURVE",
"-397 -440 CURVE SMOOTH"
);
},
{
closed = 1;
nodes = (
"820 43 OFFCURVE",
"782 81 OFFCURVE",
"782 141 CURVE SMOOTH",
"782 246 OFFCURVE",
"859 435 OFFCURVE",
"907 533 CURVE SMOOTH",
"997 720 OFFCURVE",
"1146 868 OFFCURVE",
"1241 868 CURVE SMOOTH {name = hr03;}",
"1296 868 OFFCURVE",
"1330 806 OFFCURVE",
"1330 715 CURVE SMOOTH",
"1330 462 OFFCURVE",
"1047 43 OFFCURVE",
"873 43 CURVE SMOOTH"
);
}
);
width = 1571;
},
{
anchors = (
{
name = caret_1;
position = "{420, 0}";
}
);
associatedMasterId = master01;
layerId = "0E1AE87F-0302-459A-B059-222DC8C0343B";
name = "Jan 9 19, 10:33";
paths = (
{
closed = 1;
nodes = (
"820 43 OFFCURVE",
"782 81 OFFCURVE",
"782 141 CURVE SMOOTH",
"782 246 OFFCURVE",
"859 435 OFFCURVE",
"907 533 CURVE SMOOTH",
"997 720 OFFCURVE",
"1146 868 OFFCURVE",
"1241 868 CURVE SMOOTH {name = hr03;}",
"1296 868 OFFCURVE",
"1330 806 OFFCURVE",
"1330 715 CURVE SMOOTH",
"1330 462 OFFCURVE",
"1047 43 OFFCURVE",
"873 43 CURVE SMOOTH"
);
},
{
closed = 1;
nodes = (
"610 1427 OFFCURVE",
"426 1268 OFFCURVE",
"322 958 CURVE SMOOTH",
"83 246 LINE SMOOTH",
"-42 -125 OFFCURVE",
"-220 -382 OFFCURVE",
"-353 -382 CURVE SMOOTH",
"-444 -382 OFFCURVE",
"-391 -216 OFFCURVE",
"-507 -216 CURVE SMOOTH",
"-557 -216 OFFCURVE",
"-588 -253 OFFCURVE",
"-588 -304 CURVE SMOOTH",
"-588 -384 OFFCURVE",
"-521 -440 OFFCURVE",
"-400 -440 CURVE SMOOTH",
"-106 -440 OFFCURVE",
"127 -178 OFFCURVE",
"301 349 CURVE SMOOTH",
"502 958 LINE SMOOTH",
"597 1245 OFFCURVE",
"711 1375 OFFCURVE",
"868 1375 CURVE SMOOTH",
"1001 1375 OFFCURVE",
"1016 1232 OFFCURVE",
"959 1092 CURVE SMOOTH",
"688 428 LINE SMOOTH",
"657 353 OFFCURVE",
"641 283 OFFCURVE",
"641 226 CURVE SMOOTH",
"641 74 OFFCURVE",
"727 -18 OFFCURVE",
"887 -18 CURVE SMOOTH",
"1191 -18 OFFCURVE",
"1497 332 OFFCURVE",
"1497 663 CURVE SMOOTH",
"1497 834 OFFCURVE",
"1413 928 OFFCURVE",
"1284 928 CURVE SMOOTH",
"1196 928 OFFCURVE",
"1102 880 OFFCURVE",
"1024 794 CURVE",
"1016 794 LINE",
"1265 1402 LINE",
"1258 1409 LINE",
"1070 1357 LINE",
"1025 1399 OFFCURVE",
"949 1427 OFFCURVE",
"864 1427 CURVE SMOOTH"
);
},
{
closed = 1;
nodes = (
"164 911 LINE",
"143 855 LINE",
"650 855 LINE",
"672 911 LINE"
);
}
);
width = 1571;
},
{
anchors = (
{
name = caret_1;
position = "{420, 0}";
}
);
associatedMasterId = master01;
layerId = "7B122A30-B168-4F1F-87A8-161C9C82C0D5";
name = "Jan 9 19, 10:37";
paths = (
{
closed = 1;
nodes = (
"820 43 OFFCURVE",
"782 81 OFFCURVE",
"782 141 CURVE SMOOTH",
"782 246 OFFCURVE",
"859 435 OFFCURVE",
"907 533 CURVE SMOOTH",
"997 720 OFFCURVE",
"1146 868 OFFCURVE",
"1241 868 CURVE SMOOTH {name = hr03;}",
"1296 868 OFFCURVE",
"1330 806 OFFCURVE",
"1330 715 CURVE SMOOTH",
"1330 462 OFFCURVE",
"1047 43 OFFCURVE",
"873 43 CURVE SMOOTH"
);
},
{
closed = 1;
nodes = (
"1146 1298 LINE",
"1079 1374 OFFCURVE",
"994 1427 OFFCURVE",
"864 1427 CURVE SMOOTH",
"610 1427 OFFCURVE",
"426 1268 OFFCURVE",
"322 958 CURVE SMOOTH",
"83 246 LINE SMOOTH",
"-42 -125 OFFCURVE",
"-220 -382 OFFCURVE",
"-353 -382 CURVE SMOOTH",
"-444 -382 OFFCURVE",
"-391 -216 OFFCURVE",
"-507 -216 CURVE SMOOTH",
"-557 -216 OFFCURVE",
"-588 -253 OFFCURVE",
"-588 -304 CURVE SMOOTH",
"-588 -384 OFFCURVE",
"-521 -440 OFFCURVE",
"-400 -440 CURVE SMOOTH",
"-106 -440 OFFCURVE",
"127 -178 OFFCURVE",
"301 349 CURVE SMOOTH",
"502 958 LINE SMOOTH",
"597 1245 OFFCURVE",
"711 1375 OFFCURVE",
"868 1375 CURVE SMOOTH",
"967 1375 OFFCURVE",
"1017 1294 OFFCURVE",
"1016 1168 CURVE"
);
},
{
closed = 1;
nodes = (
"164 911 LINE",
"143 855 LINE",
"650 855 LINE",
"672 911 LINE"
);
},
{
closed = 1;
nodes = (
"1035 1279 LINE",
"688 428 LINE SMOOTH",
"657 353 OFFCURVE",
"641 283 OFFCURVE",
"641 226 CURVE SMOOTH",
"641 74 OFFCURVE",
"727 -18 OFFCURVE",
"887 -18 CURVE SMOOTH",
"1191 -18 OFFCURVE",
"1497 332 OFFCURVE",
"1497 663 CURVE SMOOTH",
"1497 834 OFFCURVE",
"1413 928 OFFCURVE",
"1284 928 CURVE SMOOTH",
"1196 928 OFFCURVE",
"1102 880 OFFCURVE",
"1024 794 CURVE",
"1016 794 LINE",
"1265 1402 LINE",
"1258 1409 LINE",
"1021 1348 LINE"
);
}
);
width = 1571;
}
);
leftKerningGroup = f;
rightKerningGroup = b;
},
{
glyphname = f_f;
layers = (
{
anchors = (
{
name = caret_1;
position = "{386, 0}";
}
);
components = (
{
name = f.fragment_2;
}
);
layerId = master01;
paths = (
{
closed = 1;
nodes = (
"1077 958 LINE SMOOTH",
"1172 1245 OFFCURVE",
"1286 1375 OFFCURVE",
"1443 1375 CURVE SMOOTH",
"1507 1375 OFFCURVE",
"1543 1355 OFFCURVE",
"1543 1320 CURVE SMOOTH",
"1543 1294 OFFCURVE",
"1531 1273 OFFCURVE",
"1531 1241 CURVE SMOOTH",
"1531 1196 OFFCURVE",
"1567 1165 OFFCURVE",
"1611 1165 CURVE SMOOTH",
"1663 1165 OFFCURVE",
"1694 1198 OFFCURVE",
"1694 1248 CURVE SMOOTH",
"1694 1352 OFFCURVE",
"1587 1427 OFFCURVE",
"1439 1427 CURVE SMOOTH",
"1185 1427 OFFCURVE",
"1001 1268 OFFCURVE",
"897 958 CURVE SMOOTH",
"658 246 LINE SMOOTH",
"535 -120 OFFCURVE",
"397 -382 OFFCURVE",
"282 -382 CURVE SMOOTH",
"193 -382 OFFCURVE",
"248 -216 OFFCURVE",
"132 -216 CURVE SMOOTH",
"82 -216 OFFCURVE",
"51 -253 OFFCURVE",
"51 -304 CURVE SMOOTH",
"51 -384 OFFCURVE",
"117 -440 OFFCURVE",
"235 -440 CURVE SMOOTH",
"504 -440 OFFCURVE",
"703 -174 OFFCURVE",
"876 349 CURVE SMOOTH"
);
}
);
width = 1132;
},
{
anchors = (
{
name = caret_1;
position = "{386, 0}";
}
);
associatedMasterId = master01;
layerId = "CAFD1E02-7EA4-417F-972D-2239061956CF";
name = "Jan 9 19, 10:10";
paths = (
{
closed = 1;
nodes = (
"-160 -440 OFFCURVE",
"50 -197 OFFCURVE",
"285 349 CURVE SMOOTH",
"504 855 LINE",
"907 855 LINE",
"660 246 LINE SMOOTH",
"484 -189 OFFCURVE",
"368 -380 OFFCURVE",
"278 -380 CURVE SMOOTH",
"196 -380 OFFCURVE",
"233 -219 OFFCURVE",
"136 -219 CURVE SMOOTH",
"90 -219 OFFCURVE",
"57 -253 OFFCURVE",
"57 -303 CURVE SMOOTH {name = hr03;}",
"57 -385 OFFCURVE",
"127 -440 OFFCURVE",
"230 -440 CURVE SMOOTH",
"447 -440 OFFCURVE",
"636 -211 OFFCURVE",
"878 349 CURVE SMOOTH",
"1097 855 LINE",
"1264 855 LINE",
"1285 911 LINE",
"1117 911 LINE",
"1158 1014 LINE SMOOTH",
"1262 1271 OFFCURVE",
"1350 1380 OFFCURVE",
"1457 1380 CURVE SMOOTH {name = hr02;}",
"1509 1380 OFFCURVE",
"1543 1356 OFFCURVE",
"1543 1318 CURVE SMOOTH",
"1543 1296 OFFCURVE",
"1531 1271 OFFCURVE",
"1531 1242 CURVE SMOOTH",
"1531 1198 OFFCURVE",
"1565 1165 OFFCURVE",
"1615 1165 CURVE SMOOTH",
"1664 1165 OFFCURVE",
"1694 1198 OFFCURVE",
"1694 1251 CURVE SMOOTH",
"1694 1350 OFFCURVE",
"1590 1427 OFFCURVE",
"1457 1427 CURVE SMOOTH {name = hr01;}",
"1337 1427 OFFCURVE",
"1208 1361 OFFCURVE",
"1119 1264 CURVE",
"1067 1310 OFFCURVE",
"981 1341 OFFCURVE",
"885 1341 CURVE SMOOTH",
"667 1341 OFFCURVE",
"464 1191 OFFCURVE",
"353 945 CURVE SMOOTH",
"337 911 LINE",
"184 911 LINE",
"163 855 LINE",
"314 855 LINE",
"67 246 LINE SMOOTH",
"-100 -165 OFFCURVE",
"-242 -380 OFFCURVE",
"-349 -380 CURVE SMOOTH {name = hr05;}",
"-440 -380 OFFCURVE",
"-389 -227 OFFCURVE",
"-509 -227 CURVE SMOOTH {name = hr04;}",
"-561 -227 OFFCURVE",
"-588 -254 OFFCURVE",
"-588 -303 CURVE SMOOTH",
"-588 -383 OFFCURVE",
"-511 -440 OFFCURVE",
"-397 -440 CURVE SMOOTH"
);
},
{
closed = 1;
nodes = (
"531 928 LINE SMOOTH",
"633 1172 OFFCURVE",
"751 1291 OFFCURVE",
"897 1291 CURVE SMOOTH",
"990 1291 OFFCURVE",
"1033 1242 OFFCURVE",
"1033 1136 CURVE",
"930 911 LINE",
"524 911 LINE"
);
}
);
width = 1149;
},
{
anchors = (
{
name = caret_1;
position = "{386, 0}";
}
);
associatedMasterId = master01;
layerId = "B55A66C5-D512-4F98-A891-ADAE2842C2B8";
name = "Jan 9 19, 10:22";
paths = (
{
closed = 1;
nodes = (
"1094 1014 LINE SMOOTH",
"1177 1258 OFFCURVE",
"1294 1380 OFFCURVE",
"1434 1380 CURVE SMOOTH",
"1504 1380 OFFCURVE",
"1543 1357 OFFCURVE",
"1543 1320 CURVE SMOOTH",
"1543 1294 OFFCURVE",
"1531 1273 OFFCURVE",
"1531 1241 CURVE SMOOTH",
"1531 1196 OFFCURVE",
"1567 1165 OFFCURVE",
"1611 1165 CURVE SMOOTH",
"1663 1165 OFFCURVE",
"1694 1198 OFFCURVE",
"1694 1248 CURVE SMOOTH",
"1694 1350 OFFCURVE",
"1584 1427 OFFCURVE",
"1434 1427 CURVE SMOOTH",
"1194 1427 OFFCURVE",
"1008 1286 OFFCURVE",
"920 1031 CURVE SMOOTH",
"650 246 LINE SMOOTH",
"521 -129 OFFCURVE",
"392 -380 OFFCURVE",
"286 -380 CURVE SMOOTH",
"195 -380 OFFCURVE",
"244 -216 OFFCURVE",
"128 -216 CURVE SMOOTH",
"78 -216 OFFCURVE",
"47 -253 OFFCURVE",
"47 -304 CURVE SMOOTH",
"47 -384 OFFCURVE",
"114 -440 OFFCURVE",
"235 -440 CURVE SMOOTH",
"494 -440 OFFCURVE",
"689 -177 OFFCURVE",
"868 349 CURVE SMOOTH"
);
},
{
closed = 1;
nodes = (
"582 1341 OFFCURVE",
"402 1208 OFFCURVE",
"313 945 CURVE SMOOTH",
"75 246 LINE SMOOTH",
"-55 -133 OFFCURVE",
"-211 -380 OFFCURVE",
"-329 -380 CURVE SMOOTH",
"-420 -380 OFFCURVE",
"-371 -216 OFFCURVE",
"-487 -216 CURVE SMOOTH",
"-537 -216 OFFCURVE",
"-568 -253 OFFCURVE",
"-568 -304 CURVE SMOOTH",
"-568 -384 OFFCURVE",
"-501 -440 OFFCURVE",
"-380 -440 CURVE SMOOTH",
"-105 -440 OFFCURVE",
"113 -180 OFFCURVE",
"293 349 CURVE SMOOTH",
"491 944 LINE SMOOTH",
"566 1167 OFFCURVE",
"686 1291 OFFCURVE",
"827 1291 CURVE SMOOTH",
"946 1291 OFFCURVE",
"989 1249 OFFCURVE",
"995 1126 CURVE",
"1108 1261 LINE",
"1049 1315 OFFCURVE",
"964 1341 OFFCURVE",
"847 1341 CURVE SMOOTH"
);
},
{
closed = 1;
nodes = (
"164 911 LINE",
"143 855 LINE",
"1225 855 LINE",
"1247 911 LINE"
);
}
);
width = 1132;
},
{
anchors = (
{
name = caret_1;
position = "{386, 0}";
}
);
associatedMasterId = master01;
layerId = "E9EAE501-9539-4DB9-98CD-381C0942AA7F";
name = "Jan 9 19, 10:42";
paths = (
{
closed = 1;
nodes = (
"164 911 LINE",
"143 855 LINE",
"1225 855 LINE",
"1247 911 LINE"
);
},
{
closed = 1;
nodes = (
"938 1291 OFFCURVE",
"989 1239 OFFCURVE",
"995 1126 CURVE",
"1108 1261 LINE",
"1049 1315 OFFCURVE",
"964 1341 OFFCURVE",
"847 1341 CURVE SMOOTH",
"601 1341 OFFCURVE",
"409 1216 OFFCURVE",
"299 889 CURVE SMOOTH",
"83 246 LINE SMOOTH",
"-42 -125 OFFCURVE",
"-220 -382 OFFCURVE",
"-353 -382 CURVE SMOOTH",
"-444 -382 OFFCURVE",
"-391 -216 OFFCURVE",
"-507 -216 CURVE SMOOTH",
"-557 -216 OFFCURVE",
"-588 -253 OFFCURVE",
"-588 -304 CURVE SMOOTH",
"-588 -384 OFFCURVE",
"-521 -440 OFFCURVE",
"-400 -440 CURVE SMOOTH",
"-106 -440 OFFCURVE",
"127 -178 OFFCURVE",
"301 349 CURVE SMOOTH",
"479 889 LINE SMOOTH",
"579 1190 OFFCURVE",
"687 1291 OFFCURVE",
"832 1291 CURVE SMOOTH"
);
},
{
closed = 1;
nodes = (
"1077 958 LINE SMOOTH",
"1172 1245 OFFCURVE",
"1286 1375 OFFCURVE",
"1443 1375 CURVE SMOOTH",
"1507 1375 OFFCURVE",
"1543 1355 OFFCURVE",
"1543 1320 CURVE SMOOTH",
"1543 1294 OFFCURVE",
"1531 1273 OFFCURVE",
"1531 1241 CURVE SMOOTH",
"1531 1196 OFFCURVE",
"1567 1165 OFFCURVE",
"1611 1165 CURVE SMOOTH",
"1663 1165 OFFCURVE",
"1694 1198 OFFCURVE",
"1694 1248 CURVE SMOOTH",
"1694 1352 OFFCURVE",
"1587 1427 OFFCURVE",
"1439 1427 CURVE SMOOTH",
"1185 1427 OFFCURVE",
"1001 1268 OFFCURVE",
"897 958 CURVE SMOOTH",
"658 246 LINE SMOOTH",
"535 -120 OFFCURVE",
"397 -382 OFFCURVE",
"282 -382 CURVE SMOOTH",
"193 -382 OFFCURVE",
"248 -216 OFFCURVE",
"132 -216 CURVE SMOOTH",
"82 -216 OFFCURVE",
"51 -253 OFFCURVE",
"51 -304 CURVE SMOOTH",
"51 -384 OFFCURVE",
"117 -440 OFFCURVE",
"235 -440 CURVE SMOOTH",
"504 -440 OFFCURVE",
"703 -174 OFFCURVE",
"876 349 CURVE SMOOTH"
);
}
);
width = 1132;
}
);
leftKerningGroup = f;
leftMetricsKey = f;
rightKerningGroup = f;
},
{
glyphname = f_f_b;
layers = (
{
anchors = (
{
name = caret_1;
position = "{359, 0}";
},
{
name = caret_2;
position = "{972, 0}";
}
);
components = (
{
name = f.fragment_3;
},
{
name = b.fragment_1;
transform = "{1, 0, 0, 1, 1133, 0}";
}
);
layerId = master01;
width = 2121;
},
{
anchors = (
{
name = caret_1;
position = "{396, 0}";
},
{
name = caret_2;
position = "{990, 0}";
}
);
associatedMasterId = master01;
layerId = "A414294E-5182-49AD-8236-C77A9C905157";
name = "Jan 9 19, 10:27";
paths = (
{
closed = 1;
nodes = (
"-160 -440 OFFCURVE",
"50 -197 OFFCURVE",
"285 349 CURVE SMOOTH",
"504 855 LINE",
"907 855 LINE",
"660 246 LINE SMOOTH",
"493 -167 OFFCURVE",
"351 -380 OFFCURVE",
"244 -380 CURVE SMOOTH {name = hr02;}",
"153 -380 OFFCURVE",
"204 -227 OFFCURVE",
"84 -227 CURVE SMOOTH",
"32 -227 OFFCURVE",
"5 -254 OFFCURVE",
"5 -303 CURVE SMOOTH",
"5 -383 OFFCURVE",
"82 -440 OFFCURVE",
"196 -440 CURVE SMOOTH",
"434 -440 OFFCURVE",
"643 -197 OFFCURVE",
"878 349 CURVE SMOOTH",
"1097 855 LINE",
"1264 855 LINE",
"1285 911 LINE",
"1117 911 LINE {name = hr01;}",
"1158 1014 LINE SMOOTH",
"1260 1271 OFFCURVE",
"1354 1380 OFFCURVE",
"1473 1380 CURVE SMOOTH",
"1549 1380 OFFCURVE",
"1581 1336 OFFCURVE",
"1581 1232 CURVE SMOOTH",
"1581 1183 OFFCURVE",
"1576 1151 OFFCURVE",
"1552 1092 CURVE SMOOTH",
"1280 428 LINE SMOOTH",
"1250 353 OFFCURVE",
"1234 283 OFFCURVE",
"1234 226 CURVE SMOOTH",
"1234 74 OFFCURVE",
"1320 -18 OFFCURVE",
"1479 -18 CURVE SMOOTH",
"1784 -18 OFFCURVE",
"2090 332 OFFCURVE",
"2090 663 CURVE SMOOTH",
"2090 834 OFFCURVE",
"2006 928 OFFCURVE",
"1877 928 CURVE SMOOTH",
"1789 928 OFFCURVE",
"1694 880 OFFCURVE",
"1617 794 CURVE",
"1608 794 LINE",
"1858 1402 LINE",
"1852 1409 LINE",
"1664 1357 LINE",
"1621 1399 OFFCURVE",
"1551 1427 OFFCURVE",
"1470 1427 CURVE SMOOTH",
"1343 1427 OFFCURVE",
"1224 1366 OFFCURVE",
"1126 1258 CURVE",
"1074 1308 OFFCURVE",
"986 1341 OFFCURVE",
"885 1341 CURVE SMOOTH",
"667 1341 OFFCURVE",
"464 1191 OFFCURVE",
"353 945 CURVE SMOOTH",
"337 911 LINE",
"184 911 LINE",
"163 855 LINE",
"314 855 LINE",
"67 246 LINE SMOOTH",
"-100 -165 OFFCURVE",
"-242 -380 OFFCURVE",
"-349 -380 CURVE SMOOTH {name = hr04;}",
"-440 -380 OFFCURVE",
"-389 -227 OFFCURVE",
"-509 -227 CURVE SMOOTH {name = hr03;}",
"-561 -227 OFFCURVE",
"-588 -254 OFFCURVE",
"-588 -303 CURVE SMOOTH",
"-588 -383 OFFCURVE",
"-511 -440 OFFCURVE",
"-397 -440 CURVE SMOOTH"
);
},
{
closed = 1;
nodes = (
"531 928 LINE SMOOTH",
"633 1172 OFFCURVE",
"751 1291 OFFCURVE",
"897 1291 CURVE SMOOTH",
"990 1291 OFFCURVE",
"1033 1235 OFFCURVE",
"1033 1129 CURVE",
"1014 1099 OFFCURVE",
"999 1065 OFFCURVE",
"983 1031 CURVE SMOOTH",
"930 911 LINE",
"524 911 LINE {name = hr06;}"
);
},
{
closed = 1;
nodes = (
"1413 43 OFFCURVE",
"1375 81 OFFCURVE",
"1375 141 CURVE SMOOTH",
"1375 246 OFFCURVE",
"1452 435 OFFCURVE",
"1500 533 CURVE SMOOTH",
"1590 720 OFFCURVE",
"1739 868 OFFCURVE",
"1834 868 CURVE SMOOTH {name = hr05;}",
"1889 868 OFFCURVE",
"1923 806 OFFCURVE",
"1923 715 CURVE SMOOTH",
"1923 462 OFFCURVE",
"1640 43 OFFCURVE",
"1466 43 CURVE SMOOTH"
);
}
);
width = 2164;
},
{
anchors = (
{
name = caret_1;
position = "{359, 0}";
},
{
name = caret_2;
position = "{972, 0}";
}
);
associatedMasterId = master01;
layerId = "29F34376-7E86-4010-9514-A044BFFB1BFA";
name = "Jan 9 19, 10:41";
paths = (
{
closed = 1;
nodes = (
"1395 43 OFFCURVE",
"1357 81 OFFCURVE",
"1357 141 CURVE SMOOTH",
"1357 246 OFFCURVE",
"1434 435 OFFCURVE",
"1482 533 CURVE SMOOTH",
"1573 719 OFFCURVE",
"1721 868 OFFCURVE",
"1816 868 CURVE SMOOTH {name = hr03;}",
"1871 868 OFFCURVE",
"1905 806 OFFCURVE",
"1905 715 CURVE SMOOTH",
"1905 462 OFFCURVE",
"1622 43 OFFCURVE",
"1448 43 CURVE SMOOTH"
);
},
{
closed = 1;
nodes = (
"164 911 LINE",
"143 855 LINE",
"1225 855 LINE",
"1247 911 LINE"
);
},
{
closed = 1;
nodes = (
"938 1291 OFFCURVE",
"989 1239 OFFCURVE",
"995 1126 CURVE",
"1108 1261 LINE",
"1049 1315 OFFCURVE",
"964 1341 OFFCURVE",
"847 1341 CURVE SMOOTH",
"601 1341 OFFCURVE",
"409 1216 OFFCURVE",
"299 889 CURVE SMOOTH",
"83 246 LINE SMOOTH",
"-42 -125 OFFCURVE",
"-220 -382 OFFCURVE",
"-353 -382 CURVE SMOOTH",
"-444 -382 OFFCURVE",
"-391 -216 OFFCURVE",
"-507 -216 CURVE SMOOTH",
"-557 -216 OFFCURVE",
"-588 -253 OFFCURVE",
"-588 -304 CURVE SMOOTH",
"-588 -384 OFFCURVE",
"-521 -440 OFFCURVE",
"-400 -440 CURVE SMOOTH",
"-106 -440 OFFCURVE",
"127 -178 OFFCURVE",
"301 349 CURVE SMOOTH",
"479 889 LINE SMOOTH",
"578 1190 OFFCURVE",
"687 1291 OFFCURVE",
"832 1291 CURVE SMOOTH"
);
},
{
closed = 1;
nodes = (
"1185 1427 OFFCURVE",
"1001 1268 OFFCURVE",
"897 958 CURVE SMOOTH",
"658 246 LINE SMOOTH",
"535 -120 OFFCURVE",
"397 -382 OFFCURVE",
"282 -382 CURVE SMOOTH",
"193 -382 OFFCURVE",
"248 -216 OFFCURVE",
"132 -216 CURVE SMOOTH",
"82 -216 OFFCURVE",
"51 -253 OFFCURVE",
"51 -304 CURVE SMOOTH",
"51 -384 OFFCURVE",
"117 -440 OFFCURVE",
"235 -440 CURVE SMOOTH",
"504 -440 OFFCURVE",
"703 -174 OFFCURVE",
"876 349 CURVE SMOOTH",
"1077 958 LINE SMOOTH",
"1172 1245 OFFCURVE",
"1286 1375 OFFCURVE",
"1443 1375 CURVE SMOOTH",
"1576 1375 OFFCURVE",
"1591 1232 OFFCURVE",
"1534 1092 CURVE SMOOTH",
"1263 428 LINE SMOOTH",
"1232 353 OFFCURVE",
"1216 283 OFFCURVE",
"1216 226 CURVE SMOOTH",
"1216 74 OFFCURVE",
"1302 -18 OFFCURVE",
"1462 -18 CURVE SMOOTH",
"1766 -18 OFFCURVE",
"2072 332 OFFCURVE",
"2072 663 CURVE SMOOTH",
"2072 834 OFFCURVE",
"1988 928 OFFCURVE",
"1859 928 CURVE SMOOTH",
"1771 928 OFFCURVE",
"1677 880 OFFCURVE",
"1599 794 CURVE",
"1591 794 LINE",
"1840 1402 LINE",
"1833 1409 LINE",
"1645 1357 LINE",
"1600 1399 OFFCURVE",
"1524 1427 OFFCURVE",
"1439 1427 CURVE SMOOTH"
);
}
);
width = 2146;
}
);
leftKerningGroup = f;
rightKerningGroup = b;
},
{
glyphname = f_f_h;
layers = (
{
anchors = (
{
name = caret_1;
position = "{391, 0}";
},
{
name = caret_2;
position = "{955, 0}";
}
);
components = (
{
name = f.fragment_3;
},
{
name = h.fragment_1;
transform = "{1, 0, 0, 1, 1133, 0}";
}
);
layerId = master01;
width = 2155;
},
{
anchors = (
{
name = caret_1;
position = "{391, 0}";
},
{
name = caret_2;
position = "{955, 0}";
}
);
associatedMasterId = master01;
layerId = "9362F95E-5E6D-44C6-A857-7B90B3A0DEC2";
name = "Jan 9 19, 10:45";
paths = (
{
closed = 1;
nodes = (
"-160 -440 OFFCURVE",
"50 -197 OFFCURVE",
"285 349 CURVE SMOOTH",
"504 855 LINE",
"907 855 LINE",
"660 246 LINE SMOOTH",
"493 -167 OFFCURVE",
"351 -380 OFFCURVE",
"244 -380 CURVE SMOOTH {name = hr02;}",
"153 -380 OFFCURVE",
"204 -227 OFFCURVE",
"84 -227 CURVE SMOOTH",
"32 -227 OFFCURVE",
"5 -254 OFFCURVE",
"5 -303 CURVE SMOOTH",
"5 -383 OFFCURVE",
"82 -440 OFFCURVE",
"196 -440 CURVE SMOOTH",
"434 -440 OFFCURVE",
"643 -197 OFFCURVE",
"878 349 CURVE SMOOTH",
"1097 855 LINE",
"1264 855 LINE",
"1285 911 LINE",
"1117 911 LINE",
"1158 1014 LINE SMOOTH",
"1260 1271 OFFCURVE",
"1354 1380 OFFCURVE",
"1473 1380 CURVE SMOOTH",
"1549 1380 OFFCURVE",
"1581 1336 OFFCURVE",
"1581 1232 CURVE SMOOTH",
"1581 1192 OFFCURVE",
"1576 1164 OFFCURVE",
"1564 1124 CURVE",
"1100 0 LINE",
"1260 0 LINE {name = hr01;}",
"1416 333 LINE SMOOTH",
"1559 638 OFFCURVE",
"1764 868 OFFCURVE",
"1880 868 CURVE SMOOTH",
"1913 868 OFFCURVE",
"1930 851 OFFCURVE",
"1930 820 CURVE SMOOTH",
"1930 796 OFFCURVE",
"1922 767 OFFCURVE",
"1906 734 CURVE SMOOTH",
"1676 271 LINE SMOOTH",
"1637 192 OFFCURVE",
"1615 129 OFFCURVE",
"1615 82 CURVE SMOOTH",
"1615 16 OFFCURVE",
"1644 -18 OFFCURVE",
"1717 -18 CURVE SMOOTH",
"1825 -18 OFFCURVE",
"1942 62 OFFCURVE",
"2059 213 CURVE",
"2023 239 LINE",
"1940 146 OFFCURVE",
"1865 84 OFFCURVE",
"1827 84 CURVE SMOOTH",
"1812 84 OFFCURVE",
"1801 93 OFFCURVE",
"1801 110 CURVE SMOOTH",
"1801 131 OFFCURVE",
"1813 161 OFFCURVE",
"1836 208 CURVE SMOOTH",
"2037 619 LINE SMOOTH",
"2071 689 OFFCURVE",
"2083 744 OFFCURVE",
"2083 791 CURVE SMOOTH",
"2083 878 OFFCURVE",
"2020 927 OFFCURVE",
"1925 927 CURVE SMOOTH",
"1796 927 OFFCURVE",
"1685 848 OFFCURVE",
"1540 653 CURVE",
"1531 656 LINE",
"1861 1402 LINE",
"1854 1409 LINE",
"1664 1357 LINE",
"1621 1399 OFFCURVE",
"1551 1427 OFFCURVE",
"1470 1427 CURVE SMOOTH",
"1343 1427 OFFCURVE",
"1224 1366 OFFCURVE",
"1126 1258 CURVE",
"1074 1308 OFFCURVE",
"986 1341 OFFCURVE",
"885 1341 CURVE SMOOTH",
"667 1341 OFFCURVE",
"464 1191 OFFCURVE",
"353 945 CURVE SMOOTH",
"337 911 LINE",
"184 911 LINE",
"163 855 LINE",
"314 855 LINE",
"67 246 LINE SMOOTH",
"-100 -165 OFFCURVE",
"-242 -380 OFFCURVE",
"-349 -380 CURVE SMOOTH {name = hr04;}",
"-440 -380 OFFCURVE",
"-389 -227 OFFCURVE",
"-509 -227 CURVE SMOOTH {name = hr03;}",
"-561 -227 OFFCURVE",
"-588 -254 OFFCURVE",
"-588 -303 CURVE SMOOTH",
"-588 -383 OFFCURVE",
"-511 -440 OFFCURVE",
"-397 -440 CURVE SMOOTH"
);
},
{
closed = 1;
nodes = (
"531 928 LINE SMOOTH",
"633 1172 OFFCURVE",
"751 1291 OFFCURVE",
"897 1291 CURVE SMOOTH",
"990 1291 OFFCURVE",
"1033 1235 OFFCURVE",
"1033 1129 CURVE",
"1014 1099 OFFCURVE",
"999 1065 OFFCURVE",
"983 1031 CURVE SMOOTH",
"930 911 LINE",
"524 911 LINE"
);
}
);
width = 2183;
}
);
leftKerningGroup = f;
rightKerningGroup = n;
},
{
glyphname = f_f_i;
layers = (
{
anchors = (
{
name = caret_1;
position = "{392, 0}";
},
{
name = caret_2;
position = "{962, 0}";
}
);
components = (
{
name = f_f;
}
);
layerId = master01;
paths = (
{
closed = 1;
nodes = (
"974 855 LINE",
"1466 855 LINE SMOOTH {name = hr02;}",
"1479 855 OFFCURVE",
"1488 848 OFFCURVE",
"1488 834 CURVE SMOOTH",
"1488 827 OFFCURVE",
"1485 814 OFFCURVE",
"1479 803 CURVE SMOOTH",
"1230 190 LINE SMOOTH",
"1215 151 OFFCURVE",
"1205 111 OFFCURVE",
"1205 81 CURVE SMOOTH",
"1205 19 OFFCURVE",
"1244 -18 OFFCURVE",
"1312 -18 CURVE SMOOTH",
"1406 -18 OFFCURVE",
"1529 65 OFFCURVE",
"1638 201 CURVE",
"1604 222 LINE",
"1490 110 OFFCURVE",
"1456 84 OFFCURVE",
"1425 84 CURVE SMOOTH",
"1402 84 OFFCURVE",
"1389 98 OFFCURVE",
"1389 117 CURVE SMOOTH",
"1389 124 OFFCURVE",
"1391 129 OFFCURVE",
"1394 140 CURVE SMOOTH",
"1640 730 LINE SMOOTH",
"1657 771 OFFCURVE",
"1667 813 OFFCURVE",
"1667 842 CURVE SMOOTH",
"1667 892 OFFCURVE",
"1637 928 OFFCURVE",
"1592 928 CURVE SMOOTH {name = hr01;}",
"1549 928 OFFCURVE",
"1468 911 OFFCURVE",
"1411 911 CURVE SMOOTH",
"994 911 LINE"
);
}
);
width = 1750;
},
{
anchors = (
{
name = caret_1;
position = "{392, 0}";
},
{
name = caret_2;
position = "{962, 0}";
}
);
associatedMasterId = master01;
components = (
{
name = f.fragment_dot_2;
},
{
name = i.fragment_1;
transform = "{1, 0, 0, 1, 1112, 0}";
}
);
layerId = "374FD078-79FF-46B0-BB82-670951812E18";
name = "Jan 9 19, 10:47";
width = 1696;
},
{
anchors = (
{
name = caret_1;
position = "{392, 0}";
},
{
name = caret_2;
position = "{962, 0}";
}
);
associatedMasterId = master01;
layerId = "6FF230D4-491B-4253-8370-56F3683BCFC9";
name = "Jan 9 19, 11:00";
paths = (
{
closed = 1;
nodes = (
"-160 -440 OFFCURVE",
"50 -197 OFFCURVE",
"285 349 CURVE SMOOTH",
"504 855 LINE",
"907 855 LINE",
"660 246 LINE SMOOTH",
"493 -165 OFFCURVE",
"351 -380 OFFCURVE",
"244 -380 CURVE SMOOTH {name = hr03;}",
"153 -380 OFFCURVE",
"204 -227 OFFCURVE",
"84 -227 CURVE SMOOTH",
"32 -227 OFFCURVE",
"5 -254 OFFCURVE",
"5 -303 CURVE SMOOTH",
"5 -383 OFFCURVE",
"82 -440 OFFCURVE",
"196 -440 CURVE SMOOTH",
"434 -440 OFFCURVE",
"643 -197 OFFCURVE",
"878 349 CURVE SMOOTH",
"1097 855 LINE",
"1466 855 LINE SMOOTH {name = hr02;}",
"1479 855 OFFCURVE",
"1488 848 OFFCURVE",
"1488 834 CURVE SMOOTH",
"1488 827 OFFCURVE",
"1485 814 OFFCURVE",
"1479 803 CURVE SMOOTH",
"1230 190 LINE SMOOTH",
"1215 151 OFFCURVE",
"1205 111 OFFCURVE",
"1205 81 CURVE SMOOTH",
"1205 19 OFFCURVE",
"1244 -18 OFFCURVE",
"1312 -18 CURVE SMOOTH",
"1406 -18 OFFCURVE",
"1529 65 OFFCURVE",
"1638 201 CURVE",
"1604 222 LINE",
"1490 110 OFFCURVE",
"1456 84 OFFCURVE",
"1425 84 CURVE SMOOTH",
"1402 84 OFFCURVE",
"1389 98 OFFCURVE",
"1389 117 CURVE SMOOTH",
"1389 124 OFFCURVE",
"1391 129 OFFCURVE",
"1394 140 CURVE SMOOTH",
"1640 730 LINE SMOOTH",
"1657 771 OFFCURVE",
"1667 813 OFFCURVE",
"1667 842 CURVE SMOOTH",
"1667 892 OFFCURVE",
"1637 928 OFFCURVE",
"1592 928 CURVE SMOOTH {name = hr01;}",
"1549 928 OFFCURVE",
"1468 911 OFFCURVE",
"1411 911 CURVE SMOOTH",
"1117 911 LINE",
"1158 1014 LINE SMOOTH",
"1258 1265 OFFCURVE",
"1364 1380 OFFCURVE",
"1493 1380 CURVE SMOOTH {name = hr07;}",
"1554 1380 OFFCURVE",
"1595 1356 OFFCURVE",
"1595 1320 CURVE SMOOTH",
"1595 1293 OFFCURVE",
"1574 1277 OFFCURVE",
"1574 1237 CURVE SMOOTH",
"1574 1181 OFFCURVE",
"1617 1140 OFFCURVE",
"1674 1140 CURVE SMOOTH",
"1730 1140 OFFCURVE",
"1772 1183 OFFCURVE",
"1772 1244 CURVE SMOOTH",
"1772 1348 OFFCURVE",
"1651 1427 OFFCURVE",
"1493 1427 CURVE SMOOTH {name = hr06;}",
"1354 1427 OFFCURVE",
"1228 1366 OFFCURVE",
"1126 1257 CURVE",
"1076 1308 OFFCURVE",
"986 1341 OFFCURVE",
"885 1341 CURVE SMOOTH",
"667 1341 OFFCURVE",
"464 1191 OFFCURVE",
"353 945 CURVE SMOOTH",
"337 911 LINE",
"184 911 LINE",
"163 855 LINE",
"314 855 LINE",
"67 246 LINE SMOOTH",
"-100 -165 OFFCURVE",
"-242 -380 OFFCURVE",
"-349 -380 CURVE SMOOTH {name = hr05;}",
"-440 -380 OFFCURVE",
"-389 -227 OFFCURVE",
"-509 -227 CURVE SMOOTH {name = hr04;}",
"-561 -227 OFFCURVE",
"-588 -254 OFFCURVE",
"-588 -303 CURVE SMOOTH",
"-588 -383 OFFCURVE",
"-511 -440 OFFCURVE",
"-397 -440 CURVE SMOOTH"
);
},
{
closed = 1;
nodes = (
"531 928 LINE SMOOTH {name = hr08;}",
"633 1172 OFFCURVE",
"751 1291 OFFCURVE",
"897 1291 CURVE SMOOTH",
"990 1291 OFFCURVE",
"1033 1235 OFFCURVE",
"1033 1129 CURVE",
"1014 1099 OFFCURVE",
"999 1065 OFFCURVE",
"983 1031 CURVE SMOOTH",
"930 911 LINE",
"524 911 LINE {name = hr09;}"
);
}
);
width = 1750;
}
);
leftKerningGroup = f;
rightKerningGroup = i;
},
{
glyphname = f_f_j;
layers = (
{
anchors = (
{
name = caret_1;
position = "{372, 0}";
},
{
name = caret_2;
position = "{960, 0}";
}
);
components = (
{
name = f.fragment_dot_2;
},
{
name = j.fragment_1;
transform = "{1, 0, 0, 1, 1125, 0}";
}
);
layerId = master01;
width = 1651;
},
{
anchors = (
{
name = caret_1;
position = "{372, 0}";
},
{
name = caret_2;
position = "{960, 0}";
}
);
associatedMasterId = master01;
layerId = "63BCFF84-0845-427F-8C7A-8B3A60A2B861";
name = "Jan 9 19, 10:48";
paths = (
{
closed = 1;
nodes = (
"-160 -440 OFFCURVE",
"50 -197 OFFCURVE",
"285 349 CURVE SMOOTH",
"504 855 LINE",
"907 855 LINE",
"660 246 LINE SMOOTH",
"493 -165 OFFCURVE",
"351 -380 OFFCURVE",
"244 -380 CURVE SMOOTH {name = hr03;}",
"153 -380 OFFCURVE",
"204 -227 OFFCURVE",
"84 -227 CURVE SMOOTH {name = hr04;}",
"32 -227 OFFCURVE",
"5 -254 OFFCURVE",
"5 -303 CURVE SMOOTH",
"5 -383 OFFCURVE",
"82 -440 OFFCURVE",
"196 -440 CURVE SMOOTH",
"434 -440 OFFCURVE",
"643 -197 OFFCURVE",
"878 349 CURVE SMOOTH",
"1097 855 LINE",
"1414 855 LINE SMOOTH",
"1459 855 OFFCURVE",
"1472 841 OFFCURVE",
"1472 823 CURVE SMOOTH",
"1472 787 OFFCURVE",
"1445 720 OFFCURVE",
"1334 434 CURVE SMOOTH",
"1145 -48 LINE SMOOTH",
"1045 -303 OFFCURVE",
"986 -380 OFFCURVE",
"918 -380 CURVE SMOOTH {name = hr05;}",
"808 -380 OFFCURVE",
"866 -227 OFFCURVE",
"746 -227 CURVE SMOOTH {name = hr06;}",
"692 -227 OFFCURVE",
"667 -256 OFFCURVE",
"667 -308 CURVE SMOOTH",
"667 -389 OFFCURVE",
"751 -440 OFFCURVE",
"868 -440 CURVE SMOOTH",
"1038 -440 OFFCURVE",
"1172 -333 OFFCURVE",
"1260 -140 CURVE SMOOTH",
"1479 349 LINE SMOOTH",
"1601 620 OFFCURVE",
"1653 784 OFFCURVE",
"1655 846 CURVE SMOOTH",
"1655 897 OFFCURVE",
"1631 928 OFFCURVE",
"1581 928 CURVE SMOOTH",
"1531 928 OFFCURVE",
"1479 911 OFFCURVE",
"1411 911 CURVE SMOOTH {name = hr07;}",
"1117 911 LINE",
"1158 1014 LINE SMOOTH",
"1258 1265 OFFCURVE",
"1364 1380 OFFCURVE",
"1493 1380 CURVE SMOOTH",
"1554 1380 OFFCURVE",
"1595 1356 OFFCURVE",
"1595 1320 CURVE SMOOTH",
"1595 1293 OFFCURVE",
"1574 1277 OFFCURVE",
"1574 1237 CURVE SMOOTH",
"1574 1181 OFFCURVE",
"1617 1140 OFFCURVE",
"1674 1140 CURVE SMOOTH",
"1730 1140 OFFCURVE",
"1772 1183 OFFCURVE",
"1772 1244 CURVE SMOOTH",
"1772 1348 OFFCURVE",
"1651 1427 OFFCURVE",
"1493 1427 CURVE SMOOTH",
"1354 1427 OFFCURVE",
"1228 1366 OFFCURVE",
"1126 1257 CURVE",
"1076 1308 OFFCURVE",
"986 1341 OFFCURVE",
"885 1341 CURVE SMOOTH",
"667 1341 OFFCURVE",
"464 1191 OFFCURVE",
"353 945 CURVE SMOOTH",
"337 911 LINE",
"184 911 LINE",
"163 855 LINE {name = hr01;}",
"314 855 LINE",
"67 246 LINE SMOOTH",
"-100 -165 OFFCURVE",
"-242 -380 OFFCURVE",
"-349 -380 CURVE SMOOTH",
"-440 -380 OFFCURVE",
"-389 -227 OFFCURVE",
"-509 -227 CURVE SMOOTH {name = hr02;}",
"-561 -227 OFFCURVE",
"-588 -254 OFFCURVE",
"-588 -303 CURVE SMOOTH",
"-588 -383 OFFCURVE",
"-511 -440 OFFCURVE",
"-397 -440 CURVE SMOOTH"
);
},
{
closed = 1;
nodes = (
"531 928 LINE SMOOTH {name = hr08;}",
"633 1172 OFFCURVE",
"751 1291 OFFCURVE",
"897 1291 CURVE SMOOTH",
"990 1291 OFFCURVE",
"1033 1235 OFFCURVE",
"1033 1129 CURVE",
"1014 1099 OFFCURVE",
"999 1065 OFFCURVE",
"983 1031 CURVE SMOOTH",
"930 911 LINE {name = hr09;}",
"524 911 LINE"
);
}
);
width = 1693;
}
);
leftKerningGroup = f;
rightKerningGroup = j;
},
{
glyphname = f_f_k;
layers = (
{
anchors = (
{
name = caret_1;
position = "{387, 0}";
},
{
name = caret_2;
position = "{955, 0}";
}
);
components = (
{
name = f.fragment_3;
},
{
name = k.fragment_1;
transform = "{1, 0, 0, 1, 1133, 0}";
}
);
layerId = master01;
width = 2082;
},
{
anchors = (
{
name = caret_1;
position = "{387, 0}";
},
{
name = caret_2;
position = "{955, 0}";
}
);
associatedMasterId = master01;
layerId = "E66AF89B-7698-4E9C-9147-B5D3B12F1456";
name = "Jan 9 19, 11:05";
paths = (
{
closed = 1;
nodes = (
"-160 -440 OFFCURVE",
"50 -197 OFFCURVE",
"285 349 CURVE SMOOTH",
"504 855 LINE",
"907 855 LINE",
"660 246 LINE SMOOTH",
"493 -167 OFFCURVE",
"351 -380 OFFCURVE",
"244 -380 CURVE SMOOTH {name = hr02;}",
"153 -380 OFFCURVE",
"204 -227 OFFCURVE",
"84 -227 CURVE SMOOTH",
"32 -227 OFFCURVE",
"5 -254 OFFCURVE",
"5 -303 CURVE SMOOTH",
"5 -383 OFFCURVE",
"82 -440 OFFCURVE",
"196 -440 CURVE SMOOTH",
"434 -440 OFFCURVE",
"643 -197 OFFCURVE",
"878 349 CURVE SMOOTH",
"1097 855 LINE",
"1264 855 LINE",
"1285 911 LINE",
"1117 911 LINE",
"1158 1014 LINE SMOOTH",
"1260 1271 OFFCURVE",
"1354 1380 OFFCURVE",
"1473 1380 CURVE SMOOTH",
"1556 1380 OFFCURVE",
"1586 1314 OFFCURVE",
"1586 1241 CURVE SMOOTH",
"1586 1196 OFFCURVE",
"1574 1149 OFFCURVE",
"1559 1110 CURVE SMOOTH",
"1097 0 LINE",
"1265 0 LINE {name = hr01;}",
"1429 404 LINE",
"1442 404 LINE",
"1561 154 LINE SMOOTH",
"1617 36 OFFCURVE",
"1676 -18 OFFCURVE",
"1758 -18 CURVE SMOOTH",
"1843 -18 OFFCURVE",
"1938 41 OFFCURVE",
"1981 118 CURVE",
"1947 138 LINE",
"1906 84 OFFCURVE",
"1866 57 OFFCURVE",
"1830 57 CURVE SMOOTH",
"1794 57 OFFCURVE",
"1772 91 OFFCURVE",
"1724 190 CURVE SMOOTH",
"1607 437 LINE",
"1853 504 OFFCURVE",
"2059 669 OFFCURVE",
"2059 799 CURVE SMOOTH",
"2059 882 OFFCURVE",
"2002 928 OFFCURVE",
"1897 928 CURVE SMOOTH",
"1791 928 OFFCURVE",
"1674 875 OFFCURVE",
"1604 794 CURVE",
"1597 794 LINE",
"1863 1402 LINE",
"1856 1409 LINE",
"1664 1357 LINE",
"1621 1399 OFFCURVE",
"1551 1427 OFFCURVE",
"1470 1427 CURVE SMOOTH",
"1343 1427 OFFCURVE",
"1224 1366 OFFCURVE",
"1126 1258 CURVE",
"1074 1308 OFFCURVE",
"986 1341 OFFCURVE",
"885 1341 CURVE SMOOTH",
"667 1341 OFFCURVE",
"464 1191 OFFCURVE",
"353 945 CURVE SMOOTH",
"337 911 LINE",
"184 911 LINE",
"163 855 LINE",
"314 855 LINE",
"67 246 LINE SMOOTH",
"-100 -165 OFFCURVE",
"-242 -380 OFFCURVE",
"-349 -380 CURVE SMOOTH {name = hr04;}",
"-440 -380 OFFCURVE",
"-389 -227 OFFCURVE",
"-509 -227 CURVE SMOOTH {name = hr03;}",
"-561 -227 OFFCURVE",
"-588 -254 OFFCURVE",
"-588 -303 CURVE SMOOTH",
"-588 -383 OFFCURVE",
"-511 -440 OFFCURVE",
"-397 -440 CURVE SMOOTH"
);
},
{
closed = 1;
nodes = (
"531 928 LINE SMOOTH {name = hr05;}",
"633 1172 OFFCURVE",
"751 1291 OFFCURVE",
"897 1291 CURVE SMOOTH",
"990 1291 OFFCURVE",
"1033 1235 OFFCURVE",
"1033 1129 CURVE",
"1014 1099 OFFCURVE",
"999 1065 OFFCURVE",
"983 1031 CURVE SMOOTH",
"930 911 LINE",
"524 911 LINE {name = hr06;}"
);
},
{
closed = 1;
nodes = (
"1515 613 OFFCURVE",
"1576 705 OFFCURVE",
"1660 778 CURVE SMOOTH",
"1717 827 OFFCURVE",
"1769 853 OFFCURVE",
"1820 853 CURVE SMOOTH {name = hr07;}",
"1863 853 OFFCURVE",
"1886 830 OFFCURVE",
"1886 784 CURVE SMOOTH",
"1886 631 OFFCURVE",
"1685 475 OFFCURVE",
"1456 461 CURVE"
);
}
);
visible = 1;
width = 2117;
}
);
leftKerningGroup = f;
rightKerningGroup = k;
},
{
glyphname = f_f_l;
layers = (
{
anchors = (
{
name = caret_1;
position = "{379, 0}";
},
{
name = caret_2;
position = "{952, 0}";
}
);
components = (
{
name = f.fragment_3;
},
{
name = l.fragment_1;
transform = "{1, 0, 0, 1, 1133, 0}";
}
);
layerId = master01;
width = 1676;
},
{
anchors = (
{
name = caret_1;
position = "{379, 0}";
},
{
name = caret_2;
position = "{952, 0}";
}
);
associatedMasterId = master01;
layerId = "528833C3-8438-409E-BFF1-6BA3614CC003";
name = "Jan 9 19, 11:08";
paths = (
{
closed = 1;
nodes = (
"-160 -440 OFFCURVE",
"50 -197 OFFCURVE",
"285 349 CURVE SMOOTH",
"504 855 LINE",
"907 855 LINE",
"660 246 LINE SMOOTH",
"493 -167 OFFCURVE",
"351 -380 OFFCURVE",
"244 -380 CURVE SMOOTH {name = hr01;}",
"153 -380 OFFCURVE",
"204 -227 OFFCURVE",
"84 -227 CURVE SMOOTH",
"32 -227 OFFCURVE",
"5 -254 OFFCURVE",
"5 -303 CURVE SMOOTH",
"5 -383 OFFCURVE",
"82 -440 OFFCURVE",
"196 -440 CURVE SMOOTH",
"434 -440 OFFCURVE",
"643 -197 OFFCURVE",
"878 349 CURVE SMOOTH",
"1097 855 LINE",
"1264 855 LINE",
"1285 911 LINE",
"1117 911 LINE",
"1158 1014 LINE SMOOTH",
"1260 1271 OFFCURVE",
"1354 1380 OFFCURVE",
"1473 1380 CURVE SMOOTH",
"1549 1380 OFFCURVE",
"1581 1336 OFFCURVE",
"1581 1232 CURVE SMOOTH",
"1581 1186 OFFCURVE",
"1578 1156 OFFCURVE",
"1558 1106 CURVE SMOOTH",
"1430 801 LINE SMOOTH",
"1191 232 OFFCURVE",
"1160 147 OFFCURVE",
"1160 88 CURVE SMOOTH",
"1160 21 OFFCURVE",
"1194 -18 OFFCURVE",
"1253 -18 CURVE SMOOTH",
"1344 -18 OFFCURVE",
"1479 72 OFFCURVE",
"1586 201 CURVE",
"1549 222 LINE",
"1450 122 OFFCURVE",
"1402 84 OFFCURVE",
"1368 84 CURVE SMOOTH",
"1346 84 OFFCURVE",
"1332 98 OFFCURVE",
"1332 120 CURVE SMOOTH",
"1332 147 OFFCURVE",
"1354 206 OFFCURVE",
"1492 524 CURVE SMOOTH",
"1870 1404 LINE",
"1865 1409 LINE",
"1664 1357 LINE",
"1621 1399 OFFCURVE",
"1551 1427 OFFCURVE",
"1470 1427 CURVE SMOOTH",
"1343 1427 OFFCURVE",
"1224 1366 OFFCURVE",
"1126 1258 CURVE",
"1074 1308 OFFCURVE",
"986 1341 OFFCURVE",
"885 1341 CURVE SMOOTH",
"667 1341 OFFCURVE",
"464 1191 OFFCURVE",
"353 945 CURVE SMOOTH",
"337 911 LINE",
"184 911 LINE",
"163 855 LINE",
"314 855 LINE",
"67 246 LINE SMOOTH",
"-100 -165 OFFCURVE",
"-242 -380 OFFCURVE",
"-349 -380 CURVE SMOOTH {name = hr03;}",
"-440 -380 OFFCURVE",
"-389 -227 OFFCURVE",
"-509 -227 CURVE SMOOTH {name = hr02;}",
"-561 -227 OFFCURVE",
"-588 -254 OFFCURVE",
"-588 -303 CURVE SMOOTH",
"-588 -383 OFFCURVE",
"-511 -440 OFFCURVE",
"-397 -440 CURVE SMOOTH"
);
},
{
closed = 1;
nodes = (
"531 928 LINE SMOOTH",
"633 1172 OFFCURVE",
"751 1291 OFFCURVE",
"897 1291 CURVE SMOOTH",
"990 1291 OFFCURVE",
"1033 1235 OFFCURVE",
"1033 1129 CURVE",
"1014 1099 OFFCURVE",
"999 1065 OFFCURVE",
"983 1031 CURVE SMOOTH",
"930 911 LINE",
"524 911 LINE"
);
}
);
width = 1705;
}
);
leftKerningGroup = f;
rightKerningGroup = l;
},
{
glyphname = f_f_t;
layers = (
{
anchors = (
{
name = caret_1;
position = "{377, 0}";
},
{
name = caret_2;
position = "{990, 0}";
}
);
components = (
{
name = f_f;
},
{
name = t.fragment_1;
transform = "{1, 0, 0, 1, 1132, 0}";
}
);
layerId = master01;
width = 1715;
},
{
anchors = (
{
name = caret_1;
position = "{377, 0}";
},
{
name = caret_2;
position = "{990, 0}";
}
);
associatedMasterId = master01;
layerId = "20BC965C-6AB2-4A69-AC0C-1CDED12F3A27";
name = "Jan 9 19, 11:10";
paths = (
{
closed = 1;
nodes = (
"-160 -440 OFFCURVE",
"50 -197 OFFCURVE",
"285 349 CURVE SMOOTH",
"504 855 LINE",
"907 855 LINE",
"660 246 LINE SMOOTH",
"471 -222 OFFCURVE",
"335 -380 OFFCURVE",
"244 -380 CURVE SMOOTH {name = hr02;}",
"153 -380 OFFCURVE",
"203 -227 OFFCURVE",
"86 -227 CURVE SMOOTH",
"36 -227 OFFCURVE",
"5 -253 OFFCURVE",
"5 -297 CURVE SMOOTH",
"5 -382 OFFCURVE",
"77 -440 OFFCURVE",
"192 -440 CURVE SMOOTH",
"434 -440 OFFCURVE",
"643 -199 OFFCURVE",
"878 349 CURVE SMOOTH",
"1097 855 LINE",
"1509 855 LINE",
"1330 438 LINE SMOOTH",
"1228 197 OFFCURVE",
"1212 140 OFFCURVE",
"1212 91 CURVE SMOOTH",
"1212 16 OFFCURVE",
"1234 -18 OFFCURVE",
"1303 -18 CURVE SMOOTH",
"1402 -18 OFFCURVE",
"1524 62 OFFCURVE",
"1635 201 CURVE",
"1601 222 LINE",
"1508 125 OFFCURVE",
"1456 84 OFFCURVE",
"1422 84 CURVE SMOOTH",
"1396 84 OFFCURVE",
"1384 100 OFFCURVE",
"1384 125 CURVE SMOOTH",
"1384 149 OFFCURVE",
"1397 179 OFFCURVE",
"1545 524 CURVE SMOOTH",
"1687 855 LINE",
"1843 855 LINE",
"1861 911 LINE",
"1710 911 LINE",
"1775 1063 LINE",
"1592 1045 LINE",
"1533 911 LINE",
"1117 911 LINE",
"1158 1014 LINE SMOOTH",
"1262 1271 OFFCURVE",
"1359 1380 OFFCURVE",
"1473 1380 CURVE SMOOTH {name = hr01;}",
"1524 1380 OFFCURVE",
"1561 1366 OFFCURVE",
"1561 1337 CURVE SMOOTH",
"1561 1316 OFFCURVE",
"1549 1301 OFFCURVE",
"1549 1275 CURVE SMOOTH",
"1549 1230 OFFCURVE",
"1585 1199 OFFCURVE",
"1629 1199 CURVE SMOOTH",
"1681 1199 OFFCURVE",
"1712 1232 OFFCURVE",
"1712 1282 CURVE SMOOTH",
"1712 1363 OFFCURVE",
"1605 1427 OFFCURVE",
"1481 1427 CURVE SMOOTH",
"1357 1427 OFFCURVE",
"1232 1379 OFFCURVE",
"1124 1258 CURVE",
"1074 1308 OFFCURVE",
"986 1341 OFFCURVE",
"885 1341 CURVE SMOOTH",
"667 1341 OFFCURVE",
"464 1191 OFFCURVE",
"353 945 CURVE SMOOTH",
"337 911 LINE",
"184 911 LINE",
"163 855 LINE",
"314 855 LINE",
"67 246 LINE SMOOTH",
"-100 -165 OFFCURVE",
"-242 -380 OFFCURVE",
"-349 -380 CURVE SMOOTH {name = hr04;}",
"-440 -380 OFFCURVE",
"-389 -227 OFFCURVE",
"-509 -227 CURVE SMOOTH {name = hr03;}",
"-561 -227 OFFCURVE",
"-588 -254 OFFCURVE",
"-588 -303 CURVE SMOOTH",
"-588 -383 OFFCURVE",
"-511 -440 OFFCURVE",
"-397 -440 CURVE SMOOTH"
);
},
{
closed = 1;
nodes = (
"531 928 LINE SMOOTH",
"633 1172 OFFCURVE",
"751 1291 OFFCURVE",
"897 1291 CURVE SMOOTH {name = hr06;}",
"990 1291 OFFCURVE",
"1033 1235 OFFCURVE",
"1033 1129 CURVE",
"1016 1099 OFFCURVE",
"999 1065 OFFCURVE",
"983 1031 CURVE SMOOTH",
"930 911 LINE",
"524 911 LINE"
);
}
);
width = 1777;
}
);
leftKerningGroup = f;
rightKerningGroup = t;
},
{
glyphname = f_h;
layers = (
{
anchors = (
{
name = caret_1;
position = "{361, 0}";
}
);
components = (
{
name = f.fragment_1;
},
{
name = h.fragment_1;
transform = "{1, 0, 0, 1, 557, 0}";
}
);
layerId = master01;
width = 1579;
},
{
anchors = (
{
name = caret_1;
position = "{361, 0}";
}
);
associatedMasterId = master01;
layerId = "7B63DE87-E00D-452C-89F9-B9BC6EAB7A64";
name = "Jan 9 19, 10:44";
paths = (
{
closed = 1;
nodes = (
"-160 -440 OFFCURVE",
"50 -197 OFFCURVE",
"285 349 CURVE SMOOTH",
"504 855 LINE",
"670 855 LINE",
"692 911 LINE",
"524 911 LINE",
"565 1014 LINE SMOOTH",
"670 1277 OFFCURVE",
"763 1380 OFFCURVE",
"880 1380 CURVE SMOOTH",
"961 1380 OFFCURVE",
"990 1308 OFFCURVE",
"990 1232 CURVE SMOOTH",
"990 1192 OFFCURVE",
"984 1158 OFFCURVE",
"971 1124 CURVE SMOOTH",
"507 0 LINE",
"667 0 LINE {name = hr01;}",
"823 333 LINE SMOOTH",
"966 638 OFFCURVE",
"1171 868 OFFCURVE",
"1287 868 CURVE SMOOTH",
"1320 868 OFFCURVE",
"1337 851 OFFCURVE",
"1337 820 CURVE SMOOTH",
"1337 796 OFFCURVE",
"1328 765 OFFCURVE",
"1313 734 CURVE SMOOTH",
"1083 271 LINE SMOOTH",
"1043 192 OFFCURVE",
"1022 131 OFFCURVE",
"1022 77 CURVE SMOOTH",
"1022 16 OFFCURVE",
"1052 -18 OFFCURVE",
"1122 -18 CURVE SMOOTH",
"1232 -18 OFFCURVE",
"1350 62 OFFCURVE",
"1466 213 CURVE",
"1430 239 LINE",
"1348 146 OFFCURVE",
"1271 84 OFFCURVE",
"1234 84 CURVE SMOOTH",
"1219 84 OFFCURVE",
"1208 93 OFFCURVE",
"1208 110 CURVE SMOOTH",
"1208 131 OFFCURVE",
"1221 161 OFFCURVE",
"1242 208 CURVE SMOOTH",
"1443 619 LINE SMOOTH",
"1479 689 OFFCURVE",
"1490 746 OFFCURVE",
"1490 787 CURVE SMOOTH",
"1490 880 OFFCURVE",
"1429 927 OFFCURVE",
"1330 927 CURVE SMOOTH",
"1203 927 OFFCURVE",
"1092 848 OFFCURVE",
"947 653 CURVE",
"938 656 LINE",
"1269 1402 LINE",
"1262 1409 LINE",
"1070 1357 LINE",
"1027 1399 OFFCURVE",
"959 1427 OFFCURVE",
"875 1427 CURVE SMOOTH",
"683 1427 OFFCURVE",
"502 1284 OFFCURVE",
"391 1031 CURVE SMOOTH",
"337 911 LINE",
"184 911 LINE",
"163 855 LINE",
"314 855 LINE",
"67 246 LINE SMOOTH",
"-100 -167 OFFCURVE",
"-242 -380 OFFCURVE",
"-349 -380 CURVE SMOOTH {name = hr02;}",
"-440 -380 OFFCURVE",
"-389 -227 OFFCURVE",
"-509 -227 CURVE SMOOTH",
"-561 -227 OFFCURVE",
"-588 -254 OFFCURVE",
"-588 -303 CURVE SMOOTH",
"-588 -383 OFFCURVE",
"-511 -440 OFFCURVE",
"-397 -440 CURVE SMOOTH"
);
}
);
width = 1590;
}
);
leftKerningGroup = f;
rightKerningGroup = n;
},
{
glyphname = f_i;
layers = (
{
anchors = (
{
name = caret_1;
position = "{406, 0}";
}
);
components = (
{
name = f.fragment_dot;
},
{
name = i.fragment_1;
transform = "{1, 0, 0, 1, 537, 0}";
}
);
layerId = master01;
width = 1121;
},
{
anchors = (
{
name = caret_1;
position = "{406, 0}";
}
);
associatedMasterId = master01;
layerId = "1F761B7E-6DA4-465E-87E6-3FBE446AC1D4";
name = "Jan 9 19, 10:52";
paths = (
{
closed = 1;
nodes = (
"-160 -440 OFFCURVE",
"50 -197 OFFCURVE",
"285 349 CURVE SMOOTH",
"504 855 LINE",
"873 855 LINE SMOOTH",
"887 855 OFFCURVE",
"896 848 OFFCURVE",
"896 834 CURVE SMOOTH",
"896 827 OFFCURVE",
"892 814 OFFCURVE",
"887 803 CURVE SMOOTH",
"638 190 LINE SMOOTH",
"622 151 OFFCURVE",
"612 111 OFFCURVE",
"612 81 CURVE SMOOTH",
"612 19 OFFCURVE",
"651 -18 OFFCURVE",
"719 -18 CURVE SMOOTH",
"813 -18 OFFCURVE",
"937 65 OFFCURVE",
"1045 201 CURVE",
"1011 222 LINE",
"897 110 OFFCURVE",
"863 84 OFFCURVE",
"832 84 CURVE SMOOTH",
"810 84 OFFCURVE",
"796 98 OFFCURVE",
"796 117 CURVE SMOOTH",
"796 124 OFFCURVE",
"798 129 OFFCURVE",
"801 140 CURVE SMOOTH",
"1047 730 LINE SMOOTH",
"1063 771 OFFCURVE",
"1074 813 OFFCURVE",
"1074 842 CURVE SMOOTH",
"1074 892 OFFCURVE",
"1043 928 OFFCURVE",
"999 928 CURVE SMOOTH {name = hr03;}",
"956 928 OFFCURVE",
"875 911 OFFCURVE",
"818 911 CURVE SMOOTH {name = hr04;}",
"524 911 LINE",
"565 1014 LINE SMOOTH",
"665 1265 OFFCURVE",
"771 1380 OFFCURVE",
"900 1380 CURVE SMOOTH",
"961 1380 OFFCURVE",
"1002 1356 OFFCURVE",
"1002 1320 CURVE SMOOTH",
"1002 1293 OFFCURVE",
"981 1277 OFFCURVE",
"981 1237 CURVE SMOOTH",
"981 1181 OFFCURVE",
"1024 1140 OFFCURVE",
"1081 1140 CURVE SMOOTH {name = hr01;}",
"1138 1140 OFFCURVE",
"1179 1183 OFFCURVE",
"1179 1244 CURVE SMOOTH",
"1179 1348 OFFCURVE",
"1059 1427 OFFCURVE",
"900 1427 CURVE SMOOTH",
"686 1427 OFFCURVE",
"500 1284 OFFCURVE",
"391 1031 CURVE SMOOTH",
"337 911 LINE",
"184 911 LINE",
"163 855 LINE",
"314 855 LINE",
"67 246 LINE SMOOTH",
"-100 -165 OFFCURVE",
"-242 -380 OFFCURVE",
"-349 -380 CURVE SMOOTH",
"-440 -380 OFFCURVE",
"-389 -227 OFFCURVE",
"-509 -227 CURVE SMOOTH {name = hr02;}",
"-561 -227 OFFCURVE",
"-588 -254 OFFCURVE",
"-588 -303 CURVE SMOOTH",
"-588 -383 OFFCURVE",
"-511 -440 OFFCURVE",
"-397 -440 CURVE SMOOTH"
);
}
);
width = 1156;
}
);
leftKerningGroup = f;
rightKerningGroup = i;
},
{
glyphname = f_j;
layers = (
{
anchors = (
{
name = caret_1;
position = "{366, 0}";
}
);
components = (
{
name = f.fragment_dot;
},
{
name = j.fragment_1;
transform = "{1, 0, 0, 1, 550, 0}";
}
);
layerId = master01;
width = 1076;
},
{
anchors = (
{
name = caret_1;
position = "{366, 0}";
}
);
associatedMasterId = master01;
layerId = "1BD1DE97-DCE6-43E9-900E-24592A6E3F45";
name = "Jan 9 19, 10:56";
paths = (
{
closed = 1;
nodes = (
"-160 -440 OFFCURVE",
"50 -197 OFFCURVE",
"285 349 CURVE SMOOTH",
"504 855 LINE",
"821 855 LINE SMOOTH",
"866 855 OFFCURVE",
"878 841 OFFCURVE",
"878 823 CURVE SMOOTH",
"878 787 OFFCURVE",
"853 720 OFFCURVE",
"741 434 CURVE SMOOTH",
"552 -48 LINE SMOOTH",
"452 -303 OFFCURVE",
"394 -380 OFFCURVE",
"325 -380 CURVE SMOOTH {name = hr03;}",
"215 -380 OFFCURVE",
"273 -227 OFFCURVE",
"153 -227 CURVE SMOOTH {name = hr04;}",
"100 -227 OFFCURVE",
"74 -256 OFFCURVE",
"74 -308 CURVE SMOOTH",
"74 -389 OFFCURVE",
"158 -440 OFFCURVE",
"275 -440 CURVE SMOOTH",
"445 -440 OFFCURVE",
"579 -333 OFFCURVE",
"667 -140 CURVE SMOOTH",
"885 349 LINE SMOOTH",
"1007 620 OFFCURVE",
"1061 784 OFFCURVE",
"1063 846 CURVE SMOOTH",
"1063 897 OFFCURVE",
"1038 928 OFFCURVE",
"988 928 CURVE SMOOTH",
"938 928 OFFCURVE",
"887 911 OFFCURVE",
"818 911 CURVE SMOOTH {name = hr05;}",
"524 911 LINE",
"565 1014 LINE SMOOTH",
"665 1265 OFFCURVE",
"771 1380 OFFCURVE",
"900 1380 CURVE SMOOTH",
"961 1380 OFFCURVE",
"1002 1356 OFFCURVE",
"1002 1320 CURVE SMOOTH",
"1002 1293 OFFCURVE",
"981 1277 OFFCURVE",
"981 1237 CURVE SMOOTH",
"981 1181 OFFCURVE",
"1024 1140 OFFCURVE",
"1081 1140 CURVE SMOOTH {name = hr01;}",
"1138 1140 OFFCURVE",
"1179 1183 OFFCURVE",
"1179 1244 CURVE SMOOTH",
"1179 1348 OFFCURVE",
"1059 1427 OFFCURVE",
"900 1427 CURVE SMOOTH",
"686 1427 OFFCURVE",
"500 1284 OFFCURVE",
"391 1031 CURVE SMOOTH",
"337 911 LINE",
"184 911 LINE",
"163 855 LINE",
"314 855 LINE",
"67 246 LINE SMOOTH",
"-100 -165 OFFCURVE",
"-242 -380 OFFCURVE",
"-349 -380 CURVE SMOOTH",
"-440 -380 OFFCURVE",
"-389 -227 OFFCURVE",
"-509 -227 CURVE SMOOTH {name = hr02;}",
"-561 -227 OFFCURVE",
"-588 -254 OFFCURVE",
"-588 -303 CURVE SMOOTH",
"-588 -383 OFFCURVE",
"-511 -440 OFFCURVE",
"-397 -440 CURVE SMOOTH"
);
}
);
width = 1100;
}
);
leftKerningGroup = f;
rightKerningGroup = j;
},
{
glyphname = f_t;
layers = (
{
anchors = (
{
name = caret_1;
position = "{391, 0}";
}
);
components = (
{
name = f;
},
{
name = t.fragment_1;
transform = "{1, 0, 0, 1, 557, 0}";
}
);
layerId = master01;
width = 1140;
},
{
anchors = (
{
name = caret_1;
position = "{391, 0}";
}
);
associatedMasterId = master01;
layerId = "45D7527C-BACC-48B0-9E08-007CBEBB0EAF";
name = "Jan 9 19, 11:17";
paths = (
{
closed = 1;
nodes = (
"-160 -440 OFFCURVE",
"50 -199 OFFCURVE",
"285 349 CURVE SMOOTH",
"504 855 LINE",
"916 855 LINE",
"737 438 LINE SMOOTH",
"634 197 OFFCURVE",
"619 140 OFFCURVE",
"619 91 CURVE SMOOTH",
"619 16 OFFCURVE",
"641 -18 OFFCURVE",
"710 -18 CURVE SMOOTH",
"810 -18 OFFCURVE",
"932 62 OFFCURVE",
"1042 201 CURVE",
"1007 222 LINE",
"914 125 OFFCURVE",
"863 84 OFFCURVE",
"828 84 CURVE SMOOTH",
"803 84 OFFCURVE",
"791 100 OFFCURVE",
"791 125 CURVE SMOOTH",
"791 149 OFFCURVE",
"805 179 OFFCURVE",
"952 524 CURVE SMOOTH",
"1093 855 LINE",
"1250 855 LINE",
"1269 911 LINE",
"1117 911 LINE",
"1183 1063 LINE",
"999 1045 LINE",
"940 911 LINE",
"524 911 LINE",
"565 1014 LINE SMOOTH",
"669 1271 OFFCURVE",
"767 1380 OFFCURVE",
"880 1380 CURVE SMOOTH {name = hr01;}",
"932 1380 OFFCURVE",
"968 1366 OFFCURVE",
"968 1337 CURVE SMOOTH",
"968 1316 OFFCURVE",
"956 1301 OFFCURVE",
"956 1275 CURVE SMOOTH",
"956 1230 OFFCURVE",
"992 1199 OFFCURVE",
"1036 1199 CURVE SMOOTH",
"1088 1199 OFFCURVE",
"1119 1232 OFFCURVE",
"1119 1282 CURVE SMOOTH",
"1119 1363 OFFCURVE",
"1013 1427 OFFCURVE",
"889 1427 CURVE SMOOTH",
"706 1427 OFFCURVE",
"518 1318 OFFCURVE",
"391 1031 CURVE SMOOTH",
"337 911 LINE",
"184 911 LINE",
"163 855 LINE",
"314 855 LINE",
"67 246 LINE SMOOTH",
"-122 -222 OFFCURVE",
"-258 -380 OFFCURVE",
"-349 -380 CURVE SMOOTH {name = hr02;}",
"-440 -380 OFFCURVE",
"-391 -227 OFFCURVE",
"-507 -227 CURVE SMOOTH",
"-557 -227 OFFCURVE",
"-588 -253 OFFCURVE",
"-588 -297 CURVE SMOOTH",
"-588 -382 OFFCURVE",
"-516 -440 OFFCURVE",
"-400 -440 CURVE SMOOTH"
);
}
);
width = 1185;
}
);
leftKerningGroup = f;
rightKerningGroup = t;
},
{
glyphname = s_p;
layers = (
{
anchors = (
{
name = caret_1;
position = "{554, 0}";
}
);
components = (
{
name = s;
}
);
layerId = master01;
paths = (
{
closed = 1;
nodes = (
"848 -430 LINE",
"848 -398 LINE",
"672 -378 LINE",
"839 22 LINE",
"864 19 OFFCURVE",
"897 18 OFFCURVE",
"927 18 CURVE SMOOTH",
"1265 18 OFFCURVE",
"1581 292 OFFCURVE",
"1581 588 CURVE SMOOTH",
"1581 778 OFFCURVE",
"1449 902 OFFCURVE",
"1215 928 CURVE",
"1308 1174 LINE",
"1334 1207 OFFCURVE",
"1346 1241 OFFCURVE",
"1346 1275 CURVE SMOOTH",
"1346 1316 OFFCURVE",
"1325 1341 OFFCURVE",
"1287 1341 CURVE SMOOTH",
"1239 1341 OFFCURVE",
"1212 1305 OFFCURVE",
"1212 1239 CURVE SMOOTH",
"1212 1174 LINE SMOOTH",
"1212 1167 OFFCURVE",
"1212 1160 OFFCURVE",
"1210 1153 CURVE",
"1176 1136 OFFCURVE",
"1131 1126 OFFCURVE",
"1086 1126 CURVE SMOOTH",
"914 1126 OFFCURVE",
"785 1278 OFFCURVE",
"613 1278 CURVE SMOOTH",
"507 1278 OFFCURVE",
"441 1219 OFFCURVE",
"441 1121 CURVE SMOOTH",
"441 1026 OFFCURVE",
"502 938 OFFCURVE",
"613 866 CURVE",
"658 887 LINE",
"567 950 OFFCURVE",
"538 988 OFFCURVE",
"538 1049 CURVE SMOOTH",
"538 1126 OFFCURVE",
"591 1169 OFFCURVE",
"686 1169 CURVE SMOOTH",
"820 1169 OFFCURVE",
"896 1074 OFFCURVE",
"1063 1074 CURVE SMOOTH",
"1110 1074 OFFCURVE",
"1155 1081 OFFCURVE",
"1194 1095 CURVE",
"1171 1038 OFFCURVE",
"1121 979 OFFCURVE",
"1045 916 CURVE",
"966 902 OFFCURVE",
"891 873 OFFCURVE",
"832 835 CURVE",
"846 801 LINE",
"885 828 OFFCURVE",
"945 849 OFFCURVE",
"1026 864 CURVE",
"493 -383 LINE",
"355 -404 LINE",
"355 -430 LINE"
);
},
{
closed = 1;
nodes = (
"873 67 OFFCURVE",
"868 67 OFFCURVE",
"857 68 CURVE",
"1185 854 LINE SMOOTH",
"1189 868 OFFCURVE",
"1199 873 OFFCURVE",
"1226 873 CURVE SMOOTH",
"1334 873 OFFCURVE",
"1402 778 OFFCURVE",
"1402 629 CURVE SMOOTH",
"1402 344 OFFCURVE",
"1156 67 OFFCURVE",
"902 67 CURVE SMOOTH"
);
}
);
width = 1669;
}
);
leftKerningGroup = s;
rightKerningGroup = p;
},
{
glyphname = s_t;
layers = (
{
anchors = (
{
name = caret_1;
position = "{554, 0}";
}
);
components = (
{
name = s;
}
);
layerId = master01;
paths = (
{
closed = 1;
nodes = (
"909 -18 OFFCURVE",
"1031 62 OFFCURVE",
"1142 201 CURVE",
"1106 222 LINE",
"1014 125 OFFCURVE",
"963 84 OFFCURVE",
"928 84 CURVE SMOOTH",
"902 84 OFFCURVE",
"891 100 OFFCURVE",
"891 125 CURVE SMOOTH",
"891 149 OFFCURVE",
"904 179 OFFCURVE",
"1052 524 CURVE SMOOTH",
"1192 855 LINE",
"1350 855 LINE",
"1368 911 LINE",
"1215 911 LINE",
"1307 1174 LINE",
"1332 1207 OFFCURVE",
"1344 1241 OFFCURVE",
"1344 1275 CURVE SMOOTH",
"1344 1316 OFFCURVE",
"1323 1341 OFFCURVE",
"1285 1341 CURVE SMOOTH",
"1237 1341 OFFCURVE",
"1210 1305 OFFCURVE",
"1210 1239 CURVE SMOOTH",
"1210 1174 LINE SMOOTH",
"1210 1167 OFFCURVE",
"1210 1160 OFFCURVE",
"1208 1153 CURVE",
"1174 1136 OFFCURVE",
"1129 1126 OFFCURVE",
"1085 1126 CURVE SMOOTH",
"913 1126 OFFCURVE",
"784 1278 OFFCURVE",
"612 1278 CURVE SMOOTH",
"505 1278 OFFCURVE",
"440 1219 OFFCURVE",
"440 1121 CURVE SMOOTH",
"440 1026 OFFCURVE",
"500 938 OFFCURVE",
"612 866 CURVE",
"656 887 LINE",
"565 950 OFFCURVE",
"536 988 OFFCURVE",
"536 1049 CURVE SMOOTH",
"536 1126 OFFCURVE",
"590 1169 OFFCURVE",
"684 1169 CURVE SMOOTH",
"818 1169 OFFCURVE",
"894 1074 OFFCURVE",
"1061 1074 CURVE SMOOTH",
"1108 1074 OFFCURVE",
"1153 1081 OFFCURVE",
"1192 1095 CURVE",
"1167 1036 OFFCURVE",
"1115 975 OFFCURVE",
"1042 911 CURVE",
"894 911 LINE",
"875 855 LINE",
"1016 855 LINE",
"837 438 LINE SMOOTH",
"734 197 OFFCURVE",
"719 140 OFFCURVE",
"719 91 CURVE SMOOTH",
"719 16 OFFCURVE",
"741 -18 OFFCURVE",
"810 -18 CURVE SMOOTH"
);
}
);
width = 1284;
}
);
leftKerningGroup = s;
rightKerningGroup = t;
},
{
export = 0;
glyphname = b.fragment_1;
layers = (
{
layerId = master01;
paths = (
{
closed = 1;
nodes = (
"237 43 OFFCURVE",
"199 81 OFFCURVE",
"199 141 CURVE SMOOTH",
"199 246 OFFCURVE",
"276 435 OFFCURVE",
"324 533 CURVE SMOOTH",
"415 719 OFFCURVE",
"563 868 OFFCURVE",
"658 868 CURVE SMOOTH {name = hr03;}",
"713 868 OFFCURVE",
"747 806 OFFCURVE",
"747 715 CURVE SMOOTH",
"747 462 OFFCURVE",
"464 43 OFFCURVE",
"290 43 CURVE SMOOTH"
);
},
{
closed = 1;
nodes = (
"452 1279 LINE",
"105 428 LINE SMOOTH",
"74 353 OFFCURVE",
"58 283 OFFCURVE",
"58 226 CURVE SMOOTH",
"58 74 OFFCURVE",
"144 -18 OFFCURVE",
"304 -18 CURVE SMOOTH",
"608 -18 OFFCURVE",
"914 332 OFFCURVE",
"914 663 CURVE SMOOTH",
"914 834 OFFCURVE",
"830 928 OFFCURVE",
"701 928 CURVE SMOOTH",
"613 928 OFFCURVE",
"519 880 OFFCURVE",
"441 794 CURVE",
"433 794 LINE",
"682 1402 LINE",
"675 1409 LINE",
"438 1348 LINE"
);
}
);
width = 988;
}
);
rightKerningGroup = b;
userData = {
com.typemytype.robofont.guides = (
{
angle = 0;
isGlobal = 0;
magnetic = 5;
x = 0;
y = 508;
}
);
};
},
{
export = 0;
glyphname = f.fragment_dot_2;
layers = (
{
associatedMasterId = master01;
layerId = "802DC178-2968-4689-BA99-BD2290573E1B";
name = "Jan 8 19, 16:47";
paths = (
{
closed = 1;
nodes = (
"515 1014 LINE SMOOTH",
"598 1277 OFFCURVE",
"717 1380 OFFCURVE",
"830 1380 CURVE SMOOTH",
"882 1380 OFFCURVE",
"918 1357 OFFCURVE",
"918 1320 CURVE SMOOTH",
"918 1294 OFFCURVE",
"906 1273 OFFCURVE",
"906 1241 CURVE SMOOTH",
"906 1196 OFFCURVE",
"942 1165 OFFCURVE",
"986 1165 CURVE SMOOTH",
"1038 1165 OFFCURVE",
"1069 1198 OFFCURVE",
"1069 1248 CURVE SMOOTH",
"1069 1350 OFFCURVE",
"963 1427 OFFCURVE",
"839 1427 CURVE SMOOTH",
"647 1427 OFFCURVE",
"437 1327 OFFCURVE",
"341 1031 CURVE SMOOTH",
"87 246 LINE SMOOTH",
"-69 -235 OFFCURVE",
"-238 -380 OFFCURVE",
"-329 -380 CURVE SMOOTH",
"-420 -380 OFFCURVE",
"-371 -216 OFFCURVE",
"-487 -216 CURVE SMOOTH",
"-537 -216 OFFCURVE",
"-568 -253 OFFCURVE",
"-568 -304 CURVE SMOOTH",
"-568 -386 OFFCURVE",
"-502 -440 OFFCURVE",
"-380 -440 CURVE SMOOTH",
"-140 -440 OFFCURVE",
"112 -262 OFFCURVE",
"305 349 CURVE SMOOTH"
);
},
{
closed = 1;
nodes = (
"164 911 LINE",
"143 855 LINE",
"650 855 LINE",
"672 911 LINE"
);
}
);
width = 557;
},
{
associatedMasterId = master01;
layerId = "BAAEB8E4-1D37-4217-9235-A593962F46F4";
name = "Jan 8 19, 16:50";
paths = (
{
closed = 1;
nodes = (
"-160 -440 OFFCURVE",
"50 -199 OFFCURVE",
"285 349 CURVE SMOOTH",
"504 855 LINE",
"670 855 LINE",
"692 911 LINE {name = hr01;}",
"524 911 LINE",
"565 1014 LINE SMOOTH",
"669 1271 OFFCURVE",
"767 1380 OFFCURVE",
"880 1380 CURVE SMOOTH",
"932 1380 OFFCURVE",
"968 1357 OFFCURVE",
"968 1320 CURVE SMOOTH",
"968 1294 OFFCURVE",
"956 1273 OFFCURVE",
"956 1241 CURVE SMOOTH",
"956 1196 OFFCURVE",
"992 1165 OFFCURVE",
"1036 1165 CURVE SMOOTH",
"1088 1165 OFFCURVE",
"1119 1198 OFFCURVE",
"1119 1248 CURVE SMOOTH",
"1119 1350 OFFCURVE",
"1013 1427 OFFCURVE",
"889 1427 CURVE SMOOTH",
"706 1427 OFFCURVE",
"518 1318 OFFCURVE",
"391 1031 CURVE SMOOTH",
"337 911 LINE {name = hr02;}",
"184 911 LINE",
"163 855 LINE",
"314 855 LINE",
"67 246 LINE SMOOTH",
"-122 -222 OFFCURVE",
"-258 -380 OFFCURVE",
"-349 -380 CURVE SMOOTH",
"-440 -380 OFFCURVE",
"-391 -227 OFFCURVE",
"-507 -227 CURVE SMOOTH",
"-557 -227 OFFCURVE",
"-588 -253 OFFCURVE",
"-588 -297 CURVE SMOOTH",
"-588 -382 OFFCURVE",
"-516 -440 OFFCURVE",
"-400 -440 CURVE SMOOTH"
);
}
);
width = 557;
},
{
layerId = master01;
paths = (
{
closed = 1;
nodes = (
"164 911 LINE",
"143 855 LINE",
"905 855 LINE",
"927 911 LINE"
);
},
{
closed = 1;
nodes = (
"938 1291 OFFCURVE",
"989 1239 OFFCURVE",
"995 1126 CURVE",
"1108 1261 LINE",
"1049 1315 OFFCURVE",
"964 1341 OFFCURVE",
"847 1341 CURVE SMOOTH",
"601 1341 OFFCURVE",
"409 1216 OFFCURVE",
"299 889 CURVE SMOOTH",
"83 246 LINE SMOOTH",
"-42 -125 OFFCURVE",
"-220 -382 OFFCURVE",
"-353 -382 CURVE SMOOTH",
"-444 -382 OFFCURVE",
"-391 -216 OFFCURVE",
"-507 -216 CURVE SMOOTH",
"-557 -216 OFFCURVE",
"-588 -253 OFFCURVE",
"-588 -304 CURVE SMOOTH",
"-588 -384 OFFCURVE",
"-521 -440 OFFCURVE",
"-400 -440 CURVE SMOOTH",
"-106 -440 OFFCURVE",
"127 -178 OFFCURVE",
"301 349 CURVE SMOOTH",
"479 889 LINE SMOOTH",
"579 1190 OFFCURVE",
"687 1291 OFFCURVE",
"832 1291 CURVE SMOOTH"
);
},
{
closed = 1;
nodes = (
"1185 1427 OFFCURVE",
"1001 1268 OFFCURVE",
"897 958 CURVE SMOOTH",
"658 246 LINE SMOOTH",
"535 -120 OFFCURVE",
"397 -382 OFFCURVE",
"282 -382 CURVE SMOOTH",
"193 -382 OFFCURVE",
"248 -216 OFFCURVE",
"132 -216 CURVE SMOOTH",
"82 -216 OFFCURVE",
"51 -253 OFFCURVE",
"51 -304 CURVE SMOOTH",
"51 -384 OFFCURVE",
"117 -440 OFFCURVE",
"235 -440 CURVE SMOOTH",
"504 -440 OFFCURVE",
"703 -174 OFFCURVE",
"876 349 CURVE SMOOTH",
"1077 958 LINE SMOOTH",
"1172 1245 OFFCURVE",
"1286 1375 OFFCURVE",
"1443 1375 CURVE SMOOTH",
"1523 1375 OFFCURVE",
"1577 1353 OFFCURVE",
"1577 1320 CURVE SMOOTH",
"1577 1293 OFFCURVE",
"1556 1277 OFFCURVE",
"1556 1237 CURVE SMOOTH",
"1556 1181 OFFCURVE",
"1599 1140 OFFCURVE",
"1656 1140 CURVE SMOOTH",
"1712 1140 OFFCURVE",
"1754 1183 OFFCURVE",
"1754 1244 CURVE SMOOTH",
"1754 1348 OFFCURVE",
"1617 1427 OFFCURVE",
"1439 1427 CURVE SMOOTH {name = hr06;}"
);
}
);
width = 1121;
},
{
associatedMasterId = master01;
layerId = "CCA3CB14-3C2A-4D99-A472-E35F3E3F9C8D";
name = "Jan 9 19, 10:01";
paths = (
{
closed = 1;
nodes = (
"525 1014 LINE SMOOTH",
"616 1276 OFFCURVE",
"733 1380 OFFCURVE",
"850 1380 CURVE SMOOTH",
"929 1380 OFFCURVE",
"968 1357 OFFCURVE",
"968 1320 CURVE SMOOTH",
"968 1294 OFFCURVE",
"956 1273 OFFCURVE",
"956 1241 CURVE SMOOTH",
"956 1196 OFFCURVE",
"992 1165 OFFCURVE",
"1036 1165 CURVE SMOOTH",
"1088 1165 OFFCURVE",
"1119 1198 OFFCURVE",
"1119 1248 CURVE SMOOTH",
"1119 1350 OFFCURVE",
"1009 1427 OFFCURVE",
"859 1427 CURVE SMOOTH",
"663 1427 OFFCURVE",
"454 1326 OFFCURVE",
"351 1031 CURVE SMOOTH",
"87 246 LINE SMOOTH",
"-80 -231 OFFCURVE",
"-238 -380 OFFCURVE",
"-329 -380 CURVE SMOOTH",
"-420 -380 OFFCURVE",
"-371 -216 OFFCURVE",
"-487 -216 CURVE SMOOTH",
"-537 -216 OFFCURVE",
"-568 -253 OFFCURVE",
"-568 -304 CURVE SMOOTH",
"-568 -386 OFFCURVE",
"-502 -440 OFFCURVE",
"-380 -440 CURVE SMOOTH",
"-140 -440 OFFCURVE",
"96 -256 OFFCURVE",
"305 349 CURVE SMOOTH"
);
},
{
closed = 1;
nodes = (
"164 911 LINE",
"143 855 LINE",
"650 855 LINE",
"672 911 LINE"
);
}
);
width = 557;
},
{
associatedMasterId = master01;
layerId = "A5635FDE-0C26-47D4-8B33-E2D487EE4A39";
name = "Jan 9 19, 10:35";
paths = (
{
closed = 0;
nodes = (
"864 1427 LINE",
"610 1427 OFFCURVE",
"426 1268 OFFCURVE",
"322 958 CURVE SMOOTH",
"83 246 LINE SMOOTH",
"-42 -125 OFFCURVE",
"-220 -382 OFFCURVE",
"-353 -382 CURVE SMOOTH",
"-444 -382 OFFCURVE",
"-391 -216 OFFCURVE",
"-507 -216 CURVE SMOOTH",
"-557 -216 OFFCURVE",
"-588 -253 OFFCURVE",
"-588 -304 CURVE SMOOTH",
"-588 -384 OFFCURVE",
"-521 -440 OFFCURVE",
"-400 -440 CURVE SMOOTH",
"-106 -440 OFFCURVE",
"127 -178 OFFCURVE",
"301 349 CURVE SMOOTH",
"502 958 LINE SMOOTH",
"597 1245 OFFCURVE",
"711 1375 OFFCURVE",
"868 1375 CURVE SMOOTH"
);
},
{
closed = 1;
nodes = (
"164 911 LINE",
"143 855 LINE",
"650 855 LINE",
"672 911 LINE"
);
}
);
width = 557;
}
);
leftKerningGroup = f;
leftMetricsKey = f;
rightKerningGroup = f;
},
{
export = 0;
glyphname = f.fragment_1;
layers = (
{
associatedMasterId = master01;
layerId = "802DC178-2968-4689-BA99-BD2290573E1B";
name = "Jan 8 19, 16:47";
paths = (
{
closed = 1;
nodes = (
"515 1014 LINE SMOOTH",
"598 1277 OFFCURVE",
"717 1380 OFFCURVE",
"830 1380 CURVE SMOOTH",
"882 1380 OFFCURVE",
"918 1357 OFFCURVE",
"918 1320 CURVE SMOOTH",
"918 1294 OFFCURVE",
"906 1273 OFFCURVE",
"906 1241 CURVE SMOOTH",
"906 1196 OFFCURVE",
"942 1165 OFFCURVE",
"986 1165 CURVE SMOOTH",
"1038 1165 OFFCURVE",
"1069 1198 OFFCURVE",
"1069 1248 CURVE SMOOTH",
"1069 1350 OFFCURVE",
"963 1427 OFFCURVE",
"839 1427 CURVE SMOOTH",
"647 1427 OFFCURVE",
"437 1327 OFFCURVE",
"341 1031 CURVE SMOOTH",
"87 246 LINE SMOOTH",
"-69 -235 OFFCURVE",
"-238 -380 OFFCURVE",
"-329 -380 CURVE SMOOTH",
"-420 -380 OFFCURVE",
"-371 -216 OFFCURVE",
"-487 -216 CURVE SMOOTH",
"-537 -216 OFFCURVE",
"-568 -253 OFFCURVE",
"-568 -304 CURVE SMOOTH",
"-568 -386 OFFCURVE",
"-502 -440 OFFCURVE",
"-380 -440 CURVE SMOOTH",
"-140 -440 OFFCURVE",
"112 -262 OFFCURVE",
"305 349 CURVE SMOOTH"
);
},
{
closed = 1;
nodes = (
"164 911 LINE",
"143 855 LINE",
"650 855 LINE",
"672 911 LINE"
);
}
);
width = 557;
},
{
associatedMasterId = master01;
layerId = "BAAEB8E4-1D37-4217-9235-A593962F46F4";
name = "Jan 8 19, 16:50";
paths = (
{
closed = 1;
nodes = (
"-160 -440 OFFCURVE",
"50 -199 OFFCURVE",
"285 349 CURVE SMOOTH",
"504 855 LINE",
"670 855 LINE",
"692 911 LINE {name = hr01;}",
"524 911 LINE",
"565 1014 LINE SMOOTH",
"669 1271 OFFCURVE",
"767 1380 OFFCURVE",
"880 1380 CURVE SMOOTH",
"932 1380 OFFCURVE",
"968 1357 OFFCURVE",
"968 1320 CURVE SMOOTH",
"968 1294 OFFCURVE",
"956 1273 OFFCURVE",
"956 1241 CURVE SMOOTH",
"956 1196 OFFCURVE",
"992 1165 OFFCURVE",
"1036 1165 CURVE SMOOTH",
"1088 1165 OFFCURVE",
"1119 1198 OFFCURVE",
"1119 1248 CURVE SMOOTH",
"1119 1350 OFFCURVE",
"1013 1427 OFFCURVE",
"889 1427 CURVE SMOOTH",
"706 1427 OFFCURVE",
"518 1318 OFFCURVE",
"391 1031 CURVE SMOOTH",
"337 911 LINE {name = hr02;}",
"184 911 LINE",
"163 855 LINE",
"314 855 LINE",
"67 246 LINE SMOOTH",
"-122 -222 OFFCURVE",
"-258 -380 OFFCURVE",
"-349 -380 CURVE SMOOTH",
"-440 -380 OFFCURVE",
"-391 -227 OFFCURVE",
"-507 -227 CURVE SMOOTH",
"-557 -227 OFFCURVE",
"-588 -253 OFFCURVE",
"-588 -297 CURVE SMOOTH",
"-588 -382 OFFCURVE",
"-516 -440 OFFCURVE",
"-400 -440 CURVE SMOOTH"
);
}
);
width = 557;
},
{
layerId = master01;
paths = (
{
closed = 1;
nodes = (
"1152 1304 LINE",
"1085 1380 OFFCURVE",
"994 1427 OFFCURVE",
"864 1427 CURVE SMOOTH",
"610 1427 OFFCURVE",
"426 1268 OFFCURVE",
"322 958 CURVE SMOOTH",
"83 246 LINE SMOOTH",
"-42 -125 OFFCURVE",
"-220 -382 OFFCURVE",
"-353 -382 CURVE SMOOTH",
"-444 -382 OFFCURVE",
"-391 -216 OFFCURVE",
"-507 -216 CURVE SMOOTH",
"-557 -216 OFFCURVE",
"-588 -253 OFFCURVE",
"-588 -304 CURVE SMOOTH",
"-588 -384 OFFCURVE",
"-521 -440 OFFCURVE",
"-400 -440 CURVE SMOOTH",
"-106 -440 OFFCURVE",
"127 -178 OFFCURVE",
"301 349 CURVE SMOOTH",
"502 958 LINE SMOOTH",
"597 1245 OFFCURVE",
"711 1375 OFFCURVE",
"857 1375 CURVE SMOOTH",
"965 1375 OFFCURVE",
"1017 1274 OFFCURVE",
"1016 1168 CURVE"
);
},
{
closed = 1;
nodes = (
"164 911 LINE",
"143 855 LINE",
"650 855 LINE",
"672 911 LINE"
);
}
);
width = 557;
},
{
associatedMasterId = master01;
layerId = "CCA3CB14-3C2A-4D99-A472-E35F3E3F9C8D";
name = "Jan 9 19, 10:01";
paths = (
{
closed = 1;
nodes = (
"525 1014 LINE SMOOTH",
"616 1276 OFFCURVE",
"733 1380 OFFCURVE",
"850 1380 CURVE SMOOTH",
"929 1380 OFFCURVE",
"968 1357 OFFCURVE",
"968 1320 CURVE SMOOTH",
"968 1294 OFFCURVE",
"956 1273 OFFCURVE",
"956 1241 CURVE SMOOTH",
"956 1196 OFFCURVE",
"992 1165 OFFCURVE",
"1036 1165 CURVE SMOOTH",
"1088 1165 OFFCURVE",
"1119 1198 OFFCURVE",
"1119 1248 CURVE SMOOTH",
"1119 1350 OFFCURVE",
"1009 1427 OFFCURVE",
"859 1427 CURVE SMOOTH",
"663 1427 OFFCURVE",
"454 1326 OFFCURVE",
"351 1031 CURVE SMOOTH",
"87 246 LINE SMOOTH",
"-80 -231 OFFCURVE",
"-238 -380 OFFCURVE",
"-329 -380 CURVE SMOOTH",
"-420 -380 OFFCURVE",
"-371 -216 OFFCURVE",
"-487 -216 CURVE SMOOTH",
"-537 -216 OFFCURVE",
"-568 -253 OFFCURVE",
"-568 -304 CURVE SMOOTH",
"-568 -386 OFFCURVE",
"-502 -440 OFFCURVE",
"-380 -440 CURVE SMOOTH",
"-140 -440 OFFCURVE",
"96 -256 OFFCURVE",
"305 349 CURVE SMOOTH"
);
},
{
closed = 1;
nodes = (
"164 911 LINE",
"143 855 LINE",
"650 855 LINE",
"672 911 LINE"
);
}
);
width = 557;
},
{
associatedMasterId = master01;
layerId = "A5635FDE-0C26-47D4-8B33-E2D487EE4A39";
name = "Jan 9 19, 10:35";
paths = (
{
closed = 0;
nodes = (
"864 1427 LINE",
"610 1427 OFFCURVE",
"426 1268 OFFCURVE",
"322 958 CURVE SMOOTH",
"83 246 LINE SMOOTH",
"-42 -125 OFFCURVE",
"-220 -382 OFFCURVE",
"-353 -382 CURVE SMOOTH",
"-444 -382 OFFCURVE",
"-391 -216 OFFCURVE",
"-507 -216 CURVE SMOOTH",
"-557 -216 OFFCURVE",
"-588 -253 OFFCURVE",
"-588 -304 CURVE SMOOTH",
"-588 -384 OFFCURVE",
"-521 -440 OFFCURVE",
"-400 -440 CURVE SMOOTH",
"-106 -440 OFFCURVE",
"127 -178 OFFCURVE",
"301 349 CURVE SMOOTH",
"502 958 LINE SMOOTH",
"597 1245 OFFCURVE",
"711 1375 OFFCURVE",
"868 1375 CURVE SMOOTH"
);
},
{
closed = 1;
nodes = (
"164 911 LINE",
"143 855 LINE",
"650 855 LINE",
"672 911 LINE"
);
}
);
width = 557;
}
);
leftKerningGroup = f;
rightKerningGroup = f;
},
{
export = 0;
glyphname = f.fragment_2;
layers = (
{
associatedMasterId = master01;
layerId = "802DC178-2968-4689-BA99-BD2290573E1B";
name = "Jan 8 19, 16:47";
paths = (
{
closed = 1;
nodes = (
"515 1014 LINE SMOOTH",
"598 1277 OFFCURVE",
"717 1380 OFFCURVE",
"830 1380 CURVE SMOOTH",
"882 1380 OFFCURVE",
"918 1357 OFFCURVE",
"918 1320 CURVE SMOOTH",
"918 1294 OFFCURVE",
"906 1273 OFFCURVE",
"906 1241 CURVE SMOOTH",
"906 1196 OFFCURVE",
"942 1165 OFFCURVE",
"986 1165 CURVE SMOOTH",
"1038 1165 OFFCURVE",
"1069 1198 OFFCURVE",
"1069 1248 CURVE SMOOTH",
"1069 1350 OFFCURVE",
"963 1427 OFFCURVE",
"839 1427 CURVE SMOOTH",
"647 1427 OFFCURVE",
"437 1327 OFFCURVE",
"341 1031 CURVE SMOOTH",
"87 246 LINE SMOOTH",
"-69 -235 OFFCURVE",
"-238 -380 OFFCURVE",
"-329 -380 CURVE SMOOTH",
"-420 -380 OFFCURVE",
"-371 -216 OFFCURVE",
"-487 -216 CURVE SMOOTH",
"-537 -216 OFFCURVE",
"-568 -253 OFFCURVE",
"-568 -304 CURVE SMOOTH",
"-568 -386 OFFCURVE",
"-502 -440 OFFCURVE",
"-380 -440 CURVE SMOOTH",
"-140 -440 OFFCURVE",
"112 -262 OFFCURVE",
"305 349 CURVE SMOOTH"
);
},
{
closed = 1;
nodes = (
"164 911 LINE",
"143 855 LINE",
"650 855 LINE",
"672 911 LINE"
);
}
);
width = 557;
},
{
associatedMasterId = master01;
layerId = "BAAEB8E4-1D37-4217-9235-A593962F46F4";
name = "Jan 8 19, 16:50";
paths = (
{
closed = 1;
nodes = (
"-160 -440 OFFCURVE",
"50 -199 OFFCURVE",
"285 349 CURVE SMOOTH",
"504 855 LINE",
"670 855 LINE",
"692 911 LINE {name = hr01;}",
"524 911 LINE",
"565 1014 LINE SMOOTH",
"669 1271 OFFCURVE",
"767 1380 OFFCURVE",
"880 1380 CURVE SMOOTH",
"932 1380 OFFCURVE",
"968 1357 OFFCURVE",
"968 1320 CURVE SMOOTH",
"968 1294 OFFCURVE",
"956 1273 OFFCURVE",
"956 1241 CURVE SMOOTH",
"956 1196 OFFCURVE",
"992 1165 OFFCURVE",
"1036 1165 CURVE SMOOTH",
"1088 1165 OFFCURVE",
"1119 1198 OFFCURVE",
"1119 1248 CURVE SMOOTH",
"1119 1350 OFFCURVE",
"1013 1427 OFFCURVE",
"889 1427 CURVE SMOOTH",
"706 1427 OFFCURVE",
"518 1318 OFFCURVE",
"391 1031 CURVE SMOOTH",
"337 911 LINE {name = hr02;}",
"184 911 LINE",
"163 855 LINE",
"314 855 LINE",
"67 246 LINE SMOOTH",
"-122 -222 OFFCURVE",
"-258 -380 OFFCURVE",
"-349 -380 CURVE SMOOTH",
"-440 -380 OFFCURVE",
"-391 -227 OFFCURVE",
"-507 -227 CURVE SMOOTH",
"-557 -227 OFFCURVE",
"-588 -253 OFFCURVE",
"-588 -297 CURVE SMOOTH",
"-588 -382 OFFCURVE",
"-516 -440 OFFCURVE",
"-400 -440 CURVE SMOOTH"
);
}
);
width = 557;
},
{
layerId = master01;
paths = (
{
closed = 1;
nodes = (
"164 911 LINE",
"143 855 LINE",
"1225 855 LINE",
"1247 911 LINE"
);
},
{
closed = 1;
nodes = (
"938 1291 OFFCURVE",
"989 1239 OFFCURVE",
"995 1126 CURVE",
"1108 1261 LINE",
"1049 1315 OFFCURVE",
"964 1341 OFFCURVE",
"847 1341 CURVE SMOOTH",
"601 1341 OFFCURVE",
"409 1216 OFFCURVE",
"299 889 CURVE SMOOTH",
"83 246 LINE SMOOTH",
"-42 -125 OFFCURVE",
"-220 -382 OFFCURVE",
"-353 -382 CURVE SMOOTH",
"-444 -382 OFFCURVE",
"-391 -216 OFFCURVE",
"-507 -216 CURVE SMOOTH",
"-557 -216 OFFCURVE",
"-588 -253 OFFCURVE",
"-588 -304 CURVE SMOOTH",
"-588 -384 OFFCURVE",
"-521 -440 OFFCURVE",
"-400 -440 CURVE SMOOTH",
"-106 -440 OFFCURVE",
"127 -178 OFFCURVE",
"301 349 CURVE SMOOTH",
"479 889 LINE SMOOTH",
"579 1190 OFFCURVE",
"687 1291 OFFCURVE",
"832 1291 CURVE SMOOTH"
);
}
);
width = 557;
},
{
associatedMasterId = master01;
layerId = "CCA3CB14-3C2A-4D99-A472-E35F3E3F9C8D";
name = "Jan 9 19, 10:01";
paths = (
{
closed = 1;
nodes = (
"525 1014 LINE SMOOTH",
"616 1276 OFFCURVE",
"733 1380 OFFCURVE",
"850 1380 CURVE SMOOTH",
"929 1380 OFFCURVE",
"968 1357 OFFCURVE",
"968 1320 CURVE SMOOTH",
"968 1294 OFFCURVE",
"956 1273 OFFCURVE",
"956 1241 CURVE SMOOTH",
"956 1196 OFFCURVE",
"992 1165 OFFCURVE",
"1036 1165 CURVE SMOOTH",
"1088 1165 OFFCURVE",
"1119 1198 OFFCURVE",
"1119 1248 CURVE SMOOTH",
"1119 1350 OFFCURVE",
"1009 1427 OFFCURVE",
"859 1427 CURVE SMOOTH",
"663 1427 OFFCURVE",
"454 1326 OFFCURVE",
"351 1031 CURVE SMOOTH",
"87 246 LINE SMOOTH",
"-80 -231 OFFCURVE",
"-238 -380 OFFCURVE",
"-329 -380 CURVE SMOOTH",
"-420 -380 OFFCURVE",
"-371 -216 OFFCURVE",
"-487 -216 CURVE SMOOTH",
"-537 -216 OFFCURVE",
"-568 -253 OFFCURVE",
"-568 -304 CURVE SMOOTH",
"-568 -386 OFFCURVE",
"-502 -440 OFFCURVE",
"-380 -440 CURVE SMOOTH",
"-140 -440 OFFCURVE",
"96 -256 OFFCURVE",
"305 349 CURVE SMOOTH"
);
},
{
closed = 1;
nodes = (
"164 911 LINE",
"143 855 LINE",
"650 855 LINE",
"672 911 LINE"
);
}
);
width = 557;
}
);
leftKerningGroup = f;
rightKerningGroup = f;
},
{
export = 0;
glyphname = f.fragment_3;
layers = (
{
associatedMasterId = master01;
layerId = "802DC178-2968-4689-BA99-BD2290573E1B";
name = "Jan 8 19, 16:47";
paths = (
{
closed = 1;
nodes = (
"515 1014 LINE SMOOTH",
"598 1277 OFFCURVE",
"717 1380 OFFCURVE",
"830 1380 CURVE SMOOTH",
"882 1380 OFFCURVE",
"918 1357 OFFCURVE",
"918 1320 CURVE SMOOTH",
"918 1294 OFFCURVE",
"906 1273 OFFCURVE",
"906 1241 CURVE SMOOTH",
"906 1196 OFFCURVE",
"942 1165 OFFCURVE",
"986 1165 CURVE SMOOTH",
"1038 1165 OFFCURVE",
"1069 1198 OFFCURVE",
"1069 1248 CURVE SMOOTH",
"1069 1350 OFFCURVE",
"963 1427 OFFCURVE",
"839 1427 CURVE SMOOTH",
"647 1427 OFFCURVE",
"437 1327 OFFCURVE",
"341 1031 CURVE SMOOTH",
"87 246 LINE SMOOTH",
"-69 -235 OFFCURVE",
"-238 -380 OFFCURVE",
"-329 -380 CURVE SMOOTH",
"-420 -380 OFFCURVE",
"-371 -216 OFFCURVE",
"-487 -216 CURVE SMOOTH",
"-537 -216 OFFCURVE",
"-568 -253 OFFCURVE",
"-568 -304 CURVE SMOOTH",
"-568 -386 OFFCURVE",
"-502 -440 OFFCURVE",
"-380 -440 CURVE SMOOTH",
"-140 -440 OFFCURVE",
"112 -262 OFFCURVE",
"305 349 CURVE SMOOTH"
);
},
{
closed = 1;
nodes = (
"164 911 LINE",
"143 855 LINE",
"650 855 LINE",
"672 911 LINE"
);
}
);
width = 557;
},
{
associatedMasterId = master01;
layerId = "BAAEB8E4-1D37-4217-9235-A593962F46F4";
name = "Jan 8 19, 16:50";
paths = (
{
closed = 1;
nodes = (
"-160 -440 OFFCURVE",
"50 -199 OFFCURVE",
"285 349 CURVE SMOOTH",
"504 855 LINE",
"670 855 LINE",
"692 911 LINE {name = hr01;}",
"524 911 LINE",
"565 1014 LINE SMOOTH",
"669 1271 OFFCURVE",
"767 1380 OFFCURVE",
"880 1380 CURVE SMOOTH",
"932 1380 OFFCURVE",
"968 1357 OFFCURVE",
"968 1320 CURVE SMOOTH",
"968 1294 OFFCURVE",
"956 1273 OFFCURVE",
"956 1241 CURVE SMOOTH",
"956 1196 OFFCURVE",
"992 1165 OFFCURVE",
"1036 1165 CURVE SMOOTH",
"1088 1165 OFFCURVE",
"1119 1198 OFFCURVE",
"1119 1248 CURVE SMOOTH",
"1119 1350 OFFCURVE",
"1013 1427 OFFCURVE",
"889 1427 CURVE SMOOTH",
"706 1427 OFFCURVE",
"518 1318 OFFCURVE",
"391 1031 CURVE SMOOTH",
"337 911 LINE {name = hr02;}",
"184 911 LINE",
"163 855 LINE",
"314 855 LINE",
"67 246 LINE SMOOTH",
"-122 -222 OFFCURVE",
"-258 -380 OFFCURVE",
"-349 -380 CURVE SMOOTH",
"-440 -380 OFFCURVE",
"-391 -227 OFFCURVE",
"-507 -227 CURVE SMOOTH",
"-557 -227 OFFCURVE",
"-588 -253 OFFCURVE",
"-588 -297 CURVE SMOOTH",
"-588 -382 OFFCURVE",
"-516 -440 OFFCURVE",
"-400 -440 CURVE SMOOTH"
);
}
);
width = 557;
},
{
associatedMasterId = master01;
layerId = "CCA3CB14-3C2A-4D99-A472-E35F3E3F9C8D";
name = "Jan 9 19, 10:01";
paths = (
{
closed = 1;
nodes = (
"525 1014 LINE SMOOTH",
"616 1276 OFFCURVE",
"733 1380 OFFCURVE",
"850 1380 CURVE SMOOTH",
"929 1380 OFFCURVE",
"968 1357 OFFCURVE",
"968 1320 CURVE SMOOTH",
"968 1294 OFFCURVE",
"956 1273 OFFCURVE",
"956 1241 CURVE SMOOTH",
"956 1196 OFFCURVE",
"992 1165 OFFCURVE",
"1036 1165 CURVE SMOOTH",
"1088 1165 OFFCURVE",
"1119 1198 OFFCURVE",
"1119 1248 CURVE SMOOTH",
"1119 1350 OFFCURVE",
"1009 1427 OFFCURVE",
"859 1427 CURVE SMOOTH",
"663 1427 OFFCURVE",
"454 1326 OFFCURVE",
"351 1031 CURVE SMOOTH",
"87 246 LINE SMOOTH",
"-80 -231 OFFCURVE",
"-238 -380 OFFCURVE",
"-329 -380 CURVE SMOOTH",
"-420 -380 OFFCURVE",
"-371 -216 OFFCURVE",
"-487 -216 CURVE SMOOTH",
"-537 -216 OFFCURVE",
"-568 -253 OFFCURVE",
"-568 -304 CURVE SMOOTH",
"-568 -386 OFFCURVE",
"-502 -440 OFFCURVE",
"-380 -440 CURVE SMOOTH",
"-140 -440 OFFCURVE",
"96 -256 OFFCURVE",
"305 349 CURVE SMOOTH"
);
},
{
closed = 1;
nodes = (
"164 911 LINE",
"143 855 LINE",
"650 855 LINE",
"672 911 LINE"
);
}
);
width = 557;
},
{
associatedMasterId = master01;
components = (
{
name = f.fragment_2;
},
{
name = f.fragment_1;
transform = "{1, 0, 0, 1, 557, 0}";
}
);
layerId = "CCDC5411-9B32-4A3F-8C27-D1C4C9DF530C";
name = "Jan 9 19, 10:37";
width = 1114;
},
{
layerId = master01;
paths = (
{
closed = 1;
nodes = (
"164 911 LINE",
"143 855 LINE",
"1225 855 LINE",
"1247 911 LINE"
);
},
{
closed = 1;
nodes = (
"938 1291 OFFCURVE",
"989 1239 OFFCURVE",
"995 1126 CURVE",
"1108 1261 LINE",
"1049 1315 OFFCURVE",
"964 1341 OFFCURVE",
"847 1341 CURVE SMOOTH",
"601 1341 OFFCURVE",
"409 1216 OFFCURVE",
"299 889 CURVE SMOOTH",
"83 246 LINE SMOOTH",
"-42 -125 OFFCURVE",
"-220 -382 OFFCURVE",
"-353 -382 CURVE SMOOTH",
"-444 -382 OFFCURVE",
"-391 -216 OFFCURVE",
"-507 -216 CURVE SMOOTH",
"-557 -216 OFFCURVE",
"-588 -253 OFFCURVE",
"-588 -304 CURVE SMOOTH",
"-588 -384 OFFCURVE",
"-521 -440 OFFCURVE",
"-400 -440 CURVE SMOOTH",
"-106 -440 OFFCURVE",
"127 -178 OFFCURVE",
"301 349 CURVE SMOOTH",
"479 889 LINE SMOOTH",
"579 1190 OFFCURVE",
"687 1291 OFFCURVE",
"832 1291 CURVE SMOOTH"
);
},
{
closed = 1;
nodes = (
"1185 1427 OFFCURVE",
"1001 1268 OFFCURVE",
"897 958 CURVE SMOOTH",
"658 246 LINE SMOOTH",
"535 -120 OFFCURVE",
"397 -382 OFFCURVE",
"282 -382 CURVE SMOOTH",
"193 -382 OFFCURVE",
"248 -216 OFFCURVE",
"132 -216 CURVE SMOOTH",
"82 -216 OFFCURVE",
"51 -253 OFFCURVE",
"51 -304 CURVE SMOOTH",
"51 -384 OFFCURVE",
"117 -440 OFFCURVE",
"235 -440 CURVE SMOOTH",
"504 -440 OFFCURVE",
"703 -174 OFFCURVE",
"876 349 CURVE SMOOTH",
"1077 958 LINE SMOOTH",
"1172 1245 OFFCURVE",
"1286 1375 OFFCURVE",
"1432 1375 CURVE SMOOTH",
"1540 1375 OFFCURVE",
"1592 1274 OFFCURVE",
"1591 1168 CURVE",
"1727 1304 LINE",
"1660 1380 OFFCURVE",
"1569 1427 OFFCURVE",
"1439 1427 CURVE SMOOTH"
);
}
);
visible = 1;
width = 1133;
}
);
leftKerningGroup = f;
leftMetricsKey = f;
rightKerningGroup = f;
rightMetricsKey = f;
},
{
export = 0;
glyphname = h.fragment_1;
layers = (
{
anchors = (
{
name = bottom;
position = "{287, 0}";
},
{
name = top;
position = "{844, 1119}";
}
);
layerId = master01;
paths = (
{
closed = 1;
nodes = (
"664 -18 OFFCURVE",
"782 62 OFFCURVE",
"898 213 CURVE",
"862 239 LINE",
"780 146 OFFCURVE",
"703 84 OFFCURVE",
"666 84 CURVE SMOOTH",
"651 84 OFFCURVE",
"640 93 OFFCURVE",
"640 110 CURVE SMOOTH",
"640 131 OFFCURVE",
"651 162 OFFCURVE",
"674 208 CURVE SMOOTH",
"875 619 LINE SMOOTH",
"910 690 OFFCURVE",
"922 746 OFFCURVE",
"922 787 CURVE SMOOTH",
"922 880 OFFCURVE",
"861 927 OFFCURVE",
"762 927 CURVE SMOOTH",
"635 927 OFFCURVE",
"524 848 OFFCURVE",
"379 653 CURVE",
"370 656 LINE",
"701 1402 LINE",
"694 1409 LINE",
"457 1348 LINE",
"466 1277 LINE",
"-61 0 LINE",
"99 0 LINE {name = hr01;}",
"255 333 LINE SMOOTH",
"398 638 OFFCURVE",
"603 868 OFFCURVE",
"719 868 CURVE SMOOTH",
"752 868 OFFCURVE",
"769 851 OFFCURVE",
"769 820 CURVE SMOOTH",
"769 796 OFFCURVE",
"760 765 OFFCURVE",
"745 734 CURVE SMOOTH",
"515 271 LINE SMOOTH",
"476 192 OFFCURVE",
"454 131 OFFCURVE",
"454 77 CURVE SMOOTH",
"454 16 OFFCURVE",
"484 -18 OFFCURVE",
"554 -18 CURVE SMOOTH"
);
}
);
width = 1022;
}
);
leftKerningGroup = h;
rightKerningGroup = n;
},
{
export = 0;
glyphname = i.fragment_1;
layers = (
{
anchors = (
{
name = bottom;
position = "{154, 0}";
}
);
layerId = master01;
paths = (
{
closed = 1;
nodes = (
"-172 855 LINE",
"300 855 LINE SMOOTH",
"314 855 OFFCURVE",
"323 848 OFFCURVE",
"323 834 CURVE SMOOTH",
"323 827 OFFCURVE",
"319 814 OFFCURVE",
"314 803 CURVE SMOOTH",
"65 190 LINE SMOOTH",
"49 151 OFFCURVE",
"39 111 OFFCURVE",
"39 81 CURVE SMOOTH",
"39 19 OFFCURVE",
"78 -18 OFFCURVE",
"146 -18 CURVE SMOOTH",
"240 -18 OFFCURVE",
"364 65 OFFCURVE",
"472 201 CURVE",
"438 222 LINE",
"324 110 OFFCURVE",
"290 84 OFFCURVE",
"259 84 CURVE SMOOTH",
"237 84 OFFCURVE",
"223 98 OFFCURVE",
"223 117 CURVE SMOOTH",
"223 124 OFFCURVE",
"223 129 OFFCURVE",
"228 140 CURVE SMOOTH",
"474 730 LINE SMOOTH",
"491 771 OFFCURVE",
"501 813 OFFCURVE",
"501 842 CURVE SMOOTH",
"501 892 OFFCURVE",
"470 928 OFFCURVE",
"426 928 CURVE SMOOTH {name = hr03;}",
"383 928 OFFCURVE",
"302 911 OFFCURVE",
"245 911 CURVE SMOOTH {name = hr04;}",
"-149 911 LINE"
);
}
);
width = 584;
}
);
leftKerningGroup = i;
rightKerningGroup = i;
},
{
export = 0;
glyphname = j.fragment_1;
layers = (
{
layerId = master01;
paths = (
{
closed = 1;
nodes = (
"305 798 OFFCURVE",
"277 720 OFFCURVE",
"166 434 CURVE SMOOTH {name = hr01;}",
"-23 -48 LINE SMOOTH",
"-123 -303 OFFCURVE",
"-182 -380 OFFCURVE",
"-250 -380 CURVE SMOOTH",
"-360 -380 OFFCURVE",
"-302 -227 OFFCURVE",
"-422 -227 CURVE SMOOTH",
"-476 -227 OFFCURVE",
"-501 -256 OFFCURVE",
"-501 -308 CURVE SMOOTH",
"-501 -389 OFFCURVE",
"-417 -440 OFFCURVE",
"-300 -440 CURVE SMOOTH",
"-130 -440 OFFCURVE",
"4 -333 OFFCURVE",
"92 -140 CURVE SMOOTH",
"311 349 LINE SMOOTH",
"433 620 OFFCURVE",
"485 784 OFFCURVE",
"487 842 CURVE SMOOTH",
"487 892 OFFCURVE",
"456 928 OFFCURVE",
"412 928 CURVE SMOOTH {name = hr03;}",
"369 928 OFFCURVE",
"288 911 OFFCURVE",
"231 911 CURVE SMOOTH {name = hr04;}",
"-163 911 LINE",
"-186 855 LINE",
"282 855 LINE SMOOTH",
"296 855 OFFCURVE",
"305 848 OFFCURVE",
"305 834 CURVE SMOOTH"
);
}
);
width = 526;
}
);
leftKerningGroup = j;
rightKerningGroup = j;
},
{
export = 0;
glyphname = k.fragment_1;
layers = (
{
anchors = (
{
name = bottom;
position = "{296, 0}";
}
);
layerId = master01;
paths = (
{
closed = 1;
nodes = (
"361 613 OFFCURVE",
"422 705 OFFCURVE",
"506 778 CURVE SMOOTH",
"563 827 OFFCURVE",
"615 853 OFFCURVE",
"666 853 CURVE SMOOTH {name = hr07;}",
"709 853 OFFCURVE",
"732 830 OFFCURVE",
"732 784 CURVE SMOOTH",
"732 631 OFFCURVE",
"531 475 OFFCURVE",
"302 461 CURVE"
);
},
{
closed = 1;
nodes = (
"640 57 OFFCURVE",
"617 91 OFFCURVE",
"570 190 CURVE SMOOTH",
"453 437 LINE",
"699 504 OFFCURVE",
"905 669 OFFCURVE",
"905 799 CURVE SMOOTH",
"905 882 OFFCURVE",
"848 928 OFFCURVE",
"743 928 CURVE SMOOTH",
"637 928 OFFCURVE",
"520 875 OFFCURVE",
"450 794 CURVE",
"443 794 LINE",
"709 1402 LINE",
"702 1409 LINE",
"465 1348 LINE",
"474 1277 LINE",
"-57 0 LINE",
"111 0 LINE",
"275 404 LINE",
"288 404 LINE",
"407 154 LINE SMOOTH",
"463 36 OFFCURVE",
"522 -18 OFFCURVE",
"604 -18 CURVE SMOOTH",
"689 -18 OFFCURVE",
"784 41 OFFCURVE",
"827 118 CURVE",
"793 138 LINE",
"752 84 OFFCURVE",
"712 57 OFFCURVE",
"676 57 CURVE SMOOTH"
);
}
);
width = 949;
}
);
leftKerningGroup = h;
rightKerningGroup = k;
rightMetricsKey = k;
},
{
export = 0;
glyphname = l.fragment_1;
layers = (
{
anchors = (
{
name = topcap;
position = "{646, 1473}";
}
);
layerId = master01;
paths = (
{
closed = 1;
nodes = (
"179 -18 OFFCURVE",
"310 61 OFFCURVE",
"425 201 CURVE",
"387 222 LINE",
"276 104 OFFCURVE",
"233 84 OFFCURVE",
"206 84 CURVE SMOOTH",
"189 84 OFFCURVE",
"170 97 OFFCURVE",
"170 115 CURVE SMOOTH",
"170 154 OFFCURVE",
"200 222 OFFCURVE",
"330 524 CURVE SMOOTH",
"707 1402 LINE",
"700 1409 LINE {name = hr00;}",
"463 1348 LINE",
"473 1284 LINE",
"271 801 LINE SMOOTH",
"10 179 OFFCURVE",
"-2 147 OFFCURVE",
"-2 90 CURVE SMOOTH",
"-2 24 OFFCURVE",
"31 -18 OFFCURVE",
"86 -18 CURVE SMOOTH"
);
}
);
width = 543;
}
);
leftKerningGroup = l;
rightKerningGroup = l;
},
{
export = 0;
glyphname = t.fragment_1;
layers = (
{
anchors = (
{
name = bottom;
position = "{70, 0}";
}
);
layerId = master01;
paths = (
{
closed = 1;
nodes = (
"208 -18 OFFCURVE",
"330 62 OFFCURVE",
"440 201 CURVE",
"405 222 LINE",
"313 125 OFFCURVE",
"262 84 OFFCURVE",
"227 84 CURVE SMOOTH",
"201 84 OFFCURVE",
"189 100 OFFCURVE",
"189 125 CURVE SMOOTH",
"189 149 OFFCURVE",
"203 179 OFFCURVE",
"351 524 CURVE SMOOTH",
"493 855 LINE",
"648 855 LINE",
"667 911 LINE",
"516 911 LINE",
"574 1045 LINE",
"389 1028 LINE",
"340 911 LINE",
"-108 911 LINE",
"-126 855 LINE {name = hr00;}",
"316 855 LINE",
"136 438 LINE SMOOTH",
"32 197 OFFCURVE",
"18 140 OFFCURVE",
"18 91 CURVE SMOOTH",
"18 16 OFFCURVE",
"39 -18 OFFCURVE",
"108 -18 CURVE SMOOTH"
);
}
);
width = 583;
}
);
leftKerningGroup = t;
rightKerningGroup = t;
},
{
glyphname = ordfeminine;
layers = (
{
layerId = master01;
paths = (
{
closed = 1;
nodes = (
"483 726 OFFCURVE",
"552 780 OFFCURVE",
"640 907 CURVE",
"645 904 LINE",
"615 855 OFFCURVE",
"606 823 OFFCURVE",
"606 791 CURVE SMOOTH",
"606 748 OFFCURVE",
"633 726 OFFCURVE",
"686 726 CURVE SMOOTH",
"739 726 OFFCURVE",
"818 773 OFFCURVE",
"902 868 CURVE",
"871 892 LINE",
"808 821 OFFCURVE",
"770 792 OFFCURVE",
"748 792 CURVE SMOOTH",
"737 792 OFFCURVE",
"730 799 OFFCURVE",
"730 813 CURVE SMOOTH",
"730 821 OFFCURVE",
"732 832 OFFCURVE",
"741 859 CURVE",
"934 1330 LINE",
"812 1330 LINE",
"792 1289 LINE",
"767 1327 OFFCURVE",
"741 1341 OFFCURVE",
"699 1341 CURVE SMOOTH",
"509 1341 OFFCURVE",
"269 1076 OFFCURVE",
"269 873 CURVE SMOOTH",
"269 780 OFFCURVE",
"321 726 OFFCURVE",
"409 726 CURVE SMOOTH"
);
},
{
closed = 1;
nodes = (
"405 791 OFFCURVE",
"396 812 OFFCURVE",
"396 855 CURVE SMOOTH",
"396 1004 OFFCURVE",
"595 1289 OFFCURVE",
"701 1289 CURVE SMOOTH",
"729 1289 OFFCURVE",
"753 1267 OFFCURVE",
"753 1232 CURVE SMOOTH",
"753 1212 OFFCURVE",
"751 1188 OFFCURVE",
"729 1136 CURVE SMOOTH",
"643 947 OFFCURVE",
"509 791 OFFCURVE",
"437 791 CURVE SMOOTH"
);
}
);
width = 816;
}
);
unicode = 00AA;
},
{
glyphname = ordmasculine;
layers = (
{
layerId = master01;
paths = (
{
closed = 1;
nodes = (
"656 726 OFFCURVE",
"877 954 OFFCURVE",
"877 1156 CURVE SMOOTH",
"877 1271 OFFCURVE",
"808 1341 OFFCURVE",
"698 1341 CURVE SMOOTH",
"500 1341 OFFCURVE",
"280 1112 OFFCURVE",
"280 909 CURVE SMOOTH",
"280 796 OFFCURVE",
"349 726 OFFCURVE",
"459 726 CURVE SMOOTH"
);
},
{
closed = 1;
nodes = (
"416 782 OFFCURVE",
"398 808 OFFCURVE",
"398 859 CURVE SMOOTH",
"398 1024 OFFCURVE",
"586 1284 OFFCURVE",
"706 1284 CURVE SMOOTH",
"741 1284 OFFCURVE",
"760 1260 OFFCURVE",
"760 1212 CURVE SMOOTH",
"760 1056 OFFCURVE",
"563 782 OFFCURVE",
"450 782 CURVE SMOOTH"
);
}
);
width = 726;
}
);
unicode = 00BA;
},
{
glyphname = uni03BC;
layers = (
{
anchors = (
{
name = top;
position = "{767, 1119}";
}
);
layerId = master01;
paths = (
{
closed = 1;
nodes = (
"-50 -416 OFFCURVE",
"-7 -330 OFFCURVE",
"-2 -172 CURVE SMOOTH",
"2 -25 OFFCURVE",
"24 67 OFFCURVE",
"77 190 CURVE",
"84 190 LINE",
"81 167 OFFCURVE",
"79 146 OFFCURVE",
"79 127 CURVE SMOOTH",
"79 32 OFFCURVE",
"120 -18 OFFCURVE",
"199 -18 CURVE SMOOTH",
"306 -18 OFFCURVE",
"419 72 OFFCURVE",
"555 258 CURVE",
"563 254 LINE",
"529 186 OFFCURVE",
"511 125 OFFCURVE",
"511 84 CURVE SMOOTH",
"511 24 OFFCURVE",
"550 -18 OFFCURVE",
"608 -18 CURVE SMOOTH",
"688 -18 OFFCURVE",
"801 61 OFFCURVE",
"894 179 CURVE",
"859 206 LINE",
"789 117 OFFCURVE",
"717 61 OFFCURVE",
"677 61 CURVE SMOOTH",
"662 61 OFFCURVE",
"653 67 OFFCURVE",
"653 81 CURVE SMOOTH",
"653 93 OFFCURVE",
"660 117 OFFCURVE",
"672 145 CURVE SMOOTH",
"1006 911 LINE",
"835 911 LINE",
"679 577 LINE SMOOTH",
"531 263 OFFCURVE",
"353 43 OFFCURVE",
"244 43 CURVE SMOOTH",
"211 43 OFFCURVE",
"190 62 OFFCURVE",
"190 95 CURVE SMOOTH",
"190 113 OFFCURVE",
"199 145 OFFCURVE",
"213 177 CURVE SMOOTH {name = hr01;}",
"536 911 LINE",
"342 911 LINE",
"170 516 LINE SMOOTH",
"147 464 OFFCURVE",
"104 378 OFFCURVE",
"-22 141 CURVE SMOOTH",
"-154 -110 OFFCURVE",
"-206 -240 OFFCURVE",
"-206 -316 CURVE SMOOTH",
"-206 -378 OFFCURVE",
"-177 -416 OFFCURVE",
"-127 -416 CURVE SMOOTH"
);
}
);
width = 1063;
}
);
unicode = 03BC;
},
{
glyphname = zero;
layers = (
{
layerId = master01;
paths = (
{
closed = 1;
nodes = (
"724 -18 OFFCURVE",
"1113 511 OFFCURVE",
"1113 1000 CURVE SMOOTH",
"1113 1228 OFFCURVE",
"1027 1341 OFFCURVE",
"855 1341 CURVE SMOOTH",
"491 1341 OFFCURVE",
"127 828 OFFCURVE",
"127 314 CURVE SMOOTH",
"127 86 OFFCURVE",
"199 -18 OFFCURVE",
"361 -18 CURVE SMOOTH"
);
},
{
closed = 1;
nodes = (
"333 54 OFFCURVE",
"303 111 OFFCURVE",
"303 239 CURVE SMOOTH",
"303 658 OFFCURVE",
"617 1269 OFFCURVE",
"834 1269 CURVE SMOOTH",
"902 1269 OFFCURVE",
"935 1208 OFFCURVE",
"935 1079 CURVE SMOOTH",
"935 660 OFFCURVE",
"620 54 OFFCURVE",
"402 54 CURVE SMOOTH"
);
}
);
width = 1108;
}
);
unicode = 0030;
},
{
glyphname = one;
layers = (
{
layerId = master01;
paths = (
{
closed = 1;
nodes = (
"516 0 LINE",
"533 39 LINE",
"316 72 LINE",
"803 1341 LINE",
"744 1341 LINE",
"655 1264 OFFCURVE",
"441 1158 OFFCURVE",
"294 1119 CURVE",
"308 1072 LINE",
"540 1128 LINE",
"545 1124 LINE",
"140 81 LINE",
"-63 39 LINE",
"-79 0 LINE"
);
}
);
width = 737;
}
);
unicode = 0031;
},
{
glyphname = two;
layers = (
{
layerId = master01;
paths = (
{
closed = 1;
nodes = (
"758 0 LINE",
"898 351 LINE",
"844 351 LINE",
"806 276 OFFCURVE",
"763 224 OFFCURVE",
"696 156 CURVE",
"176 156 LINE",
"412 619 OFFCURVE",
"1045 742 OFFCURVE",
"1045 1119 CURVE SMOOTH",
"1045 1264 OFFCURVE",
"952 1341 OFFCURVE",
"775 1341 CURVE SMOOTH",
"565 1341 OFFCURVE",
"405 1239 OFFCURVE",
"263 1050 CURVE",
"313 1016 LINE",
"425 1165 OFFCURVE",
"581 1260 OFFCURVE",
"724 1260 CURVE SMOOTH",
"805 1260 OFFCURVE",
"849 1208 OFFCURVE",
"849 1128 CURVE SMOOTH",
"849 813 OFFCURVE",
"181 563 OFFCURVE",
"27 0 CURVE"
);
}
);
width = 1043;
}
);
unicode = 0032;
},
{
glyphname = three;
layers = (
{
layerId = master01;
paths = (
{
closed = 1;
nodes = (
"600 -18 OFFCURVE",
"877 222 OFFCURVE",
"877 490 CURVE SMOOTH",
"877 629 OFFCURVE",
"801 734 OFFCURVE",
"684 756 CURVE",
"898 887 OFFCURVE",
"993 1004 OFFCURVE",
"993 1135 CURVE SMOOTH",
"993 1264 OFFCURVE",
"898 1341 OFFCURVE",
"742 1341 CURVE SMOOTH",
"574 1341 OFFCURVE",
"419 1244 OFFCURVE",
"285 1056 CURVE",
"335 1020 LINE",
"448 1174 OFFCURVE",
"572 1260 OFFCURVE",
"683 1260 CURVE SMOOTH",
"765 1260 OFFCURVE",
"820 1203 OFFCURVE",
"820 1117 CURVE SMOOTH",
"820 952 OFFCURVE",
"620 769 OFFCURVE",
"332 670 CURVE",
"351 617 LINE",
"394 638 OFFCURVE",
"461 651 OFFCURVE",
"511 651 CURVE SMOOTH",
"620 651 OFFCURVE",
"681 574 OFFCURVE",
"681 435 CURVE SMOOTH",
"681 222 OFFCURVE",
"534 59 OFFCURVE",
"342 59 CURVE SMOOTH",
"145 59 OFFCURVE",
"215 226 OFFCURVE",
"93 226 CURVE SMOOTH",
"38 226 OFFCURVE",
"-2 189 OFFCURVE",
"-2 140 CURVE SMOOTH",
"-2 50 OFFCURVE",
"122 -18 OFFCURVE",
"285 -18 CURVE SMOOTH"
);
}
);
width = 1020;
}
);
unicode = 0033;
},
{
glyphname = four;
layers = (
{
layerId = master01;
paths = (
{
closed = 1;
nodes = (
"526 0 LINE",
"651 380 LINE",
"823 380 LINE",
"868 512 LINE",
"696 512 LINE",
"983 1323 LINE",
"808 1323 LINE",
"27 462 LINE",
"2 380 LINE",
"479 380 LINE",
"346 0 LINE"
);
},
{
closed = 1;
nodes = (
"748 1160 LINE",
"755 1160 LINE",
"526 512 LINE",
"163 512 LINE"
);
}
);
width = 956;
}
);
unicode = 0034;
},
{
glyphname = five;
layers = (
{
layerId = master01;
paths = (
{
closed = 1;
nodes = (
"577 -18 OFFCURVE",
"835 224 OFFCURVE",
"835 512 CURVE SMOOTH",
"835 712 OFFCURVE",
"712 830 OFFCURVE",
"502 830 CURVE SMOOTH",
"441 830 OFFCURVE",
"371 825 OFFCURVE",
"328 818 CURVE",
"443 1146 LINE",
"873 1146 LINE",
"940 1357 LINE",
"902 1370 LINE",
"857 1301 LINE",
"425 1301 LINE",
"197 656 LINE",
"219 640 LINE",
"267 655 OFFCURVE",
"337 667 OFFCURVE",
"409 667 CURVE SMOOTH",
"561 667 OFFCURVE",
"636 588 OFFCURVE",
"636 440 CURVE SMOOTH",
"636 237 OFFCURVE",
"491 59 OFFCURVE",
"325 59 CURVE SMOOTH",
"163 59 OFFCURVE",
"211 226 OFFCURVE",
"95 226 CURVE SMOOTH",
"39 226 OFFCURVE",
"5 189 OFFCURVE",
"5 136 CURVE SMOOTH",
"5 43 OFFCURVE",
"108 -18 OFFCURVE",
"265 -18 CURVE SMOOTH"
);
}
);
width = 934;
}
);
unicode = 0035;
},
{
glyphname = six;
layers = (
{
layerId = master01;
paths = (
{
closed = 1;
nodes = (
"617 -18 OFFCURVE",
"909 292 OFFCURVE",
"909 595 CURVE SMOOTH",
"909 769 OFFCURVE",
"814 857 OFFCURVE",
"631 857 CURVE SMOOTH",
"545 857 OFFCURVE",
"468 832 OFFCURVE",
"409 796 CURVE",
"404 801 LINE",
"534 1011 OFFCURVE",
"765 1214 OFFCURVE",
"979 1296 CURVE",
"963 1341 LINE",
"455 1181 OFFCURVE",
"91 758 OFFCURVE",
"91 294 CURVE SMOOTH",
"91 90 OFFCURVE",
"176 -18 OFFCURVE",
"339 -18 CURVE SMOOTH"
);
},
{
closed = 1;
nodes = (
"297 57 OFFCURVE",
"267 113 OFFCURVE",
"267 246 CURVE SMOOTH",
"267 538 OFFCURVE",
"412 782 OFFCURVE",
"588 782 CURVE SMOOTH",
"674 782 OFFCURVE",
"717 726 OFFCURVE",
"717 612 CURVE SMOOTH",
"717 369 OFFCURVE",
"541 57 OFFCURVE",
"380 57 CURVE SMOOTH"
);
}
);
width = 993;
}
);
unicode = 0036;
},
{
glyphname = seven;
layers = (
{
layerId = master01;
paths = (
{
closed = 1;
nodes = (
"387 -18 OFFCURVE",
"414 14 OFFCURVE",
"452 124 CURVE SMOOTH",
"569 468 OFFCURVE",
"751 792 OFFCURVE",
"1097 1280 CURVE",
"1079 1323 LINE",
"484 1323 LINE",
"484 1409 LINE",
"438 1409 LINE",
"276 1063 LINE",
"339 1063 LINE",
"441 1169 LINE",
"921 1169 LINE",
"378 411 OFFCURVE",
"239 186 OFFCURVE",
"239 74 CURVE SMOOTH",
"239 16 OFFCURVE",
"270 -18 OFFCURVE",
"326 -18 CURVE SMOOTH"
);
}
);
width = 894;
}
);
unicode = 0037;
},
{
glyphname = eight;
layers = (
{
layerId = master01;
paths = (
{
closed = 1;
nodes = (
"655 -18 OFFCURVE",
"864 111 OFFCURVE",
"864 396 CURVE SMOOTH",
"864 507 OFFCURVE",
"806 613 OFFCURVE",
"744 689 CURVE SMOOTH",
"689 756 LINE",
"834 820 OFFCURVE",
"1016 916 OFFCURVE",
"1016 1102 CURVE SMOOTH",
"1016 1242 OFFCURVE",
"904 1341 OFFCURVE",
"722 1341 CURVE SMOOTH",
"533 1341 OFFCURVE",
"349 1232 OFFCURVE",
"349 1006 CURVE SMOOTH",
"349 894 OFFCURVE",
"409 799 OFFCURVE",
"435 769 CURVE SMOOTH",
"471 724 LINE",
"305 655 OFFCURVE",
"63 531 OFFCURVE",
"63 296 CURVE SMOOTH",
"63 134 OFFCURVE",
"183 -18 OFFCURVE",
"443 -18 CURVE SMOOTH"
);
},
{
closed = 1;
nodes = (
"316 55 OFFCURVE",
"242 170 OFFCURVE",
"242 308 CURVE SMOOTH",
"242 505 OFFCURVE",
"351 583 OFFCURVE",
"512 670 CURVE",
"617 540 LINE SMOOTH",
"672 471 OFFCURVE",
"710 400 OFFCURVE",
"710 312 CURVE SMOOTH",
"710 154 OFFCURVE",
"617 55 OFFCURVE",
"464 55 CURVE SMOOTH"
);
},
{
closed = 1;
nodes = (
"581 871 OFFCURVE",
"497 961 OFFCURVE",
"497 1070 CURVE SMOOTH",
"497 1191 OFFCURVE",
"591 1269 OFFCURVE",
"713 1269 CURVE SMOOTH",
"813 1269 OFFCURVE",
"855 1207 OFFCURVE",
"855 1119 CURVE SMOOTH",
"855 978 OFFCURVE",
"762 882 OFFCURVE",
"646 803 CURVE"
);
}
);
width = 1067;
}
);
unicode = 0038;
},
{
glyphname = nine;
layers = (
{
layerId = master01;
paths = (
{
closed = 1;
nodes = (
"663 143 OFFCURVE",
"1027 565 OFFCURVE",
"1027 1029 CURVE SMOOTH",
"1027 1234 OFFCURVE",
"943 1341 OFFCURVE",
"780 1341 CURVE SMOOTH",
"502 1341 OFFCURVE",
"210 1031 OFFCURVE",
"210 729 CURVE SMOOTH",
"210 555 OFFCURVE",
"305 466 OFFCURVE",
"488 466 CURVE SMOOTH",
"570 466 OFFCURVE",
"656 497 OFFCURVE",
"713 536 CURVE",
"719 531 LINE",
"590 312 OFFCURVE",
"362 113 OFFCURVE",
"140 27 CURVE",
"156 -18 LINE"
);
},
{
closed = 1;
nodes = (
"445 541 OFFCURVE",
"402 598 OFFCURVE",
"402 712 CURVE SMOOTH",
"402 954 OFFCURVE",
"577 1267 OFFCURVE",
"739 1267 CURVE SMOOTH",
"821 1267 OFFCURVE",
"853 1210 OFFCURVE",
"853 1078 CURVE SMOOTH",
"853 785 OFFCURVE",
"706 541 OFFCURVE",
"531 541 CURVE SMOOTH"
);
}
);
width = 993;
}
);
unicode = 0039;
},
{
glyphname = zero.denominator;
layers = (
{
layerId = master01;
paths = (
{
closed = 1;
nodes = (
"389 -18 OFFCURVE",
"643 294 OFFCURVE",
"643 583 CURVE SMOOTH",
"643 715 OFFCURVE",
"586 782 OFFCURVE",
"469 782 CURVE SMOOTH",
"227 782 OFFCURVE",
"-14 481 OFFCURVE",
"-14 181 CURVE SMOOTH",
"-14 45 OFFCURVE",
"36 -18 OFFCURVE",
"147 -18 CURVE SMOOTH"
);
},
{
closed = 1;
nodes = (
"154 45 OFFCURVE",
"138 81 OFFCURVE",
"138 154 CURVE SMOOTH",
"138 389 OFFCURVE",
"313 720 OFFCURVE",
"434 720 CURVE SMOOTH",
"475 720 OFFCURVE",
"493 684 OFFCURVE",
"493 608 CURVE SMOOTH",
"493 375 OFFCURVE",
"316 45 OFFCURVE",
"194 45 CURVE SMOOTH"
);
}
);
width = 735;
}
);
},
{
glyphname = one.denominator;
layers = (
{
layerId = master01;
paths = (
{
closed = 1;
nodes = (
"270 0 LINE",
"285 36 LINE",
"158 55 LINE",
"438 789 LINE",
"364 789 LINE",
"312 744 OFFCURVE",
"177 683 OFFCURVE",
"84 656 CURVE",
"95 620 LINE",
"232 641 LINE",
"237 636 LINE",
"16 61 LINE",
"-104 36 LINE",
"-118 0 LINE"
);
}
);
width = 511;
}
);
},
{
glyphname = two.denominator;
layers = (
{
layerId = master01;
paths = (
{
closed = 1;
nodes = (
"383 0 LINE",
"468 206 LINE",
"432 219 LINE",
"416 188 OFFCURVE",
"398 161 OFFCURVE",
"371 133 CURVE",
"65 133 LINE",
"201 355 OFFCURVE",
"552 443 OFFCURVE",
"552 651 CURVE SMOOTH",
"552 739 OFFCURVE",
"488 789 OFFCURVE",
"380 789 CURVE SMOOTH",
"249 789 OFFCURVE",
"143 719 OFFCURVE",
"65 612 CURVE",
"106 577 LINE",
"165 665 OFFCURVE",
"251 720 OFFCURVE",
"321 720 CURVE SMOOTH",
"375 720 OFFCURVE",
"398 691 OFFCURVE",
"398 645 CURVE SMOOTH",
"398 462 OFFCURVE",
"22 323 OFFCURVE",
"-62 0 CURVE"
);
}
);
width = 645;
}
);
},
{
glyphname = three.denominator;
layers = (
{
layerId = master01;
paths = (
{
closed = 1;
nodes = (
"283 -18 OFFCURVE",
"454 124 OFFCURVE",
"454 282 CURVE SMOOTH",
"454 366 OFFCURVE",
"396 425 OFFCURVE",
"316 438 CURVE",
"450 495 OFFCURVE",
"522 584 OFFCURVE",
"522 662 CURVE SMOOTH",
"522 737 OFFCURVE",
"461 782 OFFCURVE",
"359 782 CURVE SMOOTH",
"260 782 OFFCURVE",
"160 722 OFFCURVE",
"82 604 CURVE",
"118 574 LINE",
"183 665 OFFCURVE",
"254 715 OFFCURVE",
"316 715 CURVE SMOOTH",
"361 715 OFFCURVE",
"382 688 OFFCURVE",
"382 648 CURVE SMOOTH",
"382 548 OFFCURVE",
"271 455 OFFCURVE",
"108 404 CURVE",
"127 351 LINE",
"151 362 OFFCURVE",
"188 369 OFFCURVE",
"213 369 CURVE SMOOTH",
"270 369 OFFCURVE",
"301 328 OFFCURVE",
"301 249 CURVE SMOOTH",
"301 129 OFFCURVE",
"226 39 OFFCURVE",
"122 39 CURVE SMOOTH",
"18 39 OFFCURVE",
"32 146 OFFCURVE",
"-31 146 CURVE SMOOTH",
"-59 146 OFFCURVE",
"-81 125 OFFCURVE",
"-81 90 CURVE SMOOTH",
"-81 29 OFFCURVE",
"-12 -18 OFFCURVE",
"90 -18 CURVE SMOOTH"
);
}
);
width = 643;
}
);
},
{
glyphname = four.denominator;
layers = (
{
layerId = master01;
paths = (
{
closed = 1;
nodes = (
"267 0 LINE",
"330 206 LINE",
"435 206 LINE",
"469 306 LINE",
"366 306 LINE",
"536 789 LINE",
"402 789 LINE",
"-63 276 LINE",
"-88 206 LINE",
"199 206 LINE",
"125 0 LINE"
);
},
{
closed = 1;
nodes = (
"349 648 LINE",
"355 648 LINE",
"235 306 LINE",
"41 306 LINE"
);
}
);
width = 620;
}
);
},
{
glyphname = five.denominator;
layers = (
{
layerId = master01;
paths = (
{
closed = 1;
nodes = (
"271 -18 OFFCURVE",
"430 115 OFFCURVE",
"430 273 CURVE SMOOTH",
"430 402 OFFCURVE",
"354 490 OFFCURVE",
"220 490 CURVE SMOOTH",
"194 490 OFFCURVE",
"161 486 OFFCURVE",
"143 483 CURVE",
"192 624 LINE",
"421 624 LINE",
"477 794 LINE",
"437 801 LINE",
"411 760 LINE",
"172 760 LINE",
"39 382 LINE",
"61 351 LINE",
"90 359 OFFCURVE",
"129 364 OFFCURVE",
"179 364 CURVE SMOOTH",
"253 364 OFFCURVE",
"297 318 OFFCURVE",
"297 229 CURVE SMOOTH",
"297 131 OFFCURVE",
"211 38 OFFCURVE",
"113 38 CURVE SMOOTH",
"19 38 OFFCURVE",
"47 134 OFFCURVE",
"-22 134 CURVE SMOOTH",
"-61 134 OFFCURVE",
"-82 110 OFFCURVE",
"-82 74 CURVE SMOOTH",
"-82 19 OFFCURVE",
"-19 -18 OFFCURVE",
"77 -18 CURVE SMOOTH"
);
}
);
width = 584;
}
);
},
{
glyphname = six.denominator;
layers = (
{
layerId = master01;
paths = (
{
closed = 1;
nodes = (
"318 -18 OFFCURVE",
"498 167 OFFCURVE",
"498 344 CURVE SMOOTH",
"498 445 OFFCURVE",
"440 498 OFFCURVE",
"337 498 CURVE SMOOTH",
"292 498 OFFCURVE",
"251 488 OFFCURVE",
"217 469 CURVE",
"211 473 LINE",
"289 588 OFFCURVE",
"404 684 OFFCURVE",
"526 730 CURVE",
"507 778 LINE",
"186 684 OFFCURVE",
"-25 448 OFFCURVE",
"-25 188 CURVE SMOOTH",
"-25 54 OFFCURVE",
"32 -18 OFFCURVE",
"141 -18 CURVE SMOOTH"
);
},
{
closed = 1;
nodes = (
"115 39 OFFCURVE",
"95 72 OFFCURVE",
"95 147 CURVE SMOOTH",
"95 305 OFFCURVE",
"176 434 OFFCURVE",
"273 434 CURVE SMOOTH",
"326 434 OFFCURVE",
"353 398 OFFCURVE",
"353 332 CURVE SMOOTH",
"353 192 OFFCURVE",
"253 39 OFFCURVE",
"163 39 CURVE SMOOTH"
);
}
);
width = 649;
}
);
},
{
glyphname = seven.denominator;
layers = (
{
layerId = master01;
paths = (
{
closed = 1;
nodes = (
"154 -18 OFFCURVE",
"181 -5 OFFCURVE",
"203 55 CURVE SMOOTH",
"278 253 OFFCURVE",
"369 445 OFFCURVE",
"561 732 CURVE",
"550 758 LINE",
"217 758 LINE",
"217 808 LINE",
"179 808 LINE",
"50 557 LINE",
"97 557 LINE",
"161 624 LINE",
"412 624 LINE",
"97 199 OFFCURVE",
"48 111 OFFCURVE",
"48 48 CURVE SMOOTH",
"48 7 OFFCURVE",
"70 -18 OFFCURVE",
"115 -18 CURVE SMOOTH"
);
}
);
width = 563;
}
);
},
{
glyphname = eight.denominator;
layers = (
{
layerId = master01;
paths = (
{
closed = 1;
nodes = (
"326 -18 OFFCURVE",
"457 61 OFFCURVE",
"457 227 CURVE SMOOTH",
"457 273 OFFCURVE",
"438 333 OFFCURVE",
"392 391 CURVE SMOOTH",
"359 430 LINE",
"445 468 OFFCURVE",
"545 533 OFFCURVE",
"545 641 CURVE SMOOTH",
"545 726 OFFCURVE",
"475 782 OFFCURVE",
"357 782 CURVE SMOOTH",
"240 782 OFFCURVE",
"124 719 OFFCURVE",
"124 586 CURVE SMOOTH",
"124 536 OFFCURVE",
"146 484 OFFCURVE",
"183 438 CURVE SMOOTH",
"201 412 LINE",
"104 371 OFFCURVE",
"-45 306 OFFCURVE",
"-45 168 CURVE SMOOTH",
"-45 72 OFFCURVE",
"29 -18 OFFCURVE",
"196 -18 CURVE SMOOTH"
);
},
{
closed = 1;
nodes = (
"124 47 OFFCURVE",
"84 106 OFFCURVE",
"84 176 CURVE SMOOTH",
"84 290 OFFCURVE",
"151 330 OFFCURVE",
"242 382 CURVE",
"289 305 LINE SMOOTH",
"325 244 OFFCURVE",
"337 210 OFFCURVE",
"337 160 CURVE SMOOTH",
"337 100 OFFCURVE",
"289 47 OFFCURVE",
"208 47 CURVE SMOOTH"
);
},
{
closed = 1;
nodes = (
"260 536 OFFCURVE",
"242 579 OFFCURVE",
"242 624 CURVE SMOOTH",
"242 681 OFFCURVE",
"292 720 OFFCURVE",
"354 720 CURVE SMOOTH",
"405 720 OFFCURVE",
"430 689 OFFCURVE",
"430 651 CURVE SMOOTH",
"430 569 OFFCURVE",
"376 514 OFFCURVE",
"314 468 CURVE"
);
}
);
width = 679;
}
);
},
{
glyphname = nine.denominator;
layers = (
{
layerId = master01;
paths = (
{
closed = 1;
nodes = (
"353 77 OFFCURVE",
"563 313 OFFCURVE",
"563 574 CURVE SMOOTH",
"563 708 OFFCURVE",
"505 778 OFFCURVE",
"397 778 CURVE SMOOTH",
"220 778 OFFCURVE",
"39 595 OFFCURVE",
"39 418 CURVE SMOOTH",
"39 316 OFFCURVE",
"98 263 OFFCURVE",
"201 263 CURVE SMOOTH",
"246 263 OFFCURVE",
"287 273 OFFCURVE",
"321 292 CURVE",
"326 289 LINE",
"249 174 OFFCURVE",
"134 77 OFFCURVE",
"12 31 CURVE",
"31 -18 LINE"
);
},
{
closed = 1;
nodes = (
"211 328 OFFCURVE",
"186 362 OFFCURVE",
"186 430 CURVE SMOOTH",
"186 569 OFFCURVE",
"285 722 OFFCURVE",
"375 722 CURVE",
"423 722 OFFCURVE",
"443 689 OFFCURVE",
"443 613 CURVE SMOOTH",
"443 457 OFFCURVE",
"362 328 OFFCURVE",
"265 328 CURVE SMOOTH"
);
}
);
width = 651;
}
);
},
{
glyphname = zero.numerator;
layers = (
{
layerId = master01;
paths = (
{
closed = 1;
nodes = (
"624 541 OFFCURVE",
"878 853 OFFCURVE",
"878 1142 CURVE SMOOTH",
"878 1273 OFFCURVE",
"821 1341 OFFCURVE",
"705 1341 CURVE SMOOTH",
"462 1341 OFFCURVE",
"222 1040 OFFCURVE",
"222 739 CURVE SMOOTH",
"222 604 OFFCURVE",
"271 541 OFFCURVE",
"383 541 CURVE SMOOTH"
);
},
{
closed = 1;
nodes = (
"391 604 OFFCURVE",
"373 640 OFFCURVE",
"373 713 CURVE SMOOTH",
"373 947 OFFCURVE",
"548 1278 OFFCURVE",
"669 1278 CURVE SMOOTH",
"710 1278 OFFCURVE",
"729 1242 OFFCURVE",
"729 1167 CURVE SMOOTH",
"729 934 OFFCURVE",
"552 604 OFFCURVE",
"430 604 CURVE SMOOTH"
);
}
);
width = 735;
}
);
},
{
glyphname = one.numerator;
layers = (
{
layerId = master01;
paths = (
{
closed = 1;
nodes = (
"505 552 LINE",
"521 588 LINE",
"394 606 LINE",
"674 1341 LINE",
"600 1341 LINE",
"547 1296 OFFCURVE",
"412 1234 OFFCURVE",
"319 1208 CURVE",
"330 1172 LINE",
"468 1192 LINE",
"473 1188 LINE",
"251 612 LINE",
"131 588 LINE",
"117 552 LINE"
);
}
);
width = 511;
}
);
},
{
glyphname = two.numerator;
layers = (
{
layerId = master01;
paths = (
{
closed = 1;
nodes = (
"617 552 LINE",
"701 758 LINE",
"665 770 LINE",
"649 739 OFFCURVE",
"633 713 OFFCURVE",
"605 684 CURVE",
"299 684 LINE",
"435 907 OFFCURVE",
"785 995 OFFCURVE",
"785 1203 CURVE SMOOTH",
"785 1291 OFFCURVE",
"722 1341 OFFCURVE",
"613 1341 CURVE SMOOTH",
"483 1341 OFFCURVE",
"376 1271 OFFCURVE",
"299 1164 CURVE",
"340 1129 LINE",
"398 1217 OFFCURVE",
"484 1271 OFFCURVE",
"555 1271 CURVE SMOOTH",
"608 1271 OFFCURVE",
"633 1242 OFFCURVE",
"633 1196 CURVE SMOOTH",
"633 1014 OFFCURVE",
"256 875 OFFCURVE",
"172 552 CURVE"
);
}
);
width = 651;
}
);
},
{
glyphname = three.numerator;
layers = (
{
layerId = master01;
paths = (
{
closed = 1;
nodes = (
"520 541 OFFCURVE",
"689 683 OFFCURVE",
"689 841 CURVE SMOOTH",
"689 925 OFFCURVE",
"631 983 OFFCURVE",
"552 997 CURVE",
"686 1054 OFFCURVE",
"758 1143 OFFCURVE",
"758 1221 CURVE SMOOTH",
"758 1296 OFFCURVE",
"696 1341 OFFCURVE",
"595 1341 CURVE SMOOTH",
"495 1341 OFFCURVE",
"396 1280 OFFCURVE",
"318 1162 CURVE",
"354 1133 LINE",
"418 1224 OFFCURVE",
"490 1273 OFFCURVE",
"552 1273 CURVE SMOOTH",
"597 1273 OFFCURVE",
"617 1246 OFFCURVE",
"617 1207 CURVE SMOOTH",
"617 1106 OFFCURVE",
"507 1014 OFFCURVE",
"344 963 CURVE",
"362 909 LINE",
"387 921 OFFCURVE",
"423 928 OFFCURVE",
"448 928 CURVE SMOOTH",
"505 928 OFFCURVE",
"536 887 OFFCURVE",
"536 808 CURVE SMOOTH",
"536 688 OFFCURVE",
"461 598 OFFCURVE",
"357 598 CURVE SMOOTH",
"253 598 OFFCURVE",
"269 705 OFFCURVE",
"204 705 CURVE SMOOTH",
"177 705 OFFCURVE",
"154 684 OFFCURVE",
"154 648 CURVE SMOOTH",
"154 588 OFFCURVE",
"224 541 OFFCURVE",
"325 541 CURVE SMOOTH"
);
}
);
width = 640;
}
);
},
{
glyphname = four.numerator;
layers = (
{
layerId = master01;
paths = (
{
closed = 1;
nodes = (
"500 552 LINE",
"563 758 LINE",
"669 758 LINE",
"703 857 LINE",
"600 857 LINE",
"770 1341 LINE",
"636 1341 LINE",
"170 828 LINE",
"146 758 LINE",
"434 758 LINE",
"359 552 LINE"
);
},
{
closed = 1;
nodes = (
"583 1199 LINE",
"590 1199 LINE",
"469 857 LINE",
"275 857 LINE"
);
}
);
width = 619;
}
);
},
{
glyphname = five.numerator;
layers = (
{
layerId = master01;
paths = (
{
closed = 1;
nodes = (
"505 541 OFFCURVE",
"663 674 OFFCURVE",
"663 832 CURVE SMOOTH",
"663 961 OFFCURVE",
"588 1049 OFFCURVE",
"454 1049 CURVE SMOOTH",
"428 1049 OFFCURVE",
"396 1045 OFFCURVE",
"376 1042 CURVE",
"426 1183 LINE",
"655 1183 LINE",
"710 1353 LINE",
"670 1359 LINE",
"645 1318 LINE",
"405 1318 LINE",
"273 940 LINE",
"294 909 LINE",
"323 918 OFFCURVE",
"362 923 OFFCURVE",
"412 923 CURVE SMOOTH",
"486 923 OFFCURVE",
"531 877 OFFCURVE",
"531 787 CURVE SMOOTH",
"531 689 OFFCURVE",
"445 597 OFFCURVE",
"348 597 CURVE SMOOTH",
"253 597 OFFCURVE",
"280 692 OFFCURVE",
"211 692 CURVE SMOOTH",
"174 692 OFFCURVE",
"151 669 OFFCURVE",
"151 633 CURVE SMOOTH",
"151 577 OFFCURVE",
"215 541 OFFCURVE",
"312 541 CURVE SMOOTH"
);
}
);
width = 584;
}
);
},
{
glyphname = six.numerator;
layers = (
{
layerId = master01;
paths = (
{
closed = 1;
nodes = (
"554 540 OFFCURVE",
"734 724 OFFCURVE",
"734 900 CURVE SMOOTH",
"734 1002 OFFCURVE",
"676 1056 OFFCURVE",
"572 1056 CURVE SMOOTH",
"527 1056 OFFCURVE",
"486 1045 OFFCURVE",
"452 1026 CURVE",
"447 1029 LINE",
"524 1145 OFFCURVE",
"640 1241 OFFCURVE",
"762 1287 CURVE",
"742 1336 LINE",
"421 1241 OFFCURVE",
"210 1006 OFFCURVE",
"210 744 CURVE SMOOTH",
"210 610 OFFCURVE",
"269 540 OFFCURVE",
"376 540 CURVE SMOOTH"
);
},
{
closed = 1;
nodes = (
"351 597 OFFCURVE",
"330 629 OFFCURVE",
"330 705 CURVE SMOOTH",
"330 861 OFFCURVE",
"411 990 OFFCURVE",
"509 990 CURVE SMOOTH",
"563 990 OFFCURVE",
"588 956 OFFCURVE",
"588 889 CURVE SMOOTH",
"588 749 OFFCURVE",
"488 597 OFFCURVE",
"398 597 CURVE SMOOTH"
);
}
);
width = 651;
}
);
},
{
glyphname = seven.numerator;
layers = (
{
layerId = master01;
paths = (
{
closed = 1;
nodes = (
"389 541 OFFCURVE",
"414 554 OFFCURVE",
"437 613 CURVE SMOOTH",
"512 812 OFFCURVE",
"604 1004 OFFCURVE",
"794 1291 CURVE",
"784 1316 LINE",
"450 1316 LINE",
"450 1366 LINE",
"412 1366 LINE",
"283 1115 LINE",
"330 1115 LINE",
"396 1183 LINE",
"646 1183 LINE",
"330 758 OFFCURVE",
"282 670 OFFCURVE",
"282 606 CURVE SMOOTH",
"282 565 OFFCURVE",
"305 541 OFFCURVE",
"349 541 CURVE SMOOTH"
);
}
);
width = 561;
}
);
},
{
glyphname = eight.numerator;
layers = (
{
layerId = master01;
paths = (
{
closed = 1;
nodes = (
"563 540 OFFCURVE",
"694 617 OFFCURVE",
"694 784 CURVE SMOOTH",
"694 830 OFFCURVE",
"676 891 OFFCURVE",
"629 947 CURVE SMOOTH",
"597 986 LINE",
"683 1024 OFFCURVE",
"782 1090 OFFCURVE",
"782 1198 CURVE SMOOTH",
"782 1282 OFFCURVE",
"712 1339 OFFCURVE",
"595 1339 CURVE SMOOTH",
"478 1339 OFFCURVE",
"361 1275 OFFCURVE",
"361 1143 CURVE SMOOTH",
"361 1093 OFFCURVE",
"383 1042 OFFCURVE",
"419 995 CURVE SMOOTH",
"438 970 LINE",
"342 928 OFFCURVE",
"192 863 OFFCURVE",
"192 726 CURVE SMOOTH",
"192 629 OFFCURVE",
"267 540 OFFCURVE",
"434 540 CURVE SMOOTH"
);
},
{
closed = 1;
nodes = (
"361 604 OFFCURVE",
"321 663 OFFCURVE",
"321 732 CURVE SMOOTH",
"321 848 OFFCURVE",
"389 887 OFFCURVE",
"479 938 CURVE",
"526 861 LINE SMOOTH",
"563 801 OFFCURVE",
"574 767 OFFCURVE",
"574 717 CURVE SMOOTH",
"574 656 OFFCURVE",
"526 604 OFFCURVE",
"445 604 CURVE SMOOTH"
);
},
{
closed = 1;
nodes = (
"497 1093 OFFCURVE",
"479 1136 OFFCURVE",
"479 1181 CURVE SMOOTH",
"479 1237 OFFCURVE",
"529 1277 OFFCURVE",
"591 1277 CURVE SMOOTH",
"643 1277 OFFCURVE",
"667 1246 OFFCURVE",
"667 1208 CURVE SMOOTH",
"667 1126 OFFCURVE",
"613 1070 OFFCURVE",
"552 1024 CURVE"
);
}
);
width = 681;
}
);
},
{
glyphname = nine.numerator;
layers = (
{
layerId = master01;
paths = (
{
closed = 1;
nodes = (
"591 640 OFFCURVE",
"803 875 OFFCURVE",
"803 1136 CURVE SMOOTH",
"803 1271 OFFCURVE",
"744 1341 OFFCURVE",
"636 1341 CURVE SMOOTH",
"459 1341 OFFCURVE",
"278 1156 OFFCURVE",
"278 979 CURVE SMOOTH",
"278 878 OFFCURVE",
"337 825 OFFCURVE",
"440 825 CURVE SMOOTH",
"484 825 OFFCURVE",
"526 835 OFFCURVE",
"561 854 CURVE",
"565 851 LINE",
"488 735 OFFCURVE",
"373 640 OFFCURVE",
"251 593 CURVE",
"270 545 LINE"
);
},
{
closed = 1;
nodes = (
"450 891 OFFCURVE",
"425 925 OFFCURVE",
"425 992 CURVE SMOOTH",
"425 1131 OFFCURVE",
"524 1284 OFFCURVE",
"613 1284 CURVE SMOOTH",
"662 1284 OFFCURVE",
"683 1251 OFFCURVE",
"683 1176 CURVE SMOOTH",
"683 1020 OFFCURVE",
"602 891 OFFCURVE",
"504 891 CURVE SMOOTH"
);
}
);
width = 653;
}
);
},
